<svg width="304" height="260" viewBox="0 0 304 260" fill="none" xmlns="http://www.w3.org/2000/svg">
<path d="M24.9745 88.3444C28.7682 85.2148 33.9045 84.7616 38.5932 85.6249C43.6017 86.5314 48.1625 88.9703 52.7873 91.0207C57.5613 93.1575 62.4206 94.6899 67.6635 94.9489C72.885 95.2295 78.1066 94.4741 83.179 93.1791C93.7713 90.4812 103.49 85.3012 113.656 81.3946C118.75 79.4305 124.014 77.7254 129.427 76.9484C132.368 76.5168 135.331 76.4088 138.293 76.7326C141.106 77.0348 143.856 77.7038 146.605 78.3945C152.679 79.9269 158.732 81.2651 164.955 82.0205C171.37 82.7975 177.849 83.0565 184.307 82.8407C184.712 82.8191 184.712 82.1716 184.307 82.1932C172.585 82.6248 160.863 81.3514 149.482 78.4808C144.047 77.0995 138.655 75.675 133.008 75.9556C127.53 76.2362 122.117 77.7038 116.959 79.4953C106.623 83.0997 96.9042 88.3876 86.4185 91.6035C81.0903 93.2222 75.5704 94.3446 69.9865 94.3662C64.3174 94.3877 58.9893 93.0496 53.8103 90.7617C48.6953 88.5171 43.6869 85.7328 38.1243 84.8695C33.393 84.1357 28.3419 84.7184 24.527 87.8696C24.2073 88.1502 24.6548 88.625 24.9745 88.3444Z" fill="#DFE6E9"/>
<path d="M139.764 68.618C154.533 75.0714 171.306 73.9923 186.417 69.3087C194.601 66.7618 202.742 63.3517 211.459 63.3732C220.24 63.3948 228.573 66.5028 237.162 67.8842C244.962 69.136 253.551 68.9849 260.243 64.2366C260.584 63.9992 260.265 63.438 259.924 63.6754C253.743 68.0568 245.9 68.4453 238.654 67.4525C230.448 66.3302 222.563 63.438 214.272 62.8337C205.982 62.2293 198.16 64.7546 190.381 67.3446C182.623 69.913 174.78 71.9203 166.617 72.3951C157.581 72.9347 148.438 71.7044 140.105 68.0568C139.721 67.8842 139.401 68.4453 139.764 68.618Z" fill="#DFE6E9"/>
<path d="M16.8331 122.425C21.5006 119.058 27.0205 116.986 32.7323 116.424C35.5882 116.144 38.4653 116.252 41.2786 116.748C44.1984 117.266 47.0117 118.259 49.8036 119.252C54.9825 121.065 60.1188 122.446 65.5748 121.173C70.2849 120.072 74.5474 117.59 78.7247 115.237C83.6478 112.453 88.7628 109.604 94.4746 109.086C94.8795 109.043 94.8795 108.395 94.4746 108.439C84.2872 109.367 76.636 117.115 67.1307 120.072C64.7223 120.827 62.2075 121.216 59.6926 121.065C56.6023 120.871 53.5972 119.899 50.6987 118.885C47.7789 117.871 44.8591 116.77 41.7901 116.187C39.1473 115.691 36.4407 115.54 33.7766 115.712C27.596 116.101 21.5645 118.237 16.5135 121.885C16.1725 122.101 16.4921 122.662 16.8331 122.425Z" fill="#DFE6E9"/>
<path d="M73.3326 130.712C81.6232 121.842 93.8139 118.216 105.6 118.108C112.441 118.043 119.261 119.036 125.932 120.482C132.283 121.842 138.442 123.611 145.006 122.726C151.869 121.798 158.284 118.82 164.422 115.69C164.784 115.496 164.465 114.935 164.102 115.129C158.263 118.108 152.189 120.935 145.688 121.971C142.364 122.489 139.018 122.446 135.693 121.906C132.326 121.367 129.043 120.46 125.697 119.748C113.507 117.158 100.527 116.057 88.5497 120.266C82.6462 122.338 77.1902 125.64 72.885 130.237C72.608 130.561 73.0555 131.014 73.3326 130.712Z" fill="#DFE6E9"/>
<path d="M172.116 137.166C175.59 138.397 179.149 137.253 182.325 135.72C185.884 133.994 189.23 131.857 192.874 130.324C196.519 128.792 200.44 127.756 204.404 128.252C208.027 128.706 211.374 130.346 214.549 132.094C217.554 133.756 220.517 135.569 223.713 136.843C227.273 138.246 231.109 138.915 234.924 138.828C242.745 138.656 249.395 134.706 256.535 132.03C263.205 129.526 272.093 128.404 277.442 134.274C277.719 134.576 278.167 134.123 277.89 133.821C273.691 129.224 266.999 128.706 261.245 129.936C253.743 131.533 247.264 136.174 239.719 137.663C235.691 138.461 231.471 138.354 227.486 137.382C223.777 136.476 220.453 134.706 217.128 132.828C214.123 131.123 211.075 129.353 207.772 128.339C204.34 127.281 200.76 127.26 197.286 128.123C193.045 129.181 189.145 131.274 185.33 133.389C181.387 135.548 176.826 138.181 172.244 136.562C171.903 136.411 171.732 137.037 172.116 137.166Z" fill="#DFE6E9"/>
<path d="M228.232 147.569C237.055 148.109 244.323 142.044 252.656 140.209C254.872 139.713 257.217 139.497 259.476 139.886C261.501 140.231 263.333 141.073 265.081 142.152C268.086 144.008 271.006 146.404 274.672 146.663C279.126 146.965 283.069 144.159 286.394 141.526C286.713 141.267 286.266 140.814 285.946 141.073C282.707 143.62 278.828 146.404 274.48 145.994C270.708 145.648 267.724 142.886 264.548 141.094C257.238 136.95 249.416 140.209 242.405 143.339C237.908 145.325 233.24 147.246 228.253 146.943C227.827 146.9 227.827 147.548 228.232 147.569Z" fill="#DFE6E9"/>
<path d="M27.063 188.837C30.1534 185.858 34.7355 184.693 38.8489 185.836C43.154 187.024 45.9246 190.779 49.3772 193.369C56.2612 198.527 65.6387 197.707 73.2046 194.664C82.1345 191.081 89.5726 184.606 98.4812 180.959C102.829 179.167 107.539 178.023 112.27 178.347C116.874 178.671 120.795 180.678 124.44 183.398C128.063 186.095 131.473 189.29 135.714 190.995C140.254 192.808 145.369 192.419 149.631 190.024C149.993 189.829 149.674 189.268 149.312 189.462C144.964 191.901 139.764 192.117 135.224 190.088C131.43 188.383 128.319 185.534 125.015 183.031C121.627 180.462 118.025 178.455 113.762 177.851C109.372 177.246 104.896 178.002 100.74 179.405C91.6399 182.491 84.1379 188.858 75.5063 192.937C67.5355 196.714 57.2842 198.484 49.7182 192.808C45.9459 189.98 42.9835 185.944 38.1242 184.995C34.0109 184.196 29.6419 185.448 26.6155 188.383C26.3171 188.664 26.7647 189.139 27.063 188.837Z" fill="#DFE6E9"/>
<path d="M108.946 200.88C112.462 198.571 116.639 197.47 120.838 197.815C124.674 198.139 128.297 199.585 131.814 201.031C135.224 202.434 138.676 203.902 142.342 204.506C146.178 205.132 150.057 204.657 153.744 203.513C158.156 202.132 162.248 199.931 166.276 197.708C166.638 197.513 166.319 196.952 165.956 197.146C158.582 201.182 150.484 205.434 141.831 203.751C134.606 202.348 128.255 197.815 120.817 197.168C116.511 196.801 112.206 197.945 108.605 200.319C108.285 200.557 108.605 201.118 108.946 200.88Z" fill="#DFE6E9"/>
<path d="M189.4 215.514C194.047 211.111 199.758 207.938 205.918 206.319C209.051 205.499 212.269 205.089 215.508 205.11C219.11 205.154 222.691 205.736 226.271 206.082C233.219 206.751 239.89 205.564 246.39 202.995C252.592 200.556 258.432 196.326 265.102 195.29C272.903 194.081 278.934 199.326 283.9 204.7C284.177 205.002 284.625 204.549 284.348 204.247C280.256 199.823 275.439 195.247 269.216 194.535C262.396 193.758 256.194 197.815 250.269 200.6C243.449 203.815 236.096 206.017 228.53 205.585C224.758 205.369 221.028 204.679 217.235 204.484C214.016 204.312 210.777 204.549 207.623 205.218C200.653 206.664 194.153 210.075 188.953 215.017C188.655 215.341 189.102 215.794 189.4 215.514Z" fill="#DFE6E9"/>
<path d="M64.6158 79.1283C70.5833 83.8119 78.3624 81.7399 84.8627 79.5816C92.9188 76.8837 101.082 75.1786 109.607 75.0059C110.011 75.0059 110.011 74.3584 109.607 74.3584C101.764 74.5095 94.0271 75.8692 86.5677 78.3297C79.8116 80.5528 71.4145 83.6824 65.0634 78.6751C64.7437 78.4161 64.2962 78.8693 64.6158 79.1283Z" fill="#111314"/>
<path d="M122.074 39.89C129.278 39.3504 136.226 37.3216 143.195 35.6165C150.441 33.8251 157.709 32.638 165.189 33.4582C172.734 34.2783 180.044 36.5878 187.44 38.2281C194.558 39.8253 201.783 40.5591 209.072 40.1922C217.277 39.7821 225.376 38.0338 233.027 35.0553C233.411 34.9043 233.24 34.2783 232.857 34.4294C218.94 39.8468 203.744 40.9908 189.166 37.9259C181.898 36.3935 174.78 34.1488 167.427 33.0697C160.33 32.0337 153.404 32.6164 146.413 34.1704C138.314 35.9618 130.365 38.595 122.074 39.2209C121.669 39.2857 121.669 39.9332 122.074 39.89Z" fill="#111314"/>
<path d="M237.417 93.978C243.641 91.647 250.098 94.9708 256.321 95.5752C259.667 95.8989 262.992 95.5752 266.253 94.7982C269.45 94.0212 272.562 92.8772 275.822 92.3808C279.318 91.8413 283.047 92.0571 286.074 94.0643C286.415 94.3017 286.734 93.7406 286.393 93.5032C281.023 89.9635 274.458 91.8628 268.789 93.46C265.23 94.4744 261.671 95.2082 257.963 95.0572C254.425 94.9277 251.036 93.9348 247.583 93.201C244.152 92.4888 240.614 92.1003 237.268 93.3521C236.863 93.4816 237.034 94.1075 237.417 93.978Z" fill="#111314"/>
<path d="M53.8658 157.488C59.2792 152.61 66.9091 156.927 72.9192 157.855C79.8671 158.934 86.8149 156.992 93.4431 155.114C93.8481 155.006 93.6776 154.38 93.2726 154.488C85.9411 156.56 78.3539 158.61 70.7453 156.776C65.1828 155.438 58.3841 152.589 53.397 157.035C53.0986 157.294 53.5462 157.747 53.8658 157.488Z" fill="#111314"/>
<path d="M88.3368 220.068C90.0631 217.996 92.7272 216.873 95.4126 217.219C96.9471 217.413 98.3537 218.125 99.7603 218.751C100.932 219.269 102.126 219.701 103.341 220.046C108.562 221.514 114.168 221.298 119.261 219.485C119.645 219.355 119.474 218.73 119.091 218.859C113.379 220.866 107.07 220.866 101.38 218.708C98.9078 217.78 96.6061 216.291 93.8568 216.506C91.5337 216.679 89.3811 217.801 87.868 219.593C87.6122 219.938 88.0811 220.391 88.3368 220.068Z" fill="#111314"/>
<path d="M124.611 218.297C128.489 217.153 132.475 216.592 136.524 216.614C136.929 216.614 136.929 215.966 136.524 215.966C132.432 215.945 128.383 216.528 124.44 217.672C124.056 217.801 124.206 218.427 124.611 218.297Z" fill="#111314"/>
<path d="M129.683 50.5312C133.455 53.4666 137.057 56.6177 140.509 59.9632C140.808 60.2437 141.255 59.7905 140.957 59.5099C137.483 56.1429 133.817 52.9702 130.002 49.9917C129.683 49.7111 129.363 50.2722 129.683 50.5312Z" fill="#111314"/>
<path d="M92.7272 61.9049C93.0895 59.876 93.4731 57.8472 93.8354 55.7968C93.9207 55.3867 93.3026 55.214 93.2174 55.6241C92.8551 57.653 92.4714 59.6818 92.1091 61.7322C92.0452 62.1423 92.6633 62.315 92.7272 61.9049Z" fill="#111314"/>
<path d="M215.615 74.7683C216.297 74.7683 216.851 74.2078 216.851 73.5165C216.851 72.8251 216.297 72.2646 215.615 72.2646C214.932 72.2646 214.378 72.8251 214.378 73.5165C214.378 74.2078 214.932 74.7683 215.615 74.7683Z" fill="#F7FAFC"/>
<path d="M54.1083 178.152C54.9204 178.152 55.5788 177.486 55.5788 176.663C55.5788 175.841 54.9204 175.174 54.1083 175.174C53.2961 175.174 52.6377 175.841 52.6377 176.663C52.6377 177.486 53.2961 178.152 54.1083 178.152Z" fill="#F7FAFC"/>
<path d="M46.9899 43.2354C48.8497 43.2354 50.3573 41.7086 50.3573 39.8252C50.3573 37.9418 48.8497 36.415 46.9899 36.415C45.1302 36.415 43.6226 37.9418 43.6226 39.8252C43.6226 41.7086 45.1302 43.2354 46.9899 43.2354Z" fill="#F7FAFC"/>
<path d="M53.7463 46.5378C54.3701 46.5378 54.8758 46.0257 54.8758 45.3939C54.8758 44.7621 54.3701 44.25 53.7463 44.25C53.1224 44.25 52.6167 44.7621 52.6167 45.3939C52.6167 46.0257 53.1224 46.5378 53.7463 46.5378Z" fill="#F7FAFC"/>
<path d="M118.281 238.521C119.669 238.521 120.795 237.381 120.795 235.975C120.795 234.568 119.669 233.428 118.281 233.428C116.892 233.428 115.766 234.568 115.766 235.975C115.766 237.381 116.892 238.521 118.281 238.521Z" fill="#F7FAFC"/>
<path d="M235.158 47.6808C236.382 47.6808 237.374 46.6758 237.374 45.4361C237.374 44.1964 236.382 43.1914 235.158 43.1914C233.934 43.1914 232.941 44.1964 232.941 45.4361C232.941 46.6758 233.934 47.6808 235.158 47.6808Z" fill="#F7FAFC"/>
<path d="M237.993 42.7392C238.746 42.7392 239.357 42.1208 239.357 41.3579C239.357 40.595 238.746 39.9766 237.993 39.9766C237.24 39.9766 236.629 40.595 236.629 41.3579C236.629 42.1208 237.24 42.7392 237.993 42.7392Z" fill="#F7FAFC"/>
<path d="M50.3786 39.6524C52.2384 39.6524 53.746 38.1256 53.746 36.2422C53.746 34.3588 52.2384 32.832 50.3786 32.832C48.5189 32.832 47.0112 34.3588 47.0112 36.2422C47.0112 38.1256 48.5189 39.6524 50.3786 39.6524Z" fill="#10B6E8"/>
<path d="M48.6949 180.16C49.6248 180.16 50.3786 179.397 50.3786 178.455C50.3786 177.513 49.6248 176.75 48.6949 176.75C47.765 176.75 47.0112 177.513 47.0112 178.455C47.0112 179.397 47.765 180.16 48.6949 180.16Z" fill="#10B6E8"/>
<path d="M107.88 233.578C108.704 233.578 109.372 232.902 109.372 232.067C109.372 231.233 108.704 230.557 107.88 230.557C107.056 230.557 106.388 231.233 106.388 232.067C106.388 232.902 107.056 233.578 107.88 233.578Z" fill="#10B6E8"/>
<path d="M226.974 39.9762C228.928 39.9762 230.512 38.3721 230.512 36.3934C230.512 34.4146 228.928 32.8105 226.974 32.8105C225.02 32.8105 223.437 34.4146 223.437 36.3934C223.437 38.3721 225.02 39.9762 226.974 39.9762Z" fill="#10B6E8"/>
<path d="M168.727 94.2366C169.151 94.2366 169.494 93.8887 169.494 93.4596C169.494 93.0305 169.151 92.6826 168.727 92.6826C168.303 92.6826 167.96 93.0305 167.96 93.4596C167.96 93.8887 168.303 94.2366 168.727 94.2366Z" fill="#10B6E8"/>
<path d="M160.863 47.9836C160.415 49.0412 159.989 50.1204 159.542 51.178C159.392 51.5665 160.01 51.7391 160.16 51.3506C160.607 50.2931 161.033 49.2139 161.481 48.1563C161.63 47.7678 161.012 47.5951 160.863 47.9836Z" fill="#10B6E8"/>
<path d="M160.756 48.5011C161.545 49.3429 162.163 50.2926 162.568 51.3717C162.717 51.7602 163.335 51.5876 163.186 51.1991C162.717 50.012 162.056 48.976 161.204 48.0479C160.927 47.7457 160.458 48.199 160.756 48.5011Z" fill="#10B6E8"/>
<path d="M159.712 51.7391C160.33 52.9046 161.033 54.0053 161.822 55.0413C162.078 55.3651 162.632 55.0413 162.376 54.7176C161.587 53.66 160.884 52.5592 160.266 51.4153C160.053 51.0484 159.52 51.3721 159.712 51.7391Z" fill="#10B6E8"/>
<path d="M162.61 51.4153C162.355 52.6239 162.12 53.8326 161.864 55.0413C161.779 55.4514 162.397 55.624 162.483 55.2139C162.738 54.0053 162.973 52.7966 163.228 51.5879C163.314 51.1994 162.696 51.0268 162.61 51.4153Z" fill="#10B6E8"/>
<path d="M220.9 140.381C220.388 141.331 220.047 142.346 219.898 143.425C219.834 143.835 220.452 144.007 220.516 143.597C220.665 142.583 220.964 141.633 221.454 140.727C221.646 140.338 221.092 140.015 220.9 140.381Z" fill="#10B6E8"/>
<path d="M220.858 140.576C221.284 141.72 221.774 142.821 222.328 143.879C222.52 144.245 223.074 143.922 222.882 143.555C222.349 142.54 221.881 141.483 221.476 140.404C221.326 140.015 220.708 140.188 220.858 140.576Z" fill="#10B6E8"/>
<path d="M219.771 143.879C220.325 144.677 220.857 145.476 221.412 146.274C221.646 146.62 222.2 146.296 221.966 145.951C221.412 145.152 220.879 144.353 220.325 143.555C220.09 143.21 219.536 143.533 219.771 143.879Z" fill="#10B6E8"/>
<path d="M222.094 143.771C221.646 144.397 221.433 145.109 221.433 145.864C221.433 146.274 222.072 146.274 222.072 145.864C222.072 145.217 222.264 144.612 222.648 144.094C222.882 143.749 222.328 143.425 222.094 143.771Z" fill="#10B6E8"/>
<path d="M42.6208 201.484C42.0454 202.757 41.4699 204.009 40.8945 205.282C40.724 205.649 41.2781 205.995 41.4486 205.606C42.0241 204.333 42.5995 203.081 43.1749 201.807C43.3454 201.441 42.8126 201.117 42.6208 201.484Z" fill="#10B6E8"/>
<path d="M42.7276 201.657C43.2818 202.995 43.8359 204.334 44.39 205.672C44.5392 206.06 45.1573 205.888 45.0081 205.499C44.4539 204.161 43.8998 202.823 43.3457 201.485C43.1965 201.096 42.5785 201.269 42.7276 201.657Z" fill="#10B6E8"/>
<path d="M40.7454 205.865C41.3208 207.009 41.875 208.175 42.4504 209.319C42.557 209.513 42.8127 209.513 42.9619 209.383C43.4095 209.016 43.6226 208.39 43.857 207.894C44.198 207.203 44.539 206.513 44.88 205.822C45.0718 205.455 44.5177 205.131 44.3259 205.498C44.0275 206.103 43.7078 206.707 43.4095 207.311C43.1537 207.829 42.9193 208.542 42.4717 208.908C42.6422 208.93 42.8127 208.952 42.9832 208.973C42.4078 207.829 41.8536 206.664 41.2782 205.52C41.1077 205.175 40.5536 205.498 40.7454 205.865Z" fill="#10B6E8"/>
<path d="M257.132 101.165C256.471 102.439 256.066 103.777 255.874 105.201C255.81 105.612 256.45 105.612 256.514 105.201C256.684 103.885 257.068 102.655 257.664 101.489C257.878 101.122 257.323 100.798 257.132 101.165Z" fill="#10B6E8"/>
<path d="M257.046 101.921C257.707 103.216 258.346 104.511 259.007 105.806C259.199 106.173 259.753 105.849 259.561 105.482C258.9 104.187 258.261 102.892 257.6 101.597C257.408 101.23 256.854 101.554 257.046 101.921Z" fill="#10B6E8"/>
<path d="M255.917 105.287C256.449 106.582 257.089 107.791 257.856 108.935C258.09 109.28 258.645 108.957 258.41 108.611C257.664 107.51 257.025 106.345 256.535 105.115C256.385 104.748 255.767 104.92 255.917 105.287Z" fill="#10B6E8"/>
<path d="M258.815 105.568C258.431 106.776 258.112 108.007 257.899 109.28C257.835 109.69 258.453 109.863 258.517 109.453C258.73 108.201 259.028 106.971 259.433 105.74C259.561 105.352 258.943 105.179 258.815 105.568Z" fill="#10B6E8"/>
<path d="M254.659 205.951C254.403 206.815 254.169 207.656 253.913 208.52C253.807 208.93 254.403 209.081 254.531 208.692C254.787 207.829 255.021 206.987 255.277 206.124C255.405 205.714 254.787 205.541 254.659 205.951Z" fill="#10B6E8"/>
<path d="M254.617 206.427C255 207.29 255.405 208.154 255.789 208.995C255.959 209.384 256.513 209.038 256.343 208.672C255.959 207.808 255.554 206.945 255.171 206.103C255 205.715 254.446 206.038 254.617 206.427Z" fill="#10B6E8"/>
<path d="M254.084 208.931C254.276 209.945 254.744 210.852 255.405 211.629C255.682 211.953 256.13 211.478 255.853 211.176C255.256 210.485 254.872 209.665 254.702 208.78C254.617 208.348 253.998 208.521 254.084 208.931Z" fill="#10B6E8"/>
<path d="M255.767 208.844C255.49 209.75 255.362 210.679 255.384 211.607C255.405 212.017 256.044 212.017 256.023 211.607C256.002 210.722 256.108 209.858 256.385 209.017C256.513 208.628 255.895 208.455 255.767 208.844Z" fill="#10B6E8"/>
<path d="M34.586 92.0782C34.1171 93.1142 33.6695 94.1502 33.2006 95.1862C33.0301 95.5531 33.5843 95.8985 33.7548 95.51C34.2236 94.4739 34.6712 93.4379 35.1401 92.4019C35.3106 92.035 34.7565 91.6897 34.586 92.0782Z" fill="#10B6E8"/>
<path d="M33.2862 95.7256C33.7764 96.9991 34.2453 98.2509 34.7355 99.5243C34.8847 99.9128 35.5027 99.7402 35.3536 99.3517C34.8634 98.0782 34.3945 96.8264 33.9043 95.553C33.7551 95.1645 33.137 95.3371 33.2862 95.7256Z" fill="#10B6E8"/>
<path d="M34.586 92.1209C35.2467 93.2864 35.9074 94.4735 36.5681 95.639C36.7812 96.0059 37.314 95.6821 37.1222 95.3152C36.4615 94.1497 35.8008 92.9626 35.1401 91.7971C34.927 91.4302 34.3729 91.754 34.586 92.1209Z" fill="#10B6E8"/>
<path d="M36.7176 95.3587C36.0356 96.6537 35.4388 97.9918 34.9273 99.3516C34.7782 99.7401 35.3962 99.9128 35.5454 99.5243C36.0356 98.2077 36.611 96.9127 37.2717 95.6824C37.4635 95.3155 36.9094 94.9918 36.7176 95.3587Z" fill="#10B6E8"/>
<path d="M195.24 111.978C195.666 111.158 196.476 110.597 197.414 110.64C198.181 110.662 198.756 111.201 199.438 111.46C200.632 111.892 200.994 111.115 201.889 110.532C203.104 109.712 204.276 111.546 205.576 111.525C206.322 111.503 206.94 111.136 206.962 110.338C206.791 110.424 206.642 110.532 206.471 110.618C207.132 110.964 207.793 111.309 208.432 111.676C208.794 111.87 209.114 111.309 208.752 111.115C208.091 110.769 207.43 110.424 206.791 110.057C206.578 109.949 206.322 110.079 206.301 110.338C206.237 111.87 203.296 109.69 202.742 109.626C201.484 109.453 200.994 111.028 199.907 110.856C198.756 110.662 198.032 109.82 196.795 110.036C195.858 110.208 195.09 110.791 194.664 111.654C194.515 112.021 195.048 112.345 195.24 111.978Z" fill="#10B6E8"/>
<path d="M203.402 107.597C204.362 106.518 205.875 107.877 206.962 108.007C208.219 108.158 209.199 106.798 210.414 107.489C211.416 108.072 213.249 109.453 213.973 107.683C214.123 107.295 213.505 107.122 213.355 107.51C212.844 108.762 211.011 107.014 210.393 106.755C209.562 106.388 209.008 106.69 208.262 107.057C207.367 107.489 206.727 107.338 205.875 106.949C205.491 106.777 205.107 106.626 204.681 106.561C204.021 106.474 203.424 106.604 202.955 107.122C202.678 107.446 203.125 107.899 203.402 107.597Z" fill="#10B6E8"/>
<path d="M186.097 56.6814C186.395 56.1203 186.736 55.9692 187.12 56.2282C187.29 56.2929 187.461 56.3793 187.631 56.4872C187.823 56.5735 188.015 56.703 188.207 56.7678C188.548 56.8757 188.889 56.9188 189.23 56.8325C190.146 56.5735 190.615 55.408 191.595 55.4296C192.512 55.4512 193.172 56.3361 194.131 55.8829C194.536 55.6886 194.813 55.3433 195.197 55.1274C196.05 54.6526 197.094 54.8253 197.818 55.4296C198.138 55.6886 198.586 55.2354 198.266 54.9764C197.307 54.1778 195.986 53.9404 194.877 54.5663C194.387 54.8469 193.982 55.4512 193.343 55.3649C192.981 55.3217 192.661 55.0627 192.32 54.9332C191.808 54.7389 191.34 54.6742 190.828 54.9116C190.189 55.2138 189.762 56.0555 189.059 56.2066C188.164 56.4009 187.567 55.4728 186.736 55.4512C185.947 55.4296 185.031 56.2066 185.564 57.0052C185.777 57.3505 186.331 57.0268 186.097 56.6814Z" fill="#F7FAFC"/>
<path d="M193.173 52.8608C193.428 51.4579 195.837 52.8176 196.689 52.6666C197.243 52.5802 197.648 52.1917 198.16 51.9975C198.97 51.6737 199.758 51.8032 200.504 52.2565C200.866 52.4723 201.186 51.9111 200.824 51.6953C200.184 51.3068 199.502 51.1126 198.778 51.1773C198.458 51.1989 198.16 51.2852 197.883 51.3931C197.03 51.7601 196.689 52.1701 195.623 51.9111C194.6 51.6521 192.853 51.1341 192.576 52.6881C192.469 53.0982 193.087 53.2709 193.173 52.8608Z" fill="#F7FAFC"/>
<path d="M31.8156 130.864C32.0927 129.504 33.9469 131.36 34.3092 131.598C34.7141 131.878 35.1617 132.073 35.6519 131.965C36.2912 131.857 36.7814 131.317 37.4421 131.166C38.5077 130.929 39.5734 131.274 40.3406 132.051C40.639 132.353 41.0866 131.878 40.7882 131.598C40.1275 130.929 39.3176 130.519 38.3799 130.454C37.911 130.411 37.4421 130.476 36.9945 130.627C36.2912 130.864 35.7371 131.555 34.8846 131.209C33.9895 130.842 33.6485 129.914 32.6255 129.806C31.9648 129.742 31.3467 130.001 31.2189 130.691C31.1123 131.101 31.7304 131.274 31.8156 130.864Z" fill="#F7FAFC"/>
<path d="M38.9125 129.31C39.3814 128.662 41.534 129.957 42.152 130.108C43.1537 130.346 44.1767 130.346 45.1997 130.216C45.6046 130.151 45.4341 129.525 45.0292 129.59C43.2603 129.828 41.8963 129.353 40.2978 128.705C39.5732 128.425 38.8486 128.317 38.3584 128.986C38.124 129.31 38.6781 129.633 38.9125 129.31Z" fill="#F7FAFC"/>
<path d="M90.8726 174.548C91.2136 174.009 91.7464 173.663 92.4071 173.663C92.9612 173.663 93.3022 174.009 93.7924 174.16C94.2825 174.332 94.6875 174.224 95.1137 173.944C95.9449 173.383 96.3498 172.692 97.4794 172.735C98.5024 172.757 99.4828 173.253 100.378 173.706C100.74 173.901 101.06 173.34 100.698 173.145C99.0139 172.282 96.9679 171.462 95.3482 172.865C94.9859 173.167 94.9432 173.253 94.3891 173.361C93.771 173.491 93.835 173.404 93.3661 173.21C92.9612 173.037 92.5776 172.973 92.13 173.016C91.3414 173.102 90.7234 173.555 90.3184 174.203C90.1053 174.57 90.6594 174.894 90.8726 174.548Z" fill="#F7FAFC"/>
<path d="M97.9698 175.8C98.9715 174.915 100.868 176.772 102.104 176.599C102.85 176.491 103.191 175.93 103.682 175.412C104.619 174.397 106.026 174.246 107.177 175.002C107.518 175.218 107.838 174.678 107.497 174.441C106.665 173.901 105.685 173.728 104.726 174.009C104.3 174.138 103.916 174.333 103.575 174.613C103.064 175.045 102.744 175.822 102.019 175.951C100.463 176.232 98.9928 174.031 97.5222 175.347C97.2239 175.628 97.6714 176.081 97.9698 175.8Z" fill="#F7FAFC"/>
<path d="M68.8994 37.3645C69.0699 36.6522 69.4748 36.0911 70.1568 35.7889C70.7536 35.5299 71.2438 35.7026 71.8618 35.681C72.5438 35.6378 73.0553 35.2925 73.4603 34.7745C74.0783 33.9975 74.4833 33.1989 75.3571 32.6809C76.3588 32.0981 77.5097 31.9902 78.6179 32.3356C79.0228 32.4651 79.172 31.8391 78.7884 31.7096C76.7424 31.0837 74.7177 31.8823 73.4816 33.6306C72.9914 34.3212 72.6291 35.0119 71.6913 35.0335C71.1159 35.0551 70.6257 34.9256 70.0716 35.1198C69.1338 35.4436 68.4945 36.2422 68.2813 37.1918C68.1748 37.6019 68.7928 37.7746 68.8994 37.3645Z" fill="#F7FAFC"/>
<path d="M71.9043 39.8467C70.9878 37.3862 75.3782 37.5157 76.6996 37.0409C78.3407 36.4581 79.7473 35.4221 81.1326 34.3861C81.4523 34.1487 81.1326 33.5875 80.8129 33.8249C79.8752 34.5372 78.9161 35.2279 77.8931 35.789C76.6143 36.4797 75.3995 36.6955 74.0142 36.9114C72.5436 37.1488 70.6255 38.1848 71.3075 39.9978C71.4354 40.3863 72.0534 40.2352 71.9043 39.8467Z" fill="#F7FAFC"/>
<g clip-path="url(#clip0_107_14889)">
<path d="M155.394 79.9062H154.613V58.4633C154.613 55.1718 153.307 52.0152 150.983 49.6877C148.658 47.3603 145.506 46.0527 142.219 46.0527H96.8521C95.2246 46.0527 93.613 46.3737 92.1093 46.9974C90.6057 47.6211 89.2394 48.5353 88.0886 49.6877C86.9378 50.8401 86.0249 52.2082 85.402 53.7139C84.7792 55.2197 84.4586 56.8335 84.4586 58.4633V176.101C84.4586 177.731 84.7792 179.344 85.402 180.85C86.0248 182.356 86.9377 183.724 88.0886 184.876C89.2394 186.029 90.6056 186.943 92.1093 187.567C93.6129 188.19 95.2245 188.511 96.852 188.511H142.219C143.847 188.511 145.458 188.19 146.962 187.567C148.465 186.943 149.832 186.029 150.983 184.876C152.133 183.724 153.046 182.356 153.669 180.85C154.292 179.344 154.613 177.731 154.613 176.101V95.1697H155.394V79.9062Z" fill="#3F3D56"/>
<path d="M142.626 49.5752H136.704C136.976 50.2438 137.08 50.9692 137.007 51.6875C136.933 52.4058 136.684 53.095 136.282 53.6943C135.88 54.2936 135.337 54.7846 134.7 55.1242C134.064 55.4637 133.354 55.6414 132.633 55.6414H106.643C105.921 55.6414 105.211 55.4637 104.575 55.1242C103.939 54.7846 103.396 54.2936 102.993 53.6943C102.591 53.095 102.342 52.4058 102.269 51.6875C102.195 50.9692 102.299 50.2438 102.571 49.5752H97.0403C94.5857 49.5752 92.2316 50.5516 90.4959 52.2897C88.7602 54.0278 87.785 56.3852 87.785 58.8433V176.308C87.785 177.525 88.0244 178.73 88.4896 179.855C88.9547 180.979 89.6364 182.001 90.4958 182.862C91.3553 183.722 92.3756 184.405 93.4985 184.871C94.6214 185.337 95.8249 185.576 97.0403 185.576H142.626C145.08 185.576 147.435 184.6 149.17 182.862C150.906 181.124 151.881 178.766 151.881 176.308V58.8433C151.881 57.6262 151.642 56.421 151.177 55.2965C150.711 54.1721 150.03 53.1504 149.17 52.2898C148.311 51.4291 147.291 50.7464 146.168 50.2807C145.045 49.8149 143.841 49.5752 142.626 49.5752H142.626ZM141.631 104.068C141.629 104.704 141.376 105.314 140.927 105.763C140.477 106.213 139.869 106.467 139.234 106.469H127.647C127.011 106.467 126.403 106.213 125.953 105.763C125.504 105.314 125.251 104.704 125.249 104.068V103.468C125.251 102.832 125.504 102.222 125.953 101.772C126.403 101.323 127.011 101.069 127.647 101.067H139.234C139.869 101.069 140.477 101.323 140.927 101.772C141.376 102.222 141.629 102.832 141.631 103.468V104.068ZM142.929 93.4652C142.928 94.1013 142.674 94.7108 142.225 95.1606C141.776 95.6104 141.167 95.8639 140.532 95.8658H98.9788C98.3435 95.8639 97.7349 95.6104 97.2857 95.1606C96.8365 94.7108 96.5833 94.1013 96.5815 93.4652V92.865C96.5833 92.2289 96.8365 91.6194 97.2857 91.1696C97.7349 90.7198 98.3435 90.4663 98.9788 90.4644H140.532C141.167 90.4663 141.776 90.7198 142.225 91.1696C142.674 91.6194 142.928 92.2289 142.929 92.865V93.4652ZM142.929 82.8624C142.928 83.4985 142.674 84.1081 142.225 84.5579C141.776 85.0077 141.167 85.2612 140.532 85.2631H98.9788C98.3435 85.2612 97.7349 85.0077 97.2857 84.5579C96.8365 84.1081 96.5833 83.4985 96.5815 82.8624V82.2623C96.5833 81.6262 96.8365 81.0166 97.2857 80.5668C97.7349 80.117 98.3435 79.8635 98.9788 79.8616H140.532C141.167 79.8635 141.776 80.117 142.225 80.5668C142.674 81.0166 142.928 81.6262 142.929 82.2623V82.8624ZM142.929 72.2597C142.928 72.8958 142.674 73.5053 142.225 73.9551C141.776 74.4049 141.167 74.6584 140.532 74.6603H98.9788C98.3435 74.6584 97.7349 74.4049 97.2857 73.9551C96.8365 73.5053 96.5833 72.8958 96.5815 72.2597V71.6595C96.5833 71.0234 96.8365 70.4139 97.2857 69.9641C97.7349 69.5143 98.3435 69.2607 98.9788 69.2589H140.532C141.167 69.2608 141.776 69.5143 142.225 69.9641C142.674 70.4139 142.928 71.0234 142.929 71.6595V72.2597Z" fill="white"/>
<path d="M99.8778 94.665C100.65 94.665 101.276 94.038 101.276 93.2646C101.276 92.4912 100.65 91.8643 99.8778 91.8643C99.1055 91.8643 98.4794 92.4912 98.4794 93.2646C98.4794 94.038 99.1055 94.665 99.8778 94.665Z" fill="white"/>
<path d="M104.473 94.665C105.245 94.665 105.871 94.038 105.871 93.2646C105.871 92.4912 105.245 91.8643 104.473 91.8643C103.7 91.8643 103.074 92.4912 103.074 93.2646C103.074 94.038 103.7 94.665 104.473 94.665Z" fill="white"/>
<path d="M109.067 94.665C109.84 94.665 110.466 94.038 110.466 93.2646C110.466 92.4912 109.84 91.8643 109.067 91.8643C108.295 91.8643 107.669 92.4912 107.669 93.2646C107.669 94.038 108.295 94.665 109.067 94.665Z" fill="white"/>
<path d="M113.662 94.665C114.435 94.665 115.061 94.038 115.061 93.2646C115.061 92.4912 114.435 91.8643 113.662 91.8643C112.89 91.8643 112.264 92.4912 112.264 93.2646C112.264 94.038 112.89 94.665 113.662 94.665Z" fill="white"/>
<path d="M128.646 105.269C129.418 105.269 130.044 104.642 130.044 103.868C130.044 103.095 129.418 102.468 128.646 102.468C127.873 102.468 127.247 103.095 127.247 103.868C127.247 104.642 127.873 105.269 128.646 105.269Z" fill="white"/>
<path d="M133.24 105.269C134.013 105.269 134.639 104.642 134.639 103.868C134.639 103.095 134.013 102.468 133.24 102.468C132.468 102.468 131.842 103.095 131.842 103.868C131.842 104.642 132.468 105.269 133.24 105.269Z" fill="white"/>
<path d="M137.835 105.269C138.607 105.269 139.234 104.642 139.234 103.868C139.234 103.095 138.607 102.468 137.835 102.468C137.063 102.468 136.437 103.095 136.437 103.868C136.437 104.642 137.063 105.269 137.835 105.269Z" fill="white"/>
<path d="M143.251 122.012H95.8604C94.7471 122.012 93.6793 122.455 92.892 123.243C92.1048 124.031 91.6625 125.101 91.6625 126.215V149.337C91.6625 150.452 92.1048 151.521 92.892 152.31C93.6793 153.098 94.7471 153.541 95.8604 153.541H143.251C144.364 153.541 145.432 153.098 146.219 152.31C147.007 151.521 147.449 150.452 147.449 149.337V126.215C147.449 125.101 147.007 124.031 146.219 123.243C145.432 122.455 144.364 122.012 143.251 122.012H143.251ZM94.6879 124.879C94.7815 124.862 97.0006 124.484 98.8381 125.591C100.676 126.698 101.381 128.839 101.411 128.93L101.485 129.16L101.246 129.203C100.906 129.256 100.562 129.281 100.218 129.278C99.1258 129.299 98.048 129.027 97.0961 128.49C95.2587 127.384 94.5528 125.243 94.5237 125.153L94.4495 124.922L94.6879 124.879ZM104.975 146.346H96.5227C95.9062 146.346 95.3149 146.101 94.879 145.664C94.4431 145.228 94.1982 144.636 94.1982 144.019C94.1982 143.401 94.4431 142.809 94.879 142.373C95.3149 141.936 95.9062 141.691 96.5227 141.691H104.975C105.592 141.691 106.183 141.936 106.619 142.373C107.055 142.809 107.3 143.401 107.3 144.019C107.3 144.636 107.055 145.228 106.619 145.664C106.183 146.101 105.592 146.346 104.975 146.346ZM143.434 145.923C143.432 146.596 143.164 147.241 142.689 147.716C142.214 148.192 141.57 148.46 140.898 148.462H134.559C133.887 148.46 133.243 148.192 132.768 147.716C132.293 147.241 132.025 146.596 132.023 145.923V142.114C132.025 141.441 132.293 140.797 132.768 140.321C133.243 139.845 133.887 139.577 134.559 139.575H140.898C141.57 139.577 142.214 139.845 142.689 140.321C143.164 140.797 143.432 141.441 143.434 142.114L143.434 145.923Z" fill="#10B6E8"/>
<path d="M136.603 145.139H134.054C133.872 145.139 133.697 145.211 133.569 145.34C133.44 145.469 133.368 145.644 133.368 145.826C133.368 146.008 133.44 146.183 133.569 146.312C133.697 146.441 133.872 146.513 134.054 146.513H136.603C136.785 146.513 136.959 146.441 137.088 146.312C137.217 146.183 137.289 146.008 137.289 145.826C137.289 145.644 137.217 145.469 137.088 145.34C136.959 145.211 136.785 145.139 136.603 145.139Z" fill="#3F3D56"/>
<path d="M141.308 145.139H138.76C138.578 145.139 138.403 145.211 138.274 145.34C138.146 145.469 138.073 145.644 138.073 145.826C138.073 146.008 138.146 146.183 138.274 146.312C138.403 146.441 138.578 146.513 138.76 146.513H141.308C141.49 146.513 141.665 146.441 141.794 146.312C141.922 146.183 141.995 146.008 141.995 145.826C141.995 145.644 141.922 145.469 141.794 145.34C141.665 145.211 141.49 145.139 141.308 145.139Z" fill="#3F3D56"/>
<path d="M136.602 143.198H134.054C133.872 143.198 133.697 143.271 133.568 143.4C133.44 143.528 133.367 143.703 133.367 143.885C133.367 144.068 133.44 144.242 133.568 144.371C133.697 144.5 133.872 144.573 134.054 144.573H136.602C136.784 144.573 136.959 144.5 137.088 144.371C137.216 144.242 137.289 144.068 137.289 143.885C137.289 143.703 137.216 143.528 137.088 143.4C136.959 143.271 136.784 143.198 136.602 143.198Z" fill="#3F3D56"/>
<path d="M141.308 143.198H138.759C138.577 143.198 138.403 143.271 138.274 143.4C138.145 143.528 138.073 143.703 138.073 143.885C138.073 144.068 138.145 144.242 138.274 144.371C138.403 144.5 138.577 144.573 138.759 144.573H141.308C141.49 144.573 141.665 144.5 141.793 144.371C141.922 144.242 141.994 144.068 141.994 143.885C141.994 143.703 141.922 143.528 141.793 143.4C141.665 143.271 141.49 143.198 141.308 143.198H141.308Z" fill="#3F3D56"/>
<path d="M136.602 141.298H134.054C133.872 141.298 133.697 141.37 133.568 141.499C133.44 141.628 133.367 141.803 133.367 141.985C133.367 142.167 133.44 142.342 133.568 142.471C133.697 142.6 133.872 142.672 134.054 142.672H136.602C136.784 142.672 136.959 142.6 137.088 142.471C137.216 142.342 137.289 142.167 137.289 141.985C137.289 141.803 137.216 141.628 137.088 141.499C136.959 141.37 136.784 141.298 136.602 141.298Z" fill="#3F3D56"/>
<path d="M141.308 141.298H138.759C138.577 141.298 138.403 141.37 138.274 141.499C138.145 141.628 138.073 141.803 138.073 141.985C138.073 142.167 138.145 142.342 138.274 142.471C138.403 142.6 138.577 142.672 138.759 142.672H141.308C141.49 142.672 141.665 142.6 141.793 142.471C141.922 142.342 141.994 142.167 141.994 141.985C141.994 141.803 141.922 141.628 141.793 141.499C141.665 141.37 141.49 141.298 141.308 141.298H141.308Z" fill="#3F3D56"/>
<path d="M176.074 130.722H169.893V136.912H176.074V130.722Z" fill="#E6E6E6"/>
<path d="M162.608 134.48H172.763V144.65H162.608V134.48ZM172.321 134.923H163.049V144.207H172.321V134.923Z" fill="#3F3D56"/>
<path d="M68.5627 79.6553H62.3813V85.8452H68.5627V79.6553Z" fill="#E6E6E6"/>
<path d="M75.8479 82.0871H65.6928V71.918H75.8479V82.0871ZM66.1343 81.645H75.4064V72.3601H66.1343V81.645Z" fill="#3F3D56"/>
</g>
<path d="M209.216 181.467C209.279 182.093 209.514 182.59 209.876 183.194C211.411 185.698 213.947 187.23 215.78 188.115C215.055 190.424 214.181 193.748 213.542 197.806C212.945 201.712 212.242 206.267 213.158 206.569C213.478 206.677 214.416 206.374 223.133 188.892C224.347 186.453 225.349 184.424 226.01 183.043C221.364 180.928 216.739 178.791 212.093 176.676C211.645 177.021 208.981 178.985 209.216 181.467Z" fill="#111314" stroke="#111314" stroke-width="2" stroke-miterlimit="10"/>
<path d="M199.497 133.725C195.575 136.487 193.039 139.164 190.78 141.581C189.864 142.552 185.473 147.279 180.848 154.704C178.802 157.984 177.289 160.876 176.245 163.056C176.373 163.941 176.671 165.215 177.46 166.488C178.334 167.913 179.314 168.539 180.848 169.92C182.724 171.603 183.406 172.596 184.493 173.719C186.603 175.92 189.565 177.582 195.405 180.841C202.736 184.92 206.679 186.41 207.894 186.863C209.386 187.402 210.643 187.812 211.538 188.093C211.965 186.086 212.476 183.949 213.116 181.704C213.691 179.697 214.309 177.819 214.927 176.071C210.388 172.704 205.72 168.927 200.989 164.654C199.348 163.186 197.771 161.697 196.257 160.229C197.792 158.351 199.944 155.891 202.672 153.236C203.461 152.459 205.123 150.862 207.148 149.178C209.706 147.085 213.563 144.279 218.891 141.689C219.808 135.494 218.721 129.71 215.375 127.832C211.197 125.501 204.846 129.969 199.497 133.725Z" fill="#F7FAFC"/>
<path d="M195.192 136.94C187.647 143.415 181.402 151.423 176.969 160.38C176.522 161.308 175.883 162.344 175.797 163.38C175.712 164.481 176.373 165.323 176.969 166.164C178.397 168.128 180.017 169.963 181.743 171.668C185.409 175.229 189.629 178.165 194.062 180.647C199.518 183.712 205.294 186.15 211.048 188.568C211.432 188.719 211.602 188.093 211.219 187.942C201.799 183.971 192.187 179.913 184.322 173.157C182.553 171.625 180.87 169.985 179.356 168.193C178.568 167.243 177.779 166.272 177.097 165.258C176.671 164.632 176.351 164.049 176.458 163.251C176.565 162.474 177.012 161.74 177.353 161.027C179.399 156.819 181.85 152.826 184.663 149.092C187.881 144.797 191.569 140.89 195.639 137.415C195.959 137.135 195.511 136.681 195.192 136.94Z" fill="#111314"/>
<path d="M213.264 144.387C205.954 149.178 199.561 155.243 194.382 162.322C194.147 162.668 194.701 162.991 194.936 162.646C200.051 155.653 206.381 149.653 213.584 144.926C213.925 144.732 213.605 144.171 213.264 144.387Z" fill="#111314"/>
<path d="M195.895 160.553C201.884 166.035 208.043 171.302 214.394 176.331C214.714 176.59 215.162 176.136 214.842 175.877C208.491 170.849 202.31 165.582 196.343 160.1C196.044 159.819 195.597 160.273 195.895 160.553Z" fill="#111314"/>
<path d="M214.415 176.244C213.073 180.086 212.028 184.014 211.261 188.007C211.176 188.417 211.794 188.59 211.879 188.18C212.647 184.187 213.712 180.259 215.034 176.417C215.161 176.029 214.543 175.856 214.415 176.244Z" fill="#111314"/>
<path opacity="0.11" d="M207.745 141.97C204.803 142.229 202.587 144.409 195.746 154.035C193.124 157.726 190.929 160.942 189.245 163.489C191.675 165.215 193.593 166.64 194.808 167.568C201.607 172.726 204.462 175.618 210.238 178.77C211.496 179.46 212.54 179.957 213.158 180.237C213.648 178.877 214.138 177.518 214.607 176.158C212.987 174.733 211.368 173.331 209.727 171.906C205.208 168.021 200.733 164.266 196.278 160.618C198.133 157.985 199.88 155.999 201.159 154.639C204.931 150.646 208.682 147.949 211.602 145.877C212.604 145.164 213.456 144.603 214.01 144.236C211.261 142.099 209.109 141.84 207.745 141.97Z" fill="#636E72"/>
<path opacity="0.08" d="M208.597 147.603C206.764 148.034 204.313 148.876 201.82 150.559C195.725 154.682 193.679 160.984 193.082 163.143C196.364 165.733 199.753 168.344 203.269 170.956C206.679 173.503 210.068 175.92 213.371 178.251C213.861 177.539 214.352 176.805 214.821 176.093C210.281 172.747 205.571 168.884 200.861 164.459C199.369 163.078 197.941 161.675 196.577 160.294C197.323 159.301 198.133 158.286 198.985 157.25C202.182 153.408 205.464 150.236 208.597 147.603Z" fill="#636E72"/>
<path d="M248.942 174.409C251.201 176.567 253.481 178.747 255.74 180.905C255.144 194.675 256.273 197.913 257.467 198.15C259.321 198.517 262.496 192.021 263.882 186.905C264.926 183.02 265.033 179.61 264.926 177.301C261.388 174.107 257.85 170.912 254.312 167.696C252.522 169.941 250.732 172.186 248.942 174.409Z" fill="#111314" stroke="#111314" stroke-width="2" stroke-miterlimit="10"/>
<path d="M204.59 135.581C204.782 139.164 207.254 141.344 207.254 141.344C208.789 142.703 210.515 143.07 211.368 143.178C212.05 143.459 212.732 143.761 213.435 144.042C214.501 145.596 216.078 147.797 218.166 150.301C220.937 153.668 224.667 157.682 233.788 165.28C238.285 169.014 244.082 173.611 251.094 178.661C252.096 178.165 253.289 177.431 254.483 176.352C257.104 173.999 258.319 171.258 258.873 169.704C257.637 168.496 255.804 166.683 253.673 164.438C244.21 154.531 237.902 146.049 233.085 139.531C229.91 135.236 225.839 129.516 221.342 122.609C211.048 125.458 204.335 130.984 204.59 135.581Z" fill="#F7FAFC"/>
<path d="M207.894 142.164C209.599 142.768 211.282 143.351 212.987 143.955C213.371 144.085 213.542 143.459 213.158 143.329C211.453 142.725 209.769 142.142 208.064 141.538C207.681 141.409 207.51 142.034 207.894 142.164Z" fill="#111314"/>
<path d="M212.284 143.308C220.298 154.467 230.677 163.489 241.44 171.842C244.53 174.237 247.663 176.612 250.796 178.964C251.137 179.223 251.435 178.64 251.116 178.403C240.332 170.309 229.484 162.108 220.319 152.136C217.655 149.244 215.162 146.179 212.86 142.985C212.604 142.661 212.05 142.985 212.284 143.308Z" fill="#111314"/>
<path d="M224.859 128.264C232.403 139.984 240.907 151.035 250.285 161.308C252.991 164.287 255.783 167.179 258.618 170.007C258.916 170.309 259.364 169.834 259.065 169.553C249.198 159.754 240.161 149.114 232.062 137.783C229.761 134.567 227.544 131.286 225.392 127.941C225.178 127.595 224.624 127.919 224.859 128.264Z" fill="#111314"/>
<path d="M258.255 169.596C257.019 173.308 254.632 176.762 251.03 178.402C250.647 178.575 250.988 179.136 251.35 178.963C255.101 177.258 257.573 173.632 258.852 169.769C259.001 169.38 258.383 169.207 258.255 169.596Z" fill="#111314"/>
<path opacity="0.09" d="M224.88 127.919C223.665 126.257 222.642 124.898 221.96 124.013C221.278 125.286 220.34 127.423 220.255 130.078C220.063 136.078 224.411 138.646 236.879 152.632C242.313 158.719 245.19 162.388 252.202 169.64C253.843 171.323 255.229 172.726 256.23 173.719C256.998 172.359 257.765 171 258.553 169.64C251.797 162.776 246.448 156.582 242.441 151.683C238.584 146.956 235.131 142.725 231.572 137.459C230.655 136.143 228.332 132.624 224.88 127.919Z" fill="#636E72"/>
<path opacity="0.09" d="M228.652 133.983C228.95 135.473 229.569 137.998 230.783 140.933C234.3 149.308 239.5 152.847 248.856 163.315C250.647 165.322 253.417 168.495 256.657 172.596C257.403 171.517 258.149 170.459 258.895 169.38C258.213 168.733 257.126 167.718 255.804 166.423C253.375 164.049 246.789 157.423 234.215 141.257C232.851 139.53 230.933 137.027 228.652 133.983Z" fill="#636E72"/>
<path d="M136.966 110.091C136.519 110.35 135.687 110.803 135.517 111.753C135.304 112.811 136.05 113.674 136.156 113.782C136.028 113.933 135.645 114.386 135.602 115.077C135.559 116.221 136.561 116.89 136.604 116.933C136.561 116.976 135.943 117.624 136.156 118.509C136.327 119.264 136.987 119.588 137.073 119.609C137.03 119.739 136.881 120.3 137.158 120.818C137.584 121.595 138.607 121.552 138.714 121.552C139.438 121.509 140.12 121.012 140.44 120.257C140.845 120.494 141.911 121.055 143.36 120.904C144.34 120.796 145.065 120.408 145.448 120.171C146.216 121.53 147.409 123.365 149.178 125.243C150.734 126.883 153.632 129.969 157.938 131.243C163.308 132.84 168.061 130.768 170.789 129.581C178.121 126.387 181.765 120.516 183.108 118.314C185.367 114.559 186.155 111.343 186.837 108.429C187.946 103.81 187.562 101.997 187.2 100.94C186.987 100.292 185.729 96.58 182.831 96.1483C180.465 95.7814 178.504 97.8318 178.27 98.0908C177.46 98.9541 177.034 100.098 176.181 102.343C175.755 103.487 175.478 104.35 175.35 104.738C173.965 109.293 173.261 111.559 173.069 112.034C172.558 113.329 171.343 116.286 168.423 118.595C165.631 120.796 162.712 121.271 161.412 121.466C159.451 121.746 157.042 122.091 154.485 120.818C151.629 119.394 150.35 116.804 150.009 116.113C148.986 113.976 148.795 111.602 148.645 109.918C148.454 107.76 148.603 106.077 147.367 104.738C147.132 104.501 146.578 103.897 146.003 104.005C145.171 104.177 144.703 105.796 144.276 107.328C143.914 108.623 144.021 108.775 143.722 109.077C143.104 109.703 142.316 109.379 139.609 109.53C138.032 109.638 137.478 109.811 136.966 110.091Z" fill="#F7FAFC"/>
<path d="M141.378 109.163C139.076 108.732 135.027 109.336 135.346 112.53C135.623 115.401 138.991 115.897 141.015 114.646C141.356 114.43 141.037 113.869 140.696 114.084C139.012 115.12 135.964 114.84 135.964 112.25C135.964 109.746 139.438 109.466 141.207 109.789C141.612 109.876 141.783 109.25 141.378 109.163Z" fill="#111314"/>
<path d="M135.9 113.588C133.598 116.437 139.139 120.02 140.78 116.437C140.951 116.07 140.397 115.725 140.226 116.113C138.947 118.876 134.685 116.113 136.369 114.041C136.624 113.739 136.177 113.264 135.9 113.588Z" fill="#111314"/>
<path d="M136.028 116.48C135.538 117.602 135.879 119.027 137.009 119.609C138.117 120.192 139.502 119.653 140.078 118.573C140.269 118.206 139.715 117.883 139.523 118.25C139.097 119.005 138.138 119.437 137.328 119.048C136.518 118.66 136.22 117.602 136.582 116.804C136.753 116.437 136.199 116.113 136.028 116.48Z" fill="#111314"/>
<path d="M136.54 119.372C136.455 120.516 137.115 121.552 138.266 121.789C139.332 122.005 140.312 121.293 140.674 120.322C140.824 119.933 140.206 119.761 140.056 120.149C139.779 120.883 139.012 121.358 138.245 121.12C137.456 120.883 137.137 120.149 137.179 119.372C137.201 118.962 136.561 118.962 136.54 119.372Z" fill="#111314"/>
<path d="M138.564 112.314C139.119 112.249 139.694 112.271 140.163 112.595C140.61 112.897 140.866 113.501 140.61 113.998C140.419 114.365 140.973 114.688 141.165 114.321C141.506 113.652 141.356 112.875 140.845 112.336C140.269 111.71 139.353 111.58 138.543 111.667C138.16 111.731 138.16 112.379 138.564 112.314Z" fill="#111314"/>
<path d="M140.546 120.753C141.655 120.343 142.72 121.271 143.871 121.142C144.745 121.034 145.512 120.559 146.237 120.127C146.578 119.911 146.258 119.35 145.917 119.566C144.83 120.235 143.892 120.71 142.592 120.322C141.804 120.084 141.186 119.825 140.376 120.127C139.992 120.278 140.141 120.904 140.546 120.753Z" fill="#111314"/>
<path d="M141.207 109.724C142.315 110.112 143.807 110.177 144.425 108.947C144.766 108.256 144.553 107.414 144.702 106.68C144.873 105.688 145.427 104.867 146.194 104.242C146.514 103.983 146.066 103.529 145.747 103.788C144.915 104.479 144.319 105.429 144.106 106.508C143.999 107.112 144.148 107.824 143.978 108.407C143.594 109.573 142.315 109.421 141.42 109.098C140.994 108.968 140.823 109.594 141.207 109.724Z" fill="#111314"/>
<path d="M145.726 104.285C147.537 104.522 147.772 107.609 148.07 109.012C148.432 110.846 148.624 112.702 148.965 114.537C149.519 117.472 151.203 119.803 153.888 121.12C156.702 122.48 159.898 122.415 162.84 121.595C165.866 120.731 168.999 119.177 170.96 116.609C171.215 116.285 170.768 115.832 170.512 116.156C168.466 118.832 165.141 120.408 161.944 121.163C158.726 121.919 155.21 121.638 152.524 119.523C149.626 117.257 149.562 113.846 148.986 110.458C148.709 108.861 148.475 107.134 147.899 105.623C147.537 104.673 146.962 103.81 145.917 103.659C145.491 103.594 145.321 104.22 145.726 104.285Z" fill="#111314"/>
<path d="M145.256 120.56C147.835 123.754 150.329 127.401 153.739 129.754C157.085 132.042 161.219 132.279 165.098 131.632C172.984 130.294 179.676 124.876 183.512 117.883C185.707 113.912 187.007 109.509 187.583 104.998C187.626 104.588 186.986 104.588 186.944 104.998C185.963 112.703 182.638 120.257 176.714 125.351C173.794 127.855 170.32 129.732 166.59 130.639C162.733 131.589 158.278 131.718 154.762 129.625C151.011 127.401 148.389 123.43 145.704 120.085C145.448 119.783 145.001 120.236 145.256 120.56Z" fill="#111314"/>
<path d="M183.129 96.0621C181.36 95.3499 179.484 96.2779 178.248 97.5945C176.799 99.1054 176.074 101.113 175.541 103.098C174.923 105.408 174.369 107.696 173.495 109.919C172.558 112.314 171.364 114.581 170 116.739C169.766 117.084 170.32 117.408 170.554 117.063C172.75 113.631 174.433 109.897 175.478 105.947C176.032 103.875 176.394 101.717 177.417 99.8392C178.44 97.9399 180.614 95.7384 182.958 96.688C183.342 96.8391 183.512 96.2132 183.129 96.0621Z" fill="#111314"/>
<path d="M139.524 119.027C140.12 119.07 139.993 120.085 139.886 120.451C139.758 120.84 140.376 121.013 140.504 120.624C140.781 119.804 140.589 118.466 139.524 118.379C139.119 118.358 139.119 119.005 139.524 119.027Z" fill="#111314"/>
<path d="M139.886 117.041C140.014 117.559 139.822 118.099 139.417 118.401C139.076 118.638 139.396 119.199 139.737 118.962C140.397 118.487 140.717 117.667 140.504 116.868C140.419 116.458 139.801 116.631 139.886 117.041Z" fill="#111314"/>
<path d="M140.248 114.797C140.823 115.077 140.44 116.006 140.163 116.372C139.907 116.696 140.461 117.02 140.717 116.696C141.207 116.049 141.463 114.667 140.568 114.236C140.205 114.063 139.886 114.624 140.248 114.797Z" fill="#111314"/>
<path opacity="0.11" d="M135.858 114.883C136.199 114.688 136.753 115.897 138.181 116.501C138.714 116.717 139.374 116.868 142.401 116.501C143.381 116.372 144.66 116.199 146.194 115.919C146.493 117.149 147.111 119.005 148.368 120.926C148.901 121.725 151.054 124.833 155.21 126.667C159.664 128.653 163.692 127.984 165.248 127.703C166.569 127.466 170.256 126.753 173.538 123.861C175.734 121.94 177.14 119.609 179.207 113.544C180.614 109.422 182.319 103.702 183.577 96.6016C184.429 97.4865 185.75 99.0836 186.496 101.458C186.859 102.602 187.2 104.285 186.923 106.918C186.347 112.595 183.534 117.322 181.829 119.739C180.06 122.264 176.906 126.624 171.066 129.322C170.278 129.689 165.823 131.653 160.154 131.394C158.854 131.329 157.661 131.264 156.19 130.725C154.592 130.142 152.993 128.631 149.818 125.653C148.496 124.422 147.196 123.127 145.875 121.25C145.619 120.883 145.406 120.559 145.257 120.343C144.809 120.645 144.148 120.991 143.402 120.904C142.401 120.818 142.06 120.084 141.229 120.214C140.504 120.322 140.504 120.926 139.63 121.25C138.948 121.487 137.989 121.466 137.35 120.969C136.881 120.602 136.817 120.192 136.284 117.861C135.773 115.573 135.623 115.012 135.858 114.883Z" fill="#636E72"/>
<path d="M180.465 96.5582C180.763 98.6302 181.338 101.911 182.532 105.796C185.047 113.911 188.009 117.386 191.931 126.797C192.911 129.149 194.296 132.689 195.66 137.157C198.197 137.998 202.907 139.142 208.661 138.128C218.124 136.466 223.686 130.12 225.242 128.199C222.003 122.156 218.742 115.616 215.566 108.602C212.412 101.652 209.663 94.9611 207.276 88.594C205.272 87.8386 200.029 86.1551 193.593 87.7522C185.899 89.63 181.658 94.9611 180.465 96.5582Z" fill="#F7FAFC" stroke="#111314"/>
<path opacity="0.13" d="M199.177 87.0186C199.987 88.7452 201.01 91.0978 202.097 93.9468C205.507 103.012 206.743 110.458 207.19 113.113C208.15 118.595 208.981 127.099 207.617 138.02C210.579 137.934 212.774 137.243 214.16 136.703C218.124 135.106 221.001 132.322 223.772 129.624C224.411 129.02 224.901 128.48 225.221 128.156C224.304 126.559 222.919 124.056 221.299 120.926C216.611 111.904 213.542 104.415 210.963 98.0692C210.046 95.8461 208.789 92.6518 207.318 88.7884C206.146 88.292 204.676 87.7956 202.949 87.4718C201.543 87.1912 200.264 87.0617 199.177 87.0186Z" fill="#636E72"/>
<path opacity="0.1" d="M213.286 104.135C213.648 107.998 213.947 111.236 214.16 113.567C214.97 122.696 215.119 125.222 215.183 126.84C215.353 130.661 215.353 133.79 215.332 135.841C216.653 135.366 218.358 134.589 220.127 133.337C222.344 131.761 223.836 130.035 224.795 128.761C220.958 120.538 217.122 112.336 213.286 104.135Z" fill="#636E72"/>
<path d="M198.154 83.22C197.131 83.5222 196.577 85.0115 196.236 86.5439C195.554 89.6735 195.916 92.3498 196.044 93.2779C196.662 97.4003 197.771 100.487 198.133 101.501C199.071 104.005 200.349 107.35 203.141 110.911C204.74 112.94 206.104 114.689 208.619 115.984C210.089 116.761 213.137 118.336 216.27 117.084C216.419 117.02 219.488 115.746 220.277 113.027C220.447 112.422 220.49 111.818 220.554 110.631C220.596 109.919 220.618 108.667 220.468 107.113C220.255 105.062 219.808 103.465 219.467 102.321C217.953 97.2492 217.208 94.724 215.63 92.5225C214.33 90.7095 212.86 88.6375 210.43 88.3569C210.217 88.3353 207.766 88.0979 206.317 89.8245C205.315 91.0332 205.379 92.5225 205.4 93.5153C205.464 95.4146 206.189 96.7744 207.319 98.868C208.448 100.94 208.896 101.199 210.238 103.659C212.071 107.026 211.879 107.35 211.794 107.437C211.432 107.76 209.983 106.746 209.663 106.508C209.365 106.293 208.938 105.99 208.405 105.408C206.743 103.53 205.763 100.703 205.763 100.703C204.889 98.9543 203.738 96.4722 202.566 93.321C202.928 91.9181 203.482 90.9253 203.93 90.2778C204.654 89.2418 205.464 88.5295 205.656 87.2345C205.741 86.7381 205.699 86.3065 205.656 86.0259C206.018 85.6805 206.125 85.1625 205.933 84.7309C205.699 84.2345 205.123 83.997 204.569 84.1697C204.569 84.105 204.505 83.5438 204.015 83.2416C203.61 82.9826 203.056 83.0258 202.651 83.328C202.012 82.8315 201.479 82.702 201.095 82.6805C200.648 82.6589 200.435 82.7668 199.369 82.961C198.474 83.1985 198.41 83.1553 198.154 83.22Z" fill="#F7FAFC"/>
<path d="M203.503 92.3276C204.079 90.8815 204.803 89.5649 205.592 88.2267C205.997 87.5361 206.466 86.6727 205.912 85.9173C204.654 84.277 202.949 86.3706 202.416 87.4497C202.225 87.8167 202.779 88.1404 202.971 87.7735C203.29 87.126 203.653 86.3274 204.399 86.1116C204.612 86.0037 204.825 86.0036 205.059 86.0684C205.123 86.5648 205.187 87.0612 205.272 87.5577C205.208 87.8382 204.825 88.2915 204.676 88.5505C203.994 89.6944 203.439 90.9031 202.928 92.1333C202.736 92.5434 203.354 92.6945 203.503 92.3276Z" fill="#111314"/>
<path d="M196.534 95.1116C196.215 92.8022 196.172 90.4496 196.428 88.1402C196.662 86.025 197.11 82.8091 200.008 83.4135C200.413 83.4998 200.584 82.8739 200.179 82.7875C197.898 82.3127 196.47 83.953 196.087 86.0466C195.511 89.0899 195.49 92.1979 195.916 95.2843C195.98 95.6944 196.598 95.5217 196.534 95.1116Z" fill="#111314"/>
<path d="M199.198 85.1622C199.433 84.601 199.688 84.0182 200.136 83.5866C200.903 82.8311 201.883 83.2412 202.715 83.6513C203.077 83.8456 203.397 83.2844 203.034 83.0902C202.161 82.6369 201.18 82.2052 200.242 82.7017C199.433 83.1333 199.006 84.0182 198.665 84.8168C198.495 85.2269 199.049 85.5507 199.198 85.1622Z" fill="#111314"/>
<path d="M201.095 85.3565C201.884 84.3205 202.928 83.2414 204.292 84.0615C204.654 84.2774 204.974 83.7162 204.612 83.5004C202.992 82.5291 201.628 83.5867 200.647 84.8817C200.392 85.227 200.839 85.6803 201.095 85.3565Z" fill="#111314"/>
<path d="M202.523 85.8313C202.928 85.3996 203.354 84.9464 203.909 84.7306C204.569 84.45 205.784 84.6226 205.528 85.6371C205.443 86.0471 206.04 86.2198 206.146 85.8097C206.36 84.9248 205.784 84.1047 204.91 83.9536C203.738 83.7377 202.822 84.6011 202.076 85.3781C201.799 85.6802 202.246 86.1335 202.523 85.8313Z" fill="#111314"/>
<path d="M202.779 92.004C202.033 93.6227 202.949 95.2631 203.589 96.7523C204.484 98.8459 205.421 100.939 206.572 102.882C208.064 105.429 211.304 110.004 214.692 107.393C215.012 107.134 214.692 106.573 214.373 106.832C211.112 109.357 208.085 104.263 206.764 101.911C205.997 100.529 205.315 99.1049 204.675 97.6588C204.036 96.2127 202.608 93.9465 203.354 92.3277C203.503 91.9608 202.949 91.6155 202.779 92.004Z" fill="#111314"/>
<path d="M205.528 90.3634C203.653 96.8168 209.407 101.824 211.517 107.349C211.666 107.738 212.284 107.565 212.135 107.177C210.089 101.824 204.335 96.7736 206.146 90.5361C206.253 90.126 205.635 89.9533 205.528 90.3634Z" fill="#111314"/>
<path d="M195.895 94.9394C196.981 100.983 199.518 106.702 203.247 111.559C205.059 113.89 207.126 116.156 209.982 117.105C212.412 117.904 215.758 118.314 218.017 116.825C220.489 115.228 220.809 111.969 220.915 109.271C220.937 108.861 220.297 108.861 220.276 109.271C220.148 112.746 219.381 116.587 215.31 117.084C211.559 117.537 208.064 116.026 205.528 113.285C200.818 108.213 197.727 101.587 196.491 94.7667C196.449 94.3566 195.831 94.5293 195.895 94.9394Z" fill="#111314"/>
<path d="M205.954 91.2268C206.636 88.4641 209.918 88.2699 211.964 89.4785C214.053 90.7088 215.481 92.9319 216.525 95.0686C217.612 97.3133 218.401 99.7306 219.168 102.105C220.042 104.824 220.703 107.673 220.255 110.544C220.191 110.954 220.809 111.127 220.873 110.716C221.385 107.436 220.575 104.263 219.53 101.155C218.571 98.3277 217.634 95.4139 216.035 92.8671C214.692 90.7088 212.689 88.4641 210.046 88.0972C208 87.8166 205.826 88.9389 205.315 91.0541C205.23 91.4642 205.848 91.6369 205.954 91.2268Z" fill="#111314"/>
<path opacity="0.1" d="M198.942 82.9387C200.647 82.248 202.31 83.0034 202.715 83.1977C201.521 84.7949 198.985 88.6583 198.772 94.1189C198.452 101.889 203.034 107.047 204.654 108.882C206.743 111.234 209.471 114.299 212.987 113.868C214.969 113.63 216.845 112.292 217.804 110.587C218.763 108.882 218.699 107.026 217.548 102.234C215.779 94.9822 213.84 90.7303 214.117 90.6008C214.394 90.4713 216.696 94.1189 218.422 98.6945C218.593 99.1694 220.021 103.011 220.532 108.299C220.852 111.558 220.575 112.896 219.914 114.083C218.891 115.918 217.229 116.738 216.589 117.019C214.01 118.12 211.538 117.343 210.366 116.932C206.167 115.508 203.93 112.055 201.67 108.58C198.197 103.205 197.237 98.6082 196.321 94.1836C195.682 91.1188 195.255 87.5575 196.854 84.9459C197.131 84.4064 197.749 83.4351 198.942 82.9387Z" fill="#636E72"/>
<path d="M168.167 72.4287C168.103 73.4431 168.465 74.587 169.233 76.8748C170.085 79.4432 171.002 82.1843 173.303 84.8822C174.774 86.6089 176.564 88.7241 179.612 89.3284C182.02 89.8032 184.045 89.1126 185.068 88.6809C185.302 89.3284 185.622 90.0191 186.027 90.7313C187.093 92.6307 188.414 93.9688 189.458 94.8537C190.247 94.7674 191.781 94.4437 193.103 93.235C194.126 92.2853 194.616 91.163 194.914 90.4292C195.277 89.5658 195.468 88.8104 195.554 88.2708C194.914 87.8823 194.211 87.3643 193.529 86.6521C191.398 84.4506 190.822 81.839 190.652 80.5872C190.929 78.1051 191.227 75.6014 191.504 73.1193C191.824 73.1625 192.506 73.2057 193.103 72.7956C193.763 72.3423 193.891 71.5869 194.062 70.7452C194.232 69.9034 194.424 68.8242 193.955 67.594C193.742 67.0544 193.06 65.3277 191.611 65.2198C190.631 65.1335 189.629 65.8026 189.053 66.8386C187.817 65.6299 185.175 63.4932 181.466 63.1478C175.051 62.5435 168.529 67.6156 168.167 72.4287Z" fill="#F7FAFC"/>
<path d="M177.63 82.2917C177.459 82.7449 177.95 83.3924 178.312 83.7162C179.314 84.6011 181.083 84.5579 182.361 83.9536C184.151 83.1119 184.727 81.2989 184.983 80.4787C185.281 79.5722 185.665 78.3851 185.047 77.3275C184.514 76.3994 183.576 76.0757 183.214 75.9678C182.851 76.7232 182.574 77.2844 182.361 77.6513C182.106 78.1045 182.02 78.2556 181.871 78.6009C181.658 79.0542 181.637 79.2269 181.338 79.6369C180.123 81.2341 178.461 81.8169 178.461 81.8169C178.077 81.9032 177.736 81.9895 177.63 82.2917Z" fill="#111314"/>
<path d="M168.508 75.018C170.192 80.3491 172.302 86.5651 177.736 89.0688C179.953 90.0832 182.596 90.2775 184.855 89.2846C187.391 88.1839 188.883 85.637 189.906 83.1765C191.249 79.9606 191.824 76.4641 191.611 72.9892C191.59 72.5791 190.95 72.5791 190.971 72.9892C191.185 76.6152 190.545 80.2628 189.032 83.565C187.561 86.781 185.238 89.3494 181.509 89.3062C174.007 89.2199 170.959 80.8455 169.083 74.8669C168.998 74.4353 168.401 74.608 168.508 75.018Z" fill="#111314"/>
<path d="M189.288 67.4423C189.309 66.1473 190.631 65.3703 191.803 65.7372C192.89 66.1041 193.572 67.1833 193.806 68.2624C194.019 69.2984 193.934 70.5071 193.615 71.4999C193.359 72.3201 193.039 72.7518 192.059 72.7518C191.718 72.7518 191.377 72.6223 191.014 72.6223C190.609 72.6223 190.609 73.2698 191.014 73.2698C191.739 73.2698 192.442 73.6151 193.146 73.2482C193.657 72.9892 193.956 72.4712 194.169 71.9316C194.723 70.4639 194.787 68.4783 194.083 67.0322C193.508 65.8451 192.272 64.8307 190.908 64.9818C189.65 65.1113 188.67 66.1473 188.649 67.4207C188.649 67.8523 189.288 67.8523 189.288 67.4423Z" fill="#111314"/>
<path d="M190.546 79.2705C190.482 82.8317 192.037 86.2419 194.808 88.465C195.128 88.724 195.575 88.2707 195.256 88.0117C192.613 85.8965 191.121 82.7022 191.185 79.2705C191.185 78.8604 190.546 78.8604 190.546 79.2705Z" fill="#111314"/>
<path d="M185.047 88.9395C185.857 91.2058 187.178 93.1914 188.947 94.7886C189.245 95.0692 189.714 94.6159 189.395 94.3353C187.69 92.8029 186.432 90.9252 185.644 88.7668C185.516 88.3783 184.898 88.551 185.047 88.9395Z" fill="#111314"/>
<path d="M189.096 95.0042C190.929 95.6732 192.762 94.0977 193.892 92.7811C195.085 91.3997 196.129 89.6083 195.618 87.7306C195.511 87.3205 194.893 87.4932 195 87.9032C195.426 89.5436 194.467 91.1407 193.423 92.3278C192.442 93.4502 190.844 94.961 189.245 94.3782C188.883 94.2272 188.713 94.8531 189.096 95.0042Z" fill="#111314"/>
<path d="M170.896 72.752C170.618 71.9534 171.258 71.0901 171.727 70.5289C172.43 69.644 173.517 69.4066 174.327 70.3131C175.265 71.3491 175.52 73.2052 175.648 74.5434C175.733 75.4715 175.414 76.6586 175.947 77.4787C176.522 78.3636 177.588 78.8816 178.589 79.0759C178.994 79.1622 179.165 78.5363 178.76 78.45C178.227 78.3421 177.758 78.1694 177.289 77.8672C176.522 77.3492 176.352 76.7881 176.33 75.86C176.309 75.0614 176.288 74.2844 176.16 73.4858C175.947 72.1692 175.584 70.4857 174.519 69.6008C173.624 68.8454 172.515 68.867 171.641 69.6224C170.81 70.3562 169.851 71.7591 170.256 72.9031C170.427 73.3131 171.045 73.1405 170.896 72.752Z" fill="#111314"/>
<path d="M176.799 68.0903C176.948 65.4787 180.166 64.529 181.658 66.6658C181.893 67.0111 182.447 66.6874 182.212 66.342C180.358 63.6657 176.351 64.8096 176.159 68.0903C176.138 68.5004 176.778 68.5004 176.799 68.0903Z" fill="#111314"/>
<path d="M173.901 74.4789C173.602 74.0688 173.432 73.6156 173.41 73.1191C173.24 73.2055 173.091 73.3134 172.92 73.3997C173.41 73.7235 173.666 74.2415 173.645 74.8242C173.773 74.7163 173.922 74.6084 174.05 74.5221C173.517 74.3278 173.176 73.7235 173.282 73.1623C173.133 73.2271 172.963 73.2918 172.814 73.3566C173.069 73.5076 173.282 73.7235 173.432 74.0041C173.496 74.1336 173.538 74.2631 173.56 74.4141C173.56 74.5221 173.56 74.3926 173.538 74.3494C173.496 74.2631 173.453 74.1983 173.41 74.112C173.24 73.7235 172.686 74.0688 172.856 74.4357C172.984 74.7379 173.197 75.0616 173.581 75.0832C173.901 75.1048 174.178 74.889 174.22 74.5652C174.284 73.853 173.73 73.1407 173.155 72.817C172.984 72.7091 172.728 72.7954 172.686 73.0112C172.515 73.9393 173.027 74.8458 173.901 75.1696C174.114 75.2343 174.305 75.0616 174.305 74.8674C174.327 74.0472 173.943 73.3134 173.261 72.8817C173.069 72.7522 172.771 72.9249 172.771 73.1623C172.792 73.7666 172.984 74.3494 173.346 74.8458C173.602 75.148 174.156 74.8242 173.901 74.4789Z" fill="#111314"/>
<path d="M179.868 70.3128C179.761 70.1833 179.676 70.0322 179.633 69.8595C179.633 69.8164 179.591 69.5574 179.633 69.5358C179.676 69.5142 179.782 69.8595 179.804 69.8811C179.846 70.0538 179.825 70.248 179.74 70.3991C179.889 70.3559 180.038 70.3128 180.187 70.2912C179.655 69.989 179.399 69.4279 179.484 68.8235C179.314 68.9099 179.164 69.0178 178.994 69.1041C179.591 69.3631 179.932 69.989 179.782 70.6365C179.91 70.5718 180.038 70.4854 180.166 70.4207C179.846 70.3128 179.591 70.0322 179.527 69.6869C179.527 69.6653 179.527 69.471 179.505 69.471C179.463 69.4926 179.42 69.5142 179.356 69.5358C179.378 69.5789 179.42 69.6437 179.441 69.6869C179.527 69.9243 179.527 70.1617 179.505 70.4207C179.697 70.3343 179.868 70.2696 180.06 70.1833C179.868 70.0322 179.719 69.8595 179.612 69.6221C179.42 69.2552 178.866 69.5789 179.058 69.9459C179.186 70.2049 179.378 70.4423 179.612 70.6365C179.846 70.8308 180.123 70.7013 180.166 70.3991C180.209 69.9674 180.166 69.3847 179.846 69.0609C179.591 68.8019 179.122 68.7804 178.951 69.1689C178.61 69.9243 179.335 70.8092 179.996 71.0466C180.166 71.1113 180.358 70.9818 180.379 70.8308C180.614 69.9243 180.166 68.9314 179.292 68.5645C179.058 68.4566 178.845 68.5861 178.802 68.8451C178.696 69.6653 179.122 70.4638 179.825 70.8739C179.953 70.9603 180.187 70.9171 180.273 70.766C180.443 70.3559 180.486 69.9459 180.337 69.5358C180.209 69.212 179.932 68.8667 179.569 68.9099C178.632 69.0178 179.037 70.3775 179.42 70.8092C179.697 71.0898 180.145 70.6149 179.868 70.3128Z" fill="#111314"/>
<path d="M185.43 88.8748C185.43 88.8964 185.43 88.8964 185.409 88.918C185.537 88.8532 185.665 88.7669 185.793 88.7022C185.771 88.7022 185.75 88.6806 185.729 88.6806C185.793 88.8317 185.857 89.0043 185.921 89.1554C185.963 89.0691 186.539 88.7885 186.709 88.6374C187.093 88.3137 187.412 87.882 187.711 87.4719C188.372 86.587 188.862 85.6157 189.267 84.6013C189.054 84.5366 188.862 84.4934 188.649 84.4287C188.009 86.2848 187.562 88.8748 185.771 89.9756C185.921 90.1267 186.07 90.2777 186.219 90.4288C186.645 89.7813 187.071 89.1122 187.498 88.4647C187.69 88.1626 187.242 87.7957 186.986 88.0762C186.645 88.4432 186.283 88.8317 185.942 89.1986C186.091 89.3497 186.24 89.5007 186.389 89.6518C186.709 89.2633 187.008 88.8532 187.285 88.4432C187.498 88.141 187.029 87.7741 186.773 88.0547C186.475 88.3784 186.176 88.6158 185.793 88.8101C185.963 88.8964 186.112 89.0043 186.283 89.0907C186.283 89.0259 186.262 88.9612 186.262 88.8964C186.219 88.4863 185.58 88.4863 185.622 88.8964C185.622 88.9612 185.643 89.0259 185.643 89.0907C185.665 89.3281 185.899 89.5007 186.134 89.3712C186.56 89.1338 186.901 88.8748 187.242 88.5079C187.071 88.3784 186.901 88.2489 186.73 88.1194C186.475 88.4863 186.219 88.8532 185.942 89.1986C185.686 89.5223 186.112 89.9756 186.389 89.6518C186.73 89.2849 187.093 88.8964 187.434 88.5295C187.263 88.4 187.093 88.2705 186.922 88.141C186.496 88.7885 186.07 89.4576 185.643 90.1051C185.473 90.3857 185.814 90.7094 186.091 90.5583C188.052 89.3497 188.563 86.6733 189.267 84.6229C189.395 84.2128 188.798 84.0833 188.649 84.4502C188.201 85.551 187.626 86.6302 186.858 87.5367C186.496 87.9683 185.921 88.2057 185.58 88.5942C185.494 88.6806 185.409 88.7022 185.366 88.8101C185.26 89.0043 185.345 89.1986 185.558 89.2849C185.58 89.2849 185.601 89.3065 185.622 89.3065C185.793 89.3712 185.963 89.2417 186.006 89.0907C186.006 89.0691 186.006 89.0691 186.027 89.0475C186.198 88.659 185.58 88.4863 185.43 88.8748Z" fill="#111314"/>
<path d="M187.796 88.227C187.988 88.0112 188.116 87.7953 188.18 87.5363C188.286 87.1478 187.796 87.0183 187.604 87.2773C187.157 87.8817 186.709 88.486 186.261 89.0903C186.006 89.4141 186.56 89.7378 186.816 89.4141C187.263 88.8097 187.711 88.2054 188.158 87.6011C187.966 87.5147 187.775 87.4284 187.583 87.3421C187.54 87.4932 187.476 87.6227 187.37 87.7522C187.071 88.0975 187.54 88.5507 187.796 88.227Z" fill="#111314"/>
<path d="M177.95 82.8746C177.353 81.6659 177.992 81.2127 179.186 80.8889C179.335 80.8458 179.484 80.8242 179.612 80.7594C180.123 80.522 180.422 80.004 180.635 79.5076C180.976 78.7738 181.168 77.9752 181.615 77.3061C182.553 75.86 184.215 75.9248 184.748 77.6514C185.281 79.3781 184.62 81.299 183.491 82.6156C182.937 83.2631 182.255 83.8674 181.445 84.148C180.741 84.407 180.123 84.3207 179.441 84.0185C178.951 83.8027 178.056 83.371 177.928 82.8099C177.843 82.3998 177.225 82.5724 177.31 82.9825C177.545 84.1049 179.207 84.7955 180.209 84.9466C181.296 85.1193 182.319 84.5797 183.15 83.889C185.004 82.335 186.155 79.5939 185.26 77.2198C184.301 74.6513 181.701 75.601 180.741 77.6299C180.443 78.2558 180.294 79.3134 179.804 79.7666C179.186 80.3494 178.397 80.1335 177.758 80.5868C176.863 81.2343 176.948 82.3782 177.395 83.2631C177.587 83.5869 178.141 83.2631 177.95 82.8746Z" fill="#111314"/>
<path d="M177.524 82.2053C180.827 82.119 182.426 79.011 183.15 76.162C183.257 75.7519 182.639 75.5793 182.532 75.9894C181.893 78.5362 180.507 81.4715 177.524 81.5578C177.119 81.5794 177.119 82.2269 177.524 82.2053Z" fill="#111314"/>
<path d="M168.764 74.6728C168.38 74.8887 166.057 72.3203 165.077 68.8885C164.352 66.3848 164.565 64.1618 164.821 62.7588C165.184 61.6365 165.695 60.4278 166.398 59.1976C169.425 53.9313 174.199 51.4492 176.671 50.3916C176.159 50.888 175.563 51.5355 175.009 52.3557C174.241 53.4349 173.751 54.4493 173.431 55.291C174.156 54.6651 174.987 54.0392 175.882 53.4349C177.886 52.0751 179.825 51.1039 181.509 50.4132C181.253 51.5139 180.976 52.6147 180.72 53.6938C181.317 53.3485 182.148 52.8521 183.171 52.3557C184.301 51.8161 186.624 50.6938 186.986 51.1902C187.093 51.3413 186.965 51.5139 186.773 52.1399C186.517 52.96 186.432 53.6507 186.389 54.1039C187.05 53.996 187.796 53.9097 188.606 53.8881C189.501 53.8449 190.311 53.8881 191.036 53.9529C190.78 54.9457 190.524 55.9169 190.268 56.9098C190.78 57.104 191.504 57.4709 192.25 58.0753C194.254 59.7372 194.829 61.9818 194.978 62.8668C195.298 64.9819 194.787 66.7518 194.403 67.723C193.38 65.5215 191.355 64.6582 190.204 65.1978C189.501 65.5215 188.691 66.5575 188.776 67.6151C188.798 67.8525 188.862 68.0683 188.926 68.2194C188.18 67.5288 187.05 66.6007 185.58 65.7373C184.109 64.874 182.468 63.9028 180.294 63.6222C176.202 63.0826 173.005 65.3488 172.153 65.9748C170.831 66.9244 168.679 68.4568 168.295 70.8958C167.912 72.9462 169.062 74.5218 168.764 74.6728Z" fill="#10B6E8"/>
<path opacity="0.11" d="M184.983 65.1978C185.644 66.7086 186.539 69.0612 187.029 72.0181C187.54 74.9534 188.18 78.7305 186.624 82.9177C186.091 84.3422 184.834 87.0833 181.85 89.6517C182.553 89.6301 183.768 89.5006 185.047 88.8099C187.136 87.7092 188.052 85.8746 188.329 85.2271C189.331 86.2199 190.673 87.7739 191.696 89.9754C192.272 91.2057 192.634 92.3496 192.847 93.2993C193.423 92.7813 194.488 91.659 194.979 89.8891C195.17 89.1984 195.234 88.5725 195.234 88.0545C193.998 87.3639 193.21 86.5221 192.762 85.9825C192.57 85.7451 190.673 83.3278 190.78 79.9824C190.823 78.7737 191.078 78.7521 191.27 76.8959C191.441 75.234 191.355 73.8311 191.27 72.903C192.357 73.3563 192.911 73.1404 193.167 72.9894C193.657 72.6872 193.785 72.1476 194.233 69.4065C194.467 67.9388 194.595 67.205 194.638 66.8165C194.893 64.7229 195.021 63.6653 194.893 62.8236C194.531 60.4278 193.018 58.8307 192.506 58.3342C191.654 57.4925 190.78 57.0177 190.205 56.7587C190.46 55.8522 190.695 54.9241 190.95 54.0176C189.736 55.4637 188.606 56.4565 187.839 57.104C185.921 58.658 184.812 59.0249 183.491 60.5142C182.447 61.6797 181.85 62.8668 181.509 63.6653C182.681 64.2049 183.832 64.7013 184.983 65.1978Z" fill="#636E72"/>
<path opacity="0.17" d="M176.202 50.6289C175.478 50.9527 173.773 51.8592 172.579 53.7801C172.281 54.2549 171.62 55.442 171.428 57.1039C171.215 58.9385 171.663 60.3846 171.918 61.0968C172.004 59.3054 172.43 56.4132 174.135 53.4347C174.796 52.3124 175.52 51.3843 176.202 50.6289Z" fill="#636E72"/>
<path opacity="0.08" d="M191.27 73.011C191.206 72.9895 191.078 73.2269 190.609 74.8672C189.97 77.0903 189.629 78.7306 189.437 79.5508C189.16 80.7379 188.691 82.4214 187.817 84.4502C189.33 84.7524 190.844 85.0546 192.357 85.3351C191.803 84.1049 191.142 82.335 190.886 80.1335C190.481 76.3565 191.483 73.0542 191.27 73.011Z" fill="#636E72"/>
<defs>
<clipPath id="clip0_107_14889">
<rect width="189" height="149" fill="white" transform="translate(62.3813 46.0527)"/>
</clipPath>
</defs>
</svg>
