<svg width="304" height="260" viewBox="0 0 304 260" fill="none" xmlns="http://www.w3.org/2000/svg">
<path d="M24.9745 88.3444C28.7682 85.2148 33.9045 84.7616 38.5932 85.6249C43.6017 86.5314 48.1625 88.9703 52.7873 91.0207C57.5613 93.1575 62.4206 94.6899 67.6635 94.9489C72.885 95.2295 78.1066 94.4741 83.179 93.1791C93.7713 90.4812 103.49 85.3012 113.656 81.3946C118.75 79.4305 124.014 77.7254 129.427 76.9484C132.368 76.5168 135.331 76.4088 138.293 76.7326C141.106 77.0348 143.856 77.7038 146.605 78.3945C152.679 79.9269 158.732 81.2651 164.955 82.0205C171.37 82.7975 177.849 83.0565 184.307 82.8407C184.712 82.8191 184.712 82.1716 184.307 82.1932C172.585 82.6248 160.863 81.3514 149.482 78.4808C144.047 77.0995 138.655 75.675 133.008 75.9556C127.53 76.2362 122.117 77.7038 116.959 79.4953C106.623 83.0997 96.9042 88.3876 86.4185 91.6035C81.0903 93.2222 75.5704 94.3446 69.9865 94.3662C64.3174 94.3877 58.9893 93.0496 53.8103 90.7617C48.6953 88.5171 43.6869 85.7328 38.1243 84.8695C33.393 84.1357 28.3419 84.7184 24.527 87.8696C24.2073 88.1502 24.6548 88.625 24.9745 88.3444Z" fill="#DFE6E9"/>
<path d="M139.764 68.618C154.533 75.0714 171.306 73.9923 186.417 69.3087C194.601 66.7618 202.742 63.3517 211.459 63.3732C220.24 63.3948 228.573 66.5028 237.162 67.8842C244.962 69.136 253.551 68.9849 260.243 64.2366C260.584 63.9992 260.265 63.438 259.924 63.6754C253.743 68.0568 245.9 68.4453 238.654 67.4525C230.448 66.3302 222.563 63.438 214.272 62.8337C205.982 62.2293 198.16 64.7546 190.381 67.3446C182.623 69.913 174.78 71.9203 166.617 72.3951C157.581 72.9347 148.438 71.7044 140.105 68.0568C139.721 67.8842 139.401 68.4453 139.764 68.618Z" fill="#DFE6E9"/>
<path d="M16.8331 122.425C21.5006 119.058 27.0205 116.986 32.7323 116.424C35.5882 116.144 38.4653 116.252 41.2786 116.748C44.1984 117.266 47.0117 118.259 49.8036 119.252C54.9825 121.065 60.1188 122.446 65.5748 121.173C70.2849 120.072 74.5474 117.59 78.7247 115.237C83.6478 112.453 88.7628 109.604 94.4746 109.086C94.8795 109.043 94.8795 108.395 94.4746 108.439C84.2872 109.367 76.636 117.115 67.1307 120.072C64.7223 120.827 62.2075 121.216 59.6926 121.065C56.6023 120.871 53.5972 119.899 50.6987 118.885C47.7789 117.871 44.8591 116.77 41.7901 116.187C39.1473 115.691 36.4407 115.54 33.7766 115.712C27.596 116.101 21.5645 118.237 16.5135 121.885C16.1725 122.101 16.4921 122.662 16.8331 122.425Z" fill="#DFE6E9"/>
<path d="M73.3326 130.712C81.6232 121.842 93.8139 118.216 105.6 118.108C112.441 118.043 119.261 119.036 125.932 120.482C132.283 121.842 138.442 123.611 145.006 122.726C151.869 121.798 158.284 118.82 164.422 115.69C164.784 115.496 164.465 114.935 164.102 115.129C158.263 118.108 152.189 120.935 145.688 121.971C142.364 122.489 139.018 122.446 135.693 121.906C132.326 121.367 129.043 120.46 125.697 119.748C113.507 117.158 100.527 116.057 88.5497 120.266C82.6462 122.338 77.1902 125.64 72.885 130.237C72.608 130.561 73.0555 131.014 73.3326 130.712Z" fill="#DFE6E9"/>
<path d="M172.116 137.166C175.59 138.397 179.149 137.253 182.325 135.72C185.884 133.994 189.23 131.857 192.874 130.324C196.519 128.792 200.44 127.756 204.404 128.252C208.027 128.706 211.374 130.346 214.549 132.094C217.554 133.756 220.517 135.569 223.713 136.843C227.273 138.246 231.109 138.915 234.924 138.828C242.745 138.656 249.395 134.706 256.535 132.03C263.205 129.526 272.093 128.404 277.442 134.274C277.719 134.576 278.167 134.123 277.89 133.821C273.691 129.224 266.999 128.706 261.245 129.936C253.743 131.533 247.264 136.174 239.719 137.663C235.691 138.461 231.471 138.354 227.486 137.382C223.777 136.476 220.453 134.706 217.128 132.828C214.123 131.123 211.075 129.353 207.772 128.339C204.34 127.281 200.76 127.26 197.286 128.123C193.045 129.181 189.145 131.274 185.33 133.389C181.387 135.548 176.826 138.181 172.244 136.562C171.903 136.411 171.732 137.037 172.116 137.166Z" fill="#DFE6E9"/>
<path d="M228.232 147.569C237.055 148.109 244.323 142.044 252.656 140.209C254.872 139.713 257.217 139.497 259.476 139.886C261.501 140.231 263.333 141.073 265.081 142.152C268.086 144.008 271.006 146.404 274.672 146.663C279.126 146.965 283.069 144.159 286.394 141.526C286.713 141.267 286.266 140.814 285.946 141.073C282.707 143.62 278.828 146.404 274.48 145.994C270.708 145.648 267.724 142.886 264.548 141.094C257.238 136.95 249.416 140.209 242.405 143.339C237.908 145.325 233.24 147.246 228.253 146.943C227.827 146.9 227.827 147.548 228.232 147.569Z" fill="#DFE6E9"/>
<path d="M27.063 188.837C30.1534 185.858 34.7355 184.693 38.8489 185.836C43.154 187.024 45.9246 190.779 49.3772 193.369C56.2612 198.527 65.6387 197.707 73.2046 194.664C82.1345 191.081 89.5726 184.606 98.4812 180.959C102.829 179.167 107.539 178.023 112.27 178.347C116.874 178.671 120.795 180.678 124.44 183.398C128.063 186.095 131.473 189.29 135.714 190.995C140.254 192.808 145.369 192.419 149.631 190.024C149.993 189.829 149.674 189.268 149.312 189.462C144.964 191.901 139.764 192.117 135.224 190.088C131.43 188.383 128.319 185.534 125.015 183.031C121.627 180.462 118.025 178.455 113.762 177.851C109.372 177.246 104.896 178.002 100.74 179.405C91.6399 182.491 84.1379 188.858 75.5063 192.937C67.5355 196.714 57.2842 198.484 49.7182 192.808C45.9459 189.98 42.9835 185.944 38.1242 184.995C34.0109 184.196 29.6419 185.448 26.6155 188.383C26.3171 188.664 26.7647 189.139 27.063 188.837Z" fill="#DFE6E9"/>
<path d="M108.946 200.88C112.462 198.571 116.639 197.47 120.838 197.815C124.674 198.139 128.297 199.585 131.814 201.031C135.224 202.434 138.676 203.902 142.342 204.506C146.178 205.132 150.057 204.657 153.744 203.513C158.156 202.132 162.248 199.931 166.276 197.708C166.638 197.513 166.319 196.952 165.956 197.146C158.582 201.182 150.484 205.434 141.831 203.751C134.606 202.348 128.255 197.815 120.817 197.168C116.511 196.801 112.206 197.945 108.605 200.319C108.285 200.557 108.605 201.118 108.946 200.88Z" fill="#DFE6E9"/>
<path d="M189.4 215.514C194.047 211.111 199.758 207.938 205.918 206.319C209.051 205.499 212.269 205.089 215.508 205.11C219.11 205.154 222.691 205.736 226.271 206.082C233.219 206.751 239.89 205.564 246.39 202.995C252.592 200.556 258.432 196.326 265.102 195.29C272.903 194.081 278.934 199.326 283.9 204.7C284.177 205.002 284.625 204.549 284.348 204.247C280.256 199.823 275.439 195.247 269.216 194.535C262.396 193.758 256.194 197.815 250.269 200.6C243.449 203.815 236.096 206.017 228.53 205.585C224.758 205.369 221.028 204.679 217.235 204.484C214.016 204.312 210.777 204.549 207.623 205.218C200.653 206.664 194.153 210.075 188.953 215.017C188.655 215.341 189.102 215.794 189.4 215.514Z" fill="#DFE6E9"/>
<path d="M64.6158 79.1283C70.5833 83.8119 78.3624 81.7399 84.8627 79.5816C92.9188 76.8837 101.082 75.1786 109.607 75.0059C110.011 75.0059 110.011 74.3584 109.607 74.3584C101.764 74.5095 94.0271 75.8692 86.5677 78.3297C79.8116 80.5528 71.4145 83.6824 65.0634 78.6751C64.7437 78.4161 64.2962 78.8693 64.6158 79.1283Z" fill="#111314"/>
<path d="M122.074 39.89C129.278 39.3504 136.226 37.3216 143.195 35.6165C150.441 33.8251 157.709 32.638 165.189 33.4582C172.734 34.2783 180.044 36.5878 187.44 38.2281C194.558 39.8253 201.783 40.5591 209.072 40.1922C217.277 39.7821 225.376 38.0338 233.027 35.0553C233.411 34.9043 233.24 34.2783 232.857 34.4294C218.94 39.8468 203.744 40.9908 189.166 37.9259C181.898 36.3935 174.78 34.1488 167.427 33.0697C160.33 32.0337 153.404 32.6164 146.413 34.1704C138.314 35.9618 130.365 38.595 122.074 39.2209C121.669 39.2857 121.669 39.9332 122.074 39.89Z" fill="#111314"/>
<path d="M237.417 93.978C243.641 91.647 250.098 94.9708 256.321 95.5752C259.667 95.8989 262.992 95.5752 266.253 94.7982C269.45 94.0212 272.562 92.8772 275.822 92.3808C279.318 91.8413 283.047 92.0571 286.074 94.0643C286.415 94.3017 286.734 93.7406 286.393 93.5032C281.023 89.9635 274.458 91.8628 268.789 93.46C265.23 94.4744 261.671 95.2082 257.963 95.0572C254.425 94.9277 251.036 93.9348 247.583 93.201C244.152 92.4888 240.614 92.1003 237.268 93.3521C236.863 93.4816 237.034 94.1075 237.417 93.978Z" fill="#111314"/>
<path d="M53.8658 157.488C59.2792 152.61 66.9091 156.927 72.9192 157.855C79.8671 158.934 86.8149 156.992 93.4431 155.114C93.8481 155.006 93.6776 154.38 93.2726 154.488C85.9411 156.56 78.3539 158.61 70.7453 156.776C65.1828 155.438 58.3841 152.589 53.397 157.035C53.0986 157.294 53.5462 157.747 53.8658 157.488Z" fill="#111314"/>
<path d="M88.3368 220.068C90.0631 217.996 92.7272 216.873 95.4126 217.219C96.9471 217.413 98.3537 218.125 99.7603 218.751C100.932 219.269 102.126 219.701 103.341 220.046C108.562 221.514 114.168 221.298 119.261 219.485C119.645 219.355 119.474 218.73 119.091 218.859C113.379 220.866 107.07 220.866 101.38 218.708C98.9078 217.78 96.6061 216.291 93.8568 216.506C91.5337 216.679 89.3811 217.801 87.868 219.593C87.6122 219.938 88.0811 220.391 88.3368 220.068Z" fill="#111314"/>
<path d="M124.611 218.297C128.489 217.153 132.475 216.592 136.524 216.614C136.929 216.614 136.929 215.966 136.524 215.966C132.432 215.945 128.383 216.528 124.44 217.672C124.056 217.801 124.206 218.427 124.611 218.297Z" fill="#111314"/>
<path d="M129.683 50.5312C133.455 53.4666 137.057 56.6177 140.509 59.9632C140.808 60.2437 141.255 59.7905 140.957 59.5099C137.483 56.1429 133.817 52.9702 130.002 49.9917C129.683 49.7111 129.363 50.2722 129.683 50.5312Z" fill="#111314"/>
<path d="M92.7272 61.9049C93.0895 59.876 93.4731 57.8472 93.8354 55.7968C93.9207 55.3867 93.3026 55.214 93.2174 55.6241C92.8551 57.653 92.4714 59.6818 92.1091 61.7322C92.0452 62.1423 92.6633 62.315 92.7272 61.9049Z" fill="#111314"/>
<path d="M215.615 74.7683C216.297 74.7683 216.851 74.2078 216.851 73.5165C216.851 72.8251 216.297 72.2646 215.615 72.2646C214.932 72.2646 214.378 72.8251 214.378 73.5165C214.378 74.2078 214.932 74.7683 215.615 74.7683Z" fill="#F7FAFC"/>
<path d="M54.1083 178.152C54.9204 178.152 55.5788 177.486 55.5788 176.663C55.5788 175.841 54.9204 175.174 54.1083 175.174C53.2961 175.174 52.6377 175.841 52.6377 176.663C52.6377 177.486 53.2961 178.152 54.1083 178.152Z" fill="#F7FAFC"/>
<path d="M46.9899 43.2354C48.8497 43.2354 50.3573 41.7086 50.3573 39.8252C50.3573 37.9418 48.8497 36.415 46.9899 36.415C45.1302 36.415 43.6226 37.9418 43.6226 39.8252C43.6226 41.7086 45.1302 43.2354 46.9899 43.2354Z" fill="#F7FAFC"/>
<path d="M53.7463 46.5378C54.3701 46.5378 54.8758 46.0257 54.8758 45.3939C54.8758 44.7621 54.3701 44.25 53.7463 44.25C53.1224 44.25 52.6167 44.7621 52.6167 45.3939C52.6167 46.0257 53.1224 46.5378 53.7463 46.5378Z" fill="#F7FAFC"/>
<path d="M118.281 238.521C119.669 238.521 120.795 237.381 120.795 235.975C120.795 234.568 119.669 233.428 118.281 233.428C116.892 233.428 115.766 234.568 115.766 235.975C115.766 237.381 116.892 238.521 118.281 238.521Z" fill="#F7FAFC"/>
<path d="M235.158 47.6808C236.382 47.6808 237.374 46.6758 237.374 45.4361C237.374 44.1964 236.382 43.1914 235.158 43.1914C233.934 43.1914 232.941 44.1964 232.941 45.4361C232.941 46.6758 233.934 47.6808 235.158 47.6808Z" fill="#F7FAFC"/>
<path d="M237.993 42.7392C238.746 42.7392 239.357 42.1208 239.357 41.3579C239.357 40.595 238.746 39.9766 237.993 39.9766C237.24 39.9766 236.629 40.595 236.629 41.3579C236.629 42.1208 237.24 42.7392 237.993 42.7392Z" fill="#F7FAFC"/>
<path d="M50.3786 39.6524C52.2384 39.6524 53.746 38.1256 53.746 36.2422C53.746 34.3588 52.2384 32.832 50.3786 32.832C48.5189 32.832 47.0112 34.3588 47.0112 36.2422C47.0112 38.1256 48.5189 39.6524 50.3786 39.6524Z" fill="#10B6E8"/>
<path d="M48.6949 180.16C49.6248 180.16 50.3786 179.397 50.3786 178.455C50.3786 177.513 49.6248 176.75 48.6949 176.75C47.765 176.75 47.0112 177.513 47.0112 178.455C47.0112 179.397 47.765 180.16 48.6949 180.16Z" fill="#10B6E8"/>
<path d="M107.88 233.578C108.704 233.578 109.372 232.902 109.372 232.067C109.372 231.233 108.704 230.557 107.88 230.557C107.056 230.557 106.388 231.233 106.388 232.067C106.388 232.902 107.056 233.578 107.88 233.578Z" fill="#10B6E8"/>
<path d="M226.974 39.9762C228.928 39.9762 230.512 38.3721 230.512 36.3934C230.512 34.4146 228.928 32.8105 226.974 32.8105C225.02 32.8105 223.437 34.4146 223.437 36.3934C223.437 38.3721 225.02 39.9762 226.974 39.9762Z" fill="#10B6E8"/>
<path d="M168.727 94.2366C169.151 94.2366 169.494 93.8887 169.494 93.4596C169.494 93.0305 169.151 92.6826 168.727 92.6826C168.303 92.6826 167.96 93.0305 167.96 93.4596C167.96 93.8887 168.303 94.2366 168.727 94.2366Z" fill="#10B6E8"/>
<path d="M160.863 47.9836C160.415 49.0412 159.989 50.1204 159.542 51.178C159.392 51.5665 160.01 51.7391 160.16 51.3506C160.607 50.2931 161.033 49.2139 161.481 48.1563C161.63 47.7678 161.012 47.5951 160.863 47.9836Z" fill="#10B6E8"/>
<path d="M160.756 48.5011C161.545 49.3429 162.163 50.2926 162.568 51.3717C162.717 51.7602 163.335 51.5876 163.186 51.1991C162.717 50.012 162.056 48.976 161.204 48.0479C160.927 47.7457 160.458 48.199 160.756 48.5011Z" fill="#10B6E8"/>
<path d="M159.712 51.7391C160.33 52.9046 161.033 54.0053 161.822 55.0413C162.078 55.3651 162.632 55.0413 162.376 54.7176C161.587 53.66 160.884 52.5592 160.266 51.4153C160.053 51.0484 159.52 51.3721 159.712 51.7391Z" fill="#10B6E8"/>
<path d="M162.61 51.4153C162.355 52.6239 162.12 53.8326 161.864 55.0413C161.779 55.4514 162.397 55.624 162.483 55.2139C162.738 54.0053 162.973 52.7966 163.228 51.5879C163.314 51.1994 162.696 51.0268 162.61 51.4153Z" fill="#10B6E8"/>
<path d="M220.9 140.381C220.388 141.331 220.047 142.346 219.898 143.425C219.834 143.835 220.452 144.007 220.516 143.597C220.665 142.583 220.964 141.633 221.454 140.727C221.646 140.338 221.092 140.015 220.9 140.381Z" fill="#10B6E8"/>
<path d="M220.858 140.576C221.284 141.72 221.774 142.821 222.328 143.879C222.52 144.245 223.074 143.922 222.882 143.555C222.349 142.54 221.881 141.483 221.476 140.404C221.326 140.015 220.708 140.188 220.858 140.576Z" fill="#10B6E8"/>
<path d="M219.771 143.879C220.325 144.677 220.857 145.476 221.412 146.274C221.646 146.62 222.2 146.296 221.966 145.951C221.412 145.152 220.879 144.353 220.325 143.555C220.09 143.21 219.536 143.533 219.771 143.879Z" fill="#10B6E8"/>
<path d="M222.094 143.771C221.646 144.397 221.433 145.109 221.433 145.864C221.433 146.274 222.072 146.274 222.072 145.864C222.072 145.217 222.264 144.612 222.648 144.094C222.882 143.749 222.328 143.425 222.094 143.771Z" fill="#10B6E8"/>
<path d="M42.6208 201.484C42.0454 202.757 41.4699 204.009 40.8945 205.282C40.724 205.649 41.2781 205.995 41.4486 205.606C42.0241 204.333 42.5995 203.081 43.1749 201.807C43.3454 201.441 42.8126 201.117 42.6208 201.484Z" fill="#10B6E8"/>
<path d="M42.7276 201.657C43.2818 202.995 43.8359 204.334 44.39 205.672C44.5392 206.06 45.1573 205.888 45.0081 205.499C44.4539 204.161 43.8998 202.823 43.3457 201.485C43.1965 201.096 42.5785 201.269 42.7276 201.657Z" fill="#10B6E8"/>
<path d="M40.7454 205.865C41.3208 207.009 41.875 208.175 42.4504 209.319C42.557 209.513 42.8127 209.513 42.9619 209.383C43.4095 209.016 43.6226 208.39 43.857 207.894C44.198 207.203 44.539 206.513 44.88 205.822C45.0718 205.455 44.5177 205.131 44.3259 205.498C44.0275 206.103 43.7078 206.707 43.4095 207.311C43.1537 207.829 42.9193 208.542 42.4717 208.908C42.6422 208.93 42.8127 208.952 42.9832 208.973C42.4078 207.829 41.8536 206.664 41.2782 205.52C41.1077 205.175 40.5536 205.498 40.7454 205.865Z" fill="#10B6E8"/>
<path d="M257.132 101.165C256.471 102.439 256.066 103.777 255.874 105.201C255.81 105.612 256.45 105.612 256.514 105.201C256.684 103.885 257.068 102.655 257.664 101.489C257.878 101.122 257.323 100.798 257.132 101.165Z" fill="#10B6E8"/>
<path d="M257.046 101.921C257.707 103.216 258.346 104.511 259.007 105.806C259.199 106.173 259.753 105.849 259.561 105.482C258.9 104.187 258.261 102.892 257.6 101.597C257.408 101.23 256.854 101.554 257.046 101.921Z" fill="#10B6E8"/>
<path d="M255.917 105.287C256.449 106.582 257.089 107.791 257.856 108.935C258.09 109.28 258.645 108.957 258.41 108.611C257.664 107.51 257.025 106.345 256.535 105.115C256.385 104.748 255.767 104.92 255.917 105.287Z" fill="#10B6E8"/>
<path d="M258.815 105.568C258.431 106.776 258.112 108.007 257.899 109.28C257.835 109.69 258.453 109.863 258.517 109.453C258.73 108.201 259.028 106.971 259.433 105.74C259.561 105.352 258.943 105.179 258.815 105.568Z" fill="#10B6E8"/>
<path d="M254.659 205.951C254.403 206.815 254.169 207.656 253.913 208.52C253.807 208.93 254.403 209.081 254.531 208.692C254.787 207.829 255.021 206.987 255.277 206.124C255.405 205.714 254.787 205.541 254.659 205.951Z" fill="#10B6E8"/>
<path d="M254.617 206.427C255 207.29 255.405 208.154 255.789 208.995C255.959 209.384 256.513 209.038 256.343 208.672C255.959 207.808 255.554 206.945 255.171 206.103C255 205.715 254.446 206.038 254.617 206.427Z" fill="#10B6E8"/>
<path d="M254.084 208.931C254.276 209.945 254.744 210.852 255.405 211.629C255.682 211.953 256.13 211.478 255.853 211.176C255.256 210.485 254.872 209.665 254.702 208.78C254.617 208.348 253.998 208.521 254.084 208.931Z" fill="#10B6E8"/>
<path d="M255.767 208.844C255.49 209.75 255.362 210.679 255.384 211.607C255.405 212.017 256.044 212.017 256.023 211.607C256.002 210.722 256.108 209.858 256.385 209.017C256.513 208.628 255.895 208.455 255.767 208.844Z" fill="#10B6E8"/>
<path d="M34.586 92.0782C34.1171 93.1142 33.6695 94.1502 33.2006 95.1862C33.0301 95.5531 33.5843 95.8985 33.7548 95.51C34.2236 94.4739 34.6712 93.4379 35.1401 92.4019C35.3106 92.035 34.7565 91.6897 34.586 92.0782Z" fill="#10B6E8"/>
<path d="M33.2862 95.7256C33.7764 96.9991 34.2453 98.2509 34.7355 99.5243C34.8847 99.9128 35.5027 99.7402 35.3536 99.3517C34.8634 98.0782 34.3945 96.8264 33.9043 95.553C33.7551 95.1645 33.137 95.3371 33.2862 95.7256Z" fill="#10B6E8"/>
<path d="M34.586 92.1209C35.2467 93.2864 35.9074 94.4735 36.5681 95.639C36.7812 96.0059 37.314 95.6821 37.1222 95.3152C36.4615 94.1497 35.8008 92.9626 35.1401 91.7971C34.927 91.4302 34.3729 91.754 34.586 92.1209Z" fill="#10B6E8"/>
<path d="M36.7176 95.3587C36.0356 96.6537 35.4388 97.9918 34.9273 99.3516C34.7782 99.7401 35.3962 99.9128 35.5454 99.5243C36.0356 98.2077 36.611 96.9127 37.2717 95.6824C37.4635 95.3155 36.9094 94.9918 36.7176 95.3587Z" fill="#10B6E8"/>
<path d="M195.24 111.978C195.666 111.158 196.476 110.597 197.414 110.64C198.181 110.662 198.756 111.201 199.438 111.46C200.632 111.892 200.994 111.115 201.889 110.532C203.104 109.712 204.276 111.546 205.576 111.525C206.322 111.503 206.94 111.136 206.962 110.338C206.791 110.424 206.642 110.532 206.471 110.618C207.132 110.964 207.793 111.309 208.432 111.676C208.794 111.87 209.114 111.309 208.752 111.115C208.091 110.769 207.43 110.424 206.791 110.057C206.578 109.949 206.322 110.079 206.301 110.338C206.237 111.87 203.296 109.69 202.742 109.626C201.484 109.453 200.994 111.028 199.907 110.856C198.756 110.662 198.032 109.82 196.795 110.036C195.858 110.208 195.09 110.791 194.664 111.654C194.515 112.021 195.048 112.345 195.24 111.978Z" fill="#10B6E8"/>
<path d="M203.402 107.597C204.362 106.518 205.875 107.877 206.962 108.007C208.219 108.158 209.199 106.798 210.414 107.489C211.416 108.072 213.249 109.453 213.973 107.683C214.123 107.295 213.505 107.122 213.355 107.51C212.844 108.762 211.011 107.014 210.393 106.755C209.562 106.388 209.008 106.69 208.262 107.057C207.367 107.489 206.727 107.338 205.875 106.949C205.491 106.777 205.107 106.626 204.681 106.561C204.021 106.474 203.424 106.604 202.955 107.122C202.678 107.446 203.125 107.899 203.402 107.597Z" fill="#10B6E8"/>
<path d="M186.097 56.6814C186.395 56.1203 186.736 55.9692 187.12 56.2282C187.29 56.2929 187.461 56.3793 187.631 56.4872C187.823 56.5735 188.015 56.703 188.207 56.7678C188.548 56.8757 188.889 56.9188 189.23 56.8325C190.146 56.5735 190.615 55.408 191.595 55.4296C192.512 55.4512 193.172 56.3361 194.131 55.8829C194.536 55.6886 194.813 55.3433 195.197 55.1274C196.05 54.6526 197.094 54.8253 197.818 55.4296C198.138 55.6886 198.586 55.2354 198.266 54.9764C197.307 54.1778 195.986 53.9404 194.877 54.5663C194.387 54.8469 193.982 55.4512 193.343 55.3649C192.981 55.3217 192.661 55.0627 192.32 54.9332C191.808 54.7389 191.34 54.6742 190.828 54.9116C190.189 55.2138 189.762 56.0555 189.059 56.2066C188.164 56.4009 187.567 55.4728 186.736 55.4512C185.947 55.4296 185.031 56.2066 185.564 57.0052C185.777 57.3505 186.331 57.0268 186.097 56.6814Z" fill="#F7FAFC"/>
<path d="M193.173 52.8608C193.428 51.4579 195.837 52.8176 196.689 52.6666C197.243 52.5802 197.648 52.1917 198.16 51.9975C198.97 51.6737 199.758 51.8032 200.504 52.2565C200.866 52.4723 201.186 51.9111 200.824 51.6953C200.184 51.3068 199.502 51.1126 198.778 51.1773C198.458 51.1989 198.16 51.2852 197.883 51.3931C197.03 51.7601 196.689 52.1701 195.623 51.9111C194.6 51.6521 192.853 51.1341 192.576 52.6881C192.469 53.0982 193.087 53.2709 193.173 52.8608Z" fill="#F7FAFC"/>
<path d="M31.8156 130.864C32.0927 129.504 33.9469 131.36 34.3092 131.598C34.7141 131.878 35.1617 132.073 35.6519 131.965C36.2912 131.857 36.7814 131.317 37.4421 131.166C38.5077 130.929 39.5734 131.274 40.3406 132.051C40.639 132.353 41.0866 131.878 40.7882 131.598C40.1275 130.929 39.3176 130.519 38.3799 130.454C37.911 130.411 37.4421 130.476 36.9945 130.627C36.2912 130.864 35.7371 131.555 34.8846 131.209C33.9895 130.842 33.6485 129.914 32.6255 129.806C31.9648 129.742 31.3467 130.001 31.2189 130.691C31.1123 131.101 31.7304 131.274 31.8156 130.864Z" fill="#F7FAFC"/>
<path d="M38.9125 129.31C39.3814 128.662 41.534 129.957 42.152 130.108C43.1537 130.346 44.1767 130.346 45.1997 130.216C45.6046 130.151 45.4341 129.525 45.0292 129.59C43.2603 129.828 41.8963 129.353 40.2978 128.705C39.5732 128.425 38.8486 128.317 38.3584 128.986C38.124 129.31 38.6781 129.633 38.9125 129.31Z" fill="#F7FAFC"/>
<path d="M90.8726 174.548C91.2136 174.009 91.7464 173.663 92.4071 173.663C92.9612 173.663 93.3022 174.009 93.7924 174.16C94.2825 174.332 94.6875 174.224 95.1137 173.944C95.9449 173.383 96.3498 172.692 97.4794 172.735C98.5024 172.757 99.4828 173.253 100.378 173.706C100.74 173.901 101.06 173.34 100.698 173.145C99.0139 172.282 96.9679 171.462 95.3482 172.865C94.9859 173.167 94.9432 173.253 94.3891 173.361C93.771 173.491 93.835 173.404 93.3661 173.21C92.9612 173.037 92.5776 172.973 92.13 173.016C91.3414 173.102 90.7234 173.555 90.3184 174.203C90.1053 174.57 90.6594 174.894 90.8726 174.548Z" fill="#F7FAFC"/>
<path d="M97.9698 175.8C98.9715 174.915 100.868 176.772 102.104 176.599C102.85 176.491 103.191 175.93 103.682 175.412C104.619 174.397 106.026 174.246 107.177 175.002C107.518 175.218 107.838 174.678 107.497 174.441C106.665 173.901 105.685 173.728 104.726 174.009C104.3 174.138 103.916 174.333 103.575 174.613C103.064 175.045 102.744 175.822 102.019 175.951C100.463 176.232 98.9928 174.031 97.5222 175.347C97.2239 175.628 97.6714 176.081 97.9698 175.8Z" fill="#F7FAFC"/>
<path d="M68.8994 37.3645C69.0699 36.6522 69.4748 36.0911 70.1568 35.7889C70.7536 35.5299 71.2438 35.7026 71.8618 35.681C72.5438 35.6378 73.0553 35.2925 73.4603 34.7745C74.0783 33.9975 74.4833 33.1989 75.3571 32.6809C76.3588 32.0981 77.5097 31.9902 78.6179 32.3356C79.0228 32.4651 79.172 31.8391 78.7884 31.7096C76.7424 31.0837 74.7177 31.8823 73.4816 33.6306C72.9914 34.3212 72.6291 35.0119 71.6913 35.0335C71.1159 35.0551 70.6257 34.9256 70.0716 35.1198C69.1338 35.4436 68.4945 36.2422 68.2813 37.1918C68.1748 37.6019 68.7928 37.7746 68.8994 37.3645Z" fill="#F7FAFC"/>
<path d="M71.9043 39.8467C70.9878 37.3862 75.3782 37.5157 76.6996 37.0409C78.3407 36.4581 79.7473 35.4221 81.1326 34.3861C81.4523 34.1487 81.1326 33.5875 80.8129 33.8249C79.8752 34.5372 78.9161 35.2279 77.8931 35.789C76.6143 36.4797 75.3995 36.6955 74.0142 36.9114C72.5436 37.1488 70.6255 38.1848 71.3075 39.9978C71.4354 40.3863 72.0534 40.2352 71.9043 39.8467Z" fill="#F7FAFC"/>
<g clip-path="url(#clip0_107_15791)">
<path d="M114.219 102.04C114.076 101.853 113.901 101.694 113.701 101.571C113.397 101.436 113.058 101.402 112.733 101.472C111.914 101.597 111.154 101.972 110.435 102.391C109.854 102.724 109.278 103.094 108.863 103.618C108.726 103.776 108.631 103.965 108.586 104.169C108.562 104.338 108.576 104.509 108.628 104.671C108.665 104.854 108.743 105.025 108.857 105.172C108.97 105.32 109.116 105.439 109.283 105.52C109.667 105.671 110.095 105.511 110.48 105.364C110.998 105.164 111.567 104.978 112.1 105.136C112.495 105.254 112.834 105.554 113.251 105.565C113.741 105.579 114.138 105.182 114.45 104.803C114.72 104.473 115.311 103.875 115.273 103.41C115.234 102.945 114.509 102.373 114.219 102.04Z" fill="#FBBEBE"/>
<path d="M120.406 116.349C119.957 116.469 119.487 116.489 119.029 116.406C118.75 116.355 118.409 116.289 118.231 116.508C118.173 116.589 118.135 116.682 118.119 116.78C117.661 118.653 118.08 120.641 118.853 122.415C118.863 122.445 118.881 122.471 118.904 122.492C118.954 122.529 119.022 122.503 119.079 122.479C119.266 122.404 119.441 122.302 119.598 122.176C119.951 121.856 120.026 121.335 120.043 120.859C120.059 120.383 120.052 119.879 120.298 119.471C120.606 118.966 121.251 118.719 121.504 118.184C121.708 117.749 121.602 117.232 121.422 116.787C121.361 116.633 121.337 116.235 121.194 116.16C121.051 116.085 120.57 116.305 120.406 116.349Z" fill="#FBBEBE"/>
<path d="M114.166 101.854C114.206 101.831 114.237 101.794 114.251 101.749C114.265 101.705 114.262 101.657 114.243 101.614C114.203 101.53 114.145 101.456 114.074 101.398C113.914 101.243 113.767 101.074 113.637 100.894C113.492 100.671 113.331 100.459 113.154 100.261C113.064 100.163 112.953 100.086 112.829 100.037C112.706 99.9871 112.572 99.9658 112.44 99.9746C112.292 100.001 112.151 100.057 112.026 100.14C111.527 100.43 111.067 100.783 110.659 101.192C110.627 101.223 110.592 101.262 110.6 101.306C110.607 101.35 110.637 101.368 110.64 101.405C110.641 101.438 110.63 101.47 110.607 101.495C110.362 101.801 110.071 102.067 109.744 102.284C109.282 102.632 108.829 102.993 108.386 103.368C108.108 103.566 107.89 103.835 107.752 104.146C107.658 104.509 107.699 104.894 107.868 105.229C108.174 105.95 108.709 106.545 109.236 107.124C109.324 107.243 109.447 107.329 109.588 107.373C109.699 107.388 109.812 107.36 109.904 107.295C110.225 107.084 110.271 106.643 110.299 106.259L110.328 105.727C110.327 105.692 110.334 105.658 110.348 105.626C110.376 105.586 110.415 105.554 110.46 105.536L110.96 105.271C110.807 105.023 110.59 104.82 110.331 104.685C110.072 104.551 109.782 104.489 109.491 104.506C109.358 104.538 109.218 104.519 109.098 104.453C109.04 104.393 109.008 104.312 109.008 104.229C109.008 104.145 109.04 104.065 109.098 104.005C109.22 103.889 109.369 103.806 109.531 103.764C110.848 103.28 112.037 102.504 113.315 101.925C113.455 101.854 113.61 101.818 113.767 101.82C113.896 101.83 114.046 101.905 114.166 101.854Z" fill="#F86D70"/>
<path d="M119.352 121.106C119.294 121.216 119.273 121.345 119.209 121.453C119.145 121.562 119.005 121.637 118.897 121.582C118.84 121.542 118.798 121.484 118.776 121.418C118.219 120.143 118.062 118.729 118.326 117.363C118.363 117.139 118.429 116.921 118.523 116.715C118.62 116.517 118.761 116.315 118.721 116.098C118.197 116.263 117.693 116.488 117.219 116.767C116.907 116.951 116.578 117.206 116.549 117.567C116.546 117.706 116.566 117.845 116.609 117.978L116.782 118.627C116.803 118.748 116.856 118.86 116.936 118.953C116.991 119.008 117.066 119.043 117.12 119.102C117.17 119.17 117.204 119.25 117.219 119.333L117.364 119.896C117.418 120.084 117.457 120.276 117.48 120.47C117.496 120.653 117.48 120.823 117.494 120.999C117.515 121.289 117.558 121.578 117.623 121.861L117.83 122.88C117.877 123.164 117.959 123.442 118.073 123.707C118.159 123.891 118.275 124.049 118.346 124.235C118.399 124.376 118.427 124.527 118.493 124.661C118.612 124.879 118.798 125.052 119.024 125.156C119.103 125.202 119.191 125.23 119.283 125.239C119.542 125.248 119.727 124.996 119.848 124.764C120.085 124.343 120.211 123.869 120.215 123.385C120.215 123.191 120.175 122.998 120.158 122.803C120.113 122.251 120.267 121.716 120.265 121.166C120.269 120.652 119.542 120.749 119.352 121.106Z" fill="#F86D70"/>
<path d="M131.305 118.547C130.398 118.583 129.489 118.572 128.586 118.659C128.059 118.71 127.534 118.797 127.005 118.819C126.429 118.844 125.85 118.798 125.272 118.809C123.816 118.841 122.38 119.229 120.979 119.629C120.584 118.662 120.377 117.628 120.371 116.583C120.368 116.514 120.368 116.444 120.371 116.375C120.397 116.079 120.485 115.792 120.63 115.533C121.916 115.166 123.219 114.798 124.554 114.816C124.989 114.816 125.421 114.868 125.854 114.881C127.112 114.919 128.334 114.355 129.583 114.513C129.707 114.525 129.831 114.498 129.938 114.435C130.046 114.372 130.13 114.276 130.18 114.162C130.233 114.026 130.255 113.847 130.393 113.794C130.492 113.757 130.628 113.803 130.69 113.719C130.712 113.673 130.725 113.624 130.729 113.573C130.765 113.39 130.951 113.307 131.096 113.206C131.463 112.952 131.671 112.518 131.854 112.103C131.902 112.013 131.932 111.914 131.941 111.812C131.941 111.731 131.915 111.65 131.917 111.568C131.917 111.277 132.242 111.11 132.411 110.873C132.633 110.56 132.594 110.137 132.703 109.77C132.849 109.306 133.24 108.977 133.338 108.521C133.349 108.475 133.356 108.427 133.36 108.38C132.97 108.782 132.524 109.125 132.036 109.398C130.406 110.404 128.456 111.005 126.934 112.169C125.725 113.088 123.955 113.06 122.633 112.312C122.135 112.007 121.664 111.658 121.227 111.27C120.555 110.718 119.876 110.154 119.172 109.628C118.683 109.26 118.175 108.905 117.65 108.564C117.014 108.142 116.356 107.756 115.678 107.407C114.837 106.981 113.991 106.558 113.055 106.457C112.934 106.211 112.867 105.942 112.859 105.668C112.85 105.394 112.899 105.121 113.003 104.868C113.217 104.364 113.507 103.896 113.862 103.48C114.129 103.089 114.462 102.749 114.847 102.474C114.889 102.447 114.939 102.433 114.99 102.433C115.04 102.433 115.09 102.447 115.133 102.474L118.772 104.712L119.453 105.129C120.946 106.048 122.415 107.032 123.908 107.946C123.935 108.051 124.08 108.063 124.185 108.036C124.29 108.008 124.409 107.964 124.499 108.025C124.543 108.054 124.574 108.109 124.629 108.12C124.673 108.122 124.716 108.108 124.75 108.08C125.367 107.655 125.683 106.839 126.375 106.554C126.671 106.433 127.022 106.414 127.253 106.186C127.39 106.013 127.513 105.828 127.62 105.635C127.92 105.243 128.487 105.126 128.764 104.716C128.948 104.45 129.168 104.212 129.42 104.01C129.92 103.602 130.353 103.119 130.705 102.577C130.886 102.31 131.028 102.018 131.125 101.71C131.173 101.55 131.202 101.384 131.256 101.226C131.423 100.744 131.807 100.375 132.19 100.04C132.886 99.4299 133.637 98.8508 134.518 98.5695C134.826 98.4982 135.124 98.3902 135.405 98.2477C135.76 98.0308 136.085 97.6282 136.49 97.7219C136.644 97.7697 136.783 97.8572 136.892 97.9756C137.39 98.4603 137.848 98.9848 138.26 99.5439C138.915 100.379 139.569 101.214 140.223 102.05C140.429 102.35 140.69 102.609 140.992 102.813C141.431 103.039 141.934 103.104 142.415 102.997C142.351 103.679 141.809 104.241 141.585 104.888C141.477 105.203 141.435 105.537 141.354 105.859C141.24 106.263 141.095 106.657 140.919 107.038C140.478 108.065 140.034 109.099 139.402 110.021C139.076 110.501 138.699 110.941 138.33 111.391C136.874 113.151 135.76 115.272 134.107 116.855C133.707 117.243 133.453 117.774 133.005 118.107C132.519 118.467 131.891 118.523 131.305 118.547Z" fill="#434175"/>
<path opacity="0.1" d="M138.224 95.2197C138.062 95.2276 137.904 95.275 137.765 95.3576C138.101 95.2399 138.51 95.5543 138.82 95.4054C138.965 95.3356 138.943 95.3153 138.82 95.273C138.635 95.2105 138.411 95.2675 138.224 95.2197Z" fill="black"/>
<path opacity="0.1" d="M138.058 97.0139C137.934 96.9701 137.8 96.9619 137.671 96.99C137.479 97.0104 137.3 97.0983 137.166 97.2382C137.202 97.2541 137.24 97.2624 137.279 97.2624C137.318 97.2624 137.356 97.2541 137.392 97.2382C137.512 97.2077 137.636 97.1941 137.759 97.1977C137.866 97.1977 138.183 97.3154 138.266 97.2639C138.387 97.1848 138.141 97.0451 138.058 97.0139Z" fill="black"/>
<path opacity="0.1" d="M131.434 114.745L120.37 116.376C120.395 116.08 120.483 115.793 120.629 115.534C121.914 115.166 123.217 114.798 124.552 114.817C124.987 114.817 125.419 114.868 125.852 114.881C127.11 114.919 128.333 114.355 129.581 114.513C129.705 114.525 129.83 114.498 129.937 114.435C130.044 114.372 130.128 114.276 130.178 114.162C130.231 114.026 130.253 113.848 130.391 113.794C130.49 113.758 130.626 113.804 130.688 113.719C130.711 113.674 130.724 113.624 130.727 113.574C130.764 113.39 130.949 113.307 131.094 113.206C131.461 112.952 131.669 112.518 131.853 112.103C131.901 112.013 131.93 111.914 131.939 111.812C131.939 111.732 131.913 111.651 131.915 111.568C131.915 111.277 132.24 111.11 132.409 110.873C132.631 110.56 132.592 110.138 132.701 109.77C132.848 109.307 133.239 108.977 133.336 108.522L133.384 108.459L135.268 107.724L131.434 114.745Z" fill="black"/>
<path opacity="0.1" d="M89.0092 204.049C132.106 204.049 167.043 201.333 167.043 197.982C167.043 194.631 132.106 191.915 89.0092 191.915C45.9124 191.915 10.9756 194.631 10.9756 197.982C10.9756 201.333 45.9124 204.049 89.0092 204.049Z" fill="#10B6E8"/>
<path opacity="0.1" d="M157.995 220.048C185.881 220.048 208.487 217.104 208.487 213.472C208.487 209.84 185.881 206.896 157.995 206.896C130.109 206.896 107.502 209.84 107.502 213.472C107.502 217.104 130.109 220.048 157.995 220.048Z" fill="#10B6E8"/>
<path d="M98.2356 193.07L98.287 190.467C100.735 190.327 103.183 190.234 105.631 190.187C107.052 190.161 108.492 190.152 109.867 190.509C110.82 190.757 111.722 191.176 112.662 191.47C114.535 192.055 116.517 192.132 118.484 192.186C120.392 192.239 122.384 192.257 124.097 191.413C127.062 189.943 128.309 186.33 128.454 183.023C128.599 179.715 127.942 176.382 128.399 173.095" stroke="#3F3D56" stroke-width="12" stroke-miterlimit="10"/>
<path d="M104.948 198.165L72.2311 197.746L72.3266 196.905L73.9093 183.045H102.64L104.756 196.905L104.917 197.955L104.948 198.165Z" fill="#D0D2D5"/>
<path opacity="0.1" d="M104.917 197.955H88.5888L72.2311 197.745L72.3266 196.905H104.756L104.917 197.955Z" fill="black"/>
<path d="M110.192 197.114H66.778V198.164H110.192V197.114Z" fill="#D0D2D5"/>
<path d="M151.612 99.7978C151.616 99.4378 151.548 99.0808 151.413 98.7472C151.278 98.4136 151.078 98.11 150.826 97.8537C150.573 97.5975 150.273 97.3937 149.941 97.2541C149.61 97.1145 149.255 97.0417 148.895 97.04H27.6546C27.2952 97.042 26.9397 97.1149 26.6085 97.2546C26.2773 97.3943 25.9769 97.5981 25.7244 97.8543C25.472 98.1105 25.2725 98.414 25.1374 98.7475C25.0024 99.081 24.9343 99.4379 24.9372 99.7978V173.385H151.612V99.7978Z" fill="#3F3D56"/>
<path d="M24.9371 172.649V181.27C24.9371 181.992 25.2234 182.684 25.733 183.194C26.2427 183.704 26.9338 183.991 27.6545 183.991H148.895C149.616 183.991 150.307 183.704 150.816 183.194C151.326 182.684 151.612 181.992 151.612 181.27V172.649H24.9371Z" fill="#D0D2D5"/>
<path d="M146.998 101.669H30.181V167.82H146.998V101.669Z" fill="#2F2E41"/>
<path d="M88.9045 180.72C89.3334 180.72 89.7567 180.623 90.1425 180.435C90.5283 180.248 90.8666 179.975 91.1317 179.637C91.2127 179.534 91.2863 179.425 91.352 179.312L89.7987 179.056L91.4787 179.069C91.6399 178.718 91.7277 178.338 91.7368 177.951C91.746 177.565 91.6763 177.181 91.532 176.823L89.2791 177.994L91.3576 176.464C91.1658 176.122 90.9051 175.823 90.592 175.587C90.2789 175.35 89.9202 175.182 89.5386 175.091C89.1571 175.001 88.7609 174.991 88.3753 175.062C87.9897 175.134 87.6231 175.284 87.2986 175.504C86.9742 175.725 86.699 176.01 86.4904 176.343C86.2819 176.675 86.1446 177.047 86.0872 177.436C86.0299 177.824 86.0537 178.22 86.1572 178.599C86.2606 178.977 86.4415 179.331 86.6884 179.636C86.9519 179.972 87.2883 180.245 87.6721 180.433C88.0559 180.62 88.4773 180.719 88.9045 180.72Z" fill="#10B6E8"/>
<path opacity="0.1" d="M91.7358 183.989L104.789 197.114L102.785 183.989H91.7358Z" fill="black"/>
<g opacity="0.1">
<path d="M180.198 155.315C180.27 155.098 180.309 154.851 180.477 154.697C180.597 154.608 180.733 154.546 180.878 154.513C181.664 154.265 182.471 153.807 182.734 153.024C182.794 152.865 182.808 152.693 182.774 152.527C182.756 152.449 182.723 152.375 182.677 152.309C182.976 152.437 183.237 152.612 183.311 152.917C183.343 153.083 183.329 153.255 183.268 153.414C183.008 154.195 182.198 154.655 181.414 154.903C181.269 154.934 181.132 154.997 181.014 155.087C180.843 155.241 180.804 155.487 180.733 155.704C180.661 155.921 180.498 156.155 180.27 156.144C180.042 156.133 179.932 155.925 179.787 155.75C179.987 155.725 180.13 155.515 180.198 155.315Z" fill="black"/>
<path d="M176.761 157.55C177.705 157.636 178.078 156.778 178.23 155.983C178.255 155.771 178.321 155.566 178.425 155.379C178.479 155.285 178.562 155.211 178.661 155.167C178.76 155.124 178.87 155.113 178.976 155.136C179.15 155.189 179.262 155.362 179.381 155.504C179.297 155.512 179.216 155.539 179.144 155.584C179.072 155.628 179.011 155.689 178.966 155.761C178.863 155.948 178.797 156.153 178.772 156.366C178.623 157.16 178.249 158.02 177.303 157.932C176.928 157.892 176.583 157.713 176.333 157.43C176.469 157.493 176.613 157.534 176.761 157.55Z" fill="black"/>
</g>
<path d="M42.3323 194.603L45.8466 192.533C45.3703 191.722 44.7629 190.995 44.049 190.382L37.4189 192.447L42.6224 189.388C41.3361 188.682 39.8886 188.324 38.4222 188.349C36.9557 188.374 35.5211 188.78 34.2593 189.529C32.9975 190.278 31.9522 191.342 31.2262 192.618C30.5001 193.894 30.1184 195.337 30.1187 196.806C30.1187 201.476 33.8992 201.639 38.5646 201.639C43.2301 201.639 47.0106 201.476 47.0106 196.806C47.0096 195.623 46.7593 194.454 46.2762 193.375L42.3323 194.603Z" fill="#10B6E8"/>
<path opacity="0.1" d="M43.2264 199.144C42.8524 198.768 42.4344 198.439 41.9815 198.164C41.3426 197.739 40.6834 197.305 39.9306 197.162C39.2696 197.035 38.5884 197.142 37.9109 197.105C36.7419 197.033 35.6415 196.528 34.8245 195.688C34.3452 195.191 33.967 194.584 33.3905 194.2C32.768 193.792 31.9785 193.704 31.2404 193.805C31.0264 193.836 30.8143 193.88 30.6051 193.935C30.2738 194.856 30.1048 195.827 30.1057 196.805C30.1057 201.475 33.8862 201.639 38.5517 201.639C40.8156 201.639 42.8702 201.6 44.3868 201.027L44.1334 200.552C43.8917 200.046 43.587 199.573 43.2264 199.144Z" fill="black"/>
<path d="M118.196 206.427L113.534 203.682C114.166 202.605 114.972 201.64 115.921 200.828L124.714 203.566L117.823 199.51C119.529 198.575 121.448 198.1 123.393 198.132C125.337 198.165 127.24 198.704 128.913 199.697C130.586 200.689 131.973 202.101 132.936 203.793C133.898 205.485 134.405 207.399 134.405 209.346C134.405 215.54 129.39 215.755 123.205 215.755C117.019 215.755 112.004 215.54 112.004 209.346C112.003 207.779 112.33 206.229 112.965 204.796L118.196 206.427Z" fill="#10B6E8"/>
<path opacity="0.1" d="M117.008 212.448C117.504 211.949 118.059 211.513 118.66 211.148C119.507 210.585 120.382 210.012 121.379 209.82C122.255 209.653 123.159 209.795 124.049 209.743C125.599 209.648 127.059 208.979 128.144 207.866C128.779 207.206 129.28 206.395 130.046 205.893C130.87 205.342 131.917 205.233 132.895 205.369C133.18 205.41 133.462 205.467 133.74 205.542C134.179 206.762 134.402 208.049 134.401 209.346C134.401 215.54 129.387 215.755 123.201 215.755C120.199 215.755 117.474 215.706 115.462 214.944L115.798 214.316C116.148 213.659 116.505 212.999 117.008 212.448Z" fill="black"/>
</g>
<path d="M202.151 190.489C202.215 191.115 202.449 191.611 202.812 192.215C204.346 194.719 206.882 196.252 208.715 197.136C207.99 199.446 207.117 202.77 206.477 206.827C205.88 210.734 205.177 215.288 206.094 215.59C206.413 215.698 207.351 215.396 216.068 197.913C217.283 195.475 218.284 193.446 218.945 192.064C214.299 189.949 209.674 187.812 205.028 185.697C204.58 186.043 201.916 188.007 202.151 190.489Z" fill="#111314" stroke="#111314" stroke-width="2" stroke-miterlimit="10"/>
<path d="M192.432 142.746C188.511 145.509 185.974 148.185 183.715 150.602C182.799 151.574 178.409 156.3 173.784 163.725C171.738 167.006 170.224 169.898 169.18 172.078C169.308 172.963 169.606 174.236 170.395 175.51C171.269 176.934 172.249 177.56 173.784 178.941C175.659 180.625 176.341 181.618 177.428 182.74C179.538 184.942 182.501 186.603 188.34 189.863C195.672 193.942 199.614 195.431 200.829 195.884C202.321 196.424 203.579 196.834 204.474 197.115C204.9 195.107 205.411 192.971 206.051 190.726C206.626 188.719 207.244 186.841 207.862 185.093C203.323 181.726 198.655 177.949 193.924 173.675C192.283 172.207 190.706 170.718 189.193 169.25C190.727 167.373 192.88 164.912 195.608 162.257C196.396 161.48 198.059 159.883 200.083 158.2C202.641 156.106 206.498 153.3 211.827 150.71C212.743 144.516 211.656 138.732 208.31 136.854C204.133 134.523 197.782 138.991 192.432 142.746Z" fill="#F7FAFC"/>
<path d="M188.127 145.962C180.582 152.437 174.338 160.444 169.905 169.401C169.457 170.329 168.818 171.365 168.733 172.401C168.647 173.502 169.308 174.344 169.905 175.186C171.333 177.15 172.952 178.984 174.679 180.689C178.345 184.251 182.564 187.186 186.997 189.668C192.453 192.733 198.229 195.172 203.983 197.589C204.367 197.74 204.538 197.114 204.154 196.963C194.734 192.992 185.122 188.934 177.258 182.179C175.489 180.646 173.805 179.006 172.292 177.215C171.503 176.265 170.715 175.294 170.033 174.279C169.606 173.653 169.287 173.071 169.393 172.272C169.5 171.495 169.947 170.761 170.288 170.049C172.334 165.84 174.785 161.847 177.599 158.113C180.817 153.818 184.504 149.912 188.574 146.437C188.894 146.156 188.447 145.703 188.127 145.962Z" fill="#111314"/>
<path d="M206.2 153.408C198.89 158.2 192.496 164.264 187.317 171.344C187.082 171.689 187.637 172.013 187.871 171.667C192.986 164.674 199.316 158.674 206.519 153.948C206.86 153.753 206.541 153.192 206.2 153.408Z" fill="#111314"/>
<path d="M188.83 169.575C194.819 175.057 200.978 180.323 207.33 185.352C207.649 185.611 208.097 185.158 207.777 184.899C201.426 179.87 195.245 174.604 189.278 169.121C188.98 168.841 188.532 169.294 188.83 169.575Z" fill="#111314"/>
<path d="M207.351 185.266C206.008 189.108 204.964 193.036 204.197 197.029C204.111 197.439 204.729 197.612 204.815 197.201C205.582 193.209 206.647 189.28 207.969 185.439C208.097 185.05 207.479 184.877 207.351 185.266Z" fill="#111314"/>
<path opacity="0.11" d="M200.68 150.991C197.739 151.25 195.522 153.43 188.681 163.057C186.06 166.747 183.864 169.963 182.181 172.51C184.61 174.237 186.528 175.661 187.743 176.589C194.542 181.748 197.398 184.64 203.173 187.791C204.431 188.482 205.475 188.978 206.093 189.259C206.583 187.899 207.074 186.539 207.543 185.179C205.923 183.755 204.303 182.352 202.662 180.927C198.144 177.042 193.668 173.287 189.214 169.639C191.068 167.006 192.816 165.021 194.094 163.661C197.867 159.668 201.618 156.97 204.537 154.898C205.539 154.186 206.392 153.625 206.946 153.258C204.196 151.121 202.044 150.862 200.68 150.991Z" fill="#636E72"/>
<path opacity="0.08" d="M201.533 156.624C199.7 157.056 197.249 157.897 194.755 159.581C188.66 163.703 186.614 170.006 186.017 172.164C189.299 174.754 192.688 177.366 196.204 179.977C199.614 182.524 203.003 184.941 206.307 187.272C206.797 186.56 207.287 185.826 207.756 185.114C203.216 181.769 198.506 177.905 193.796 173.481C192.304 172.099 190.876 170.696 189.512 169.315C190.258 168.322 191.068 167.308 191.921 166.272C195.118 162.43 198.4 159.257 201.533 156.624Z" fill="#636E72"/>
<path d="M241.877 183.43C244.136 185.589 246.417 187.768 248.676 189.927C248.079 203.697 249.208 206.934 250.402 207.172C252.256 207.539 255.432 201.042 256.817 195.927C257.861 192.042 257.968 188.632 257.861 186.322C254.323 183.128 250.786 179.934 247.248 176.718C245.457 178.962 243.667 181.207 241.877 183.43Z" fill="#111314" stroke="#111314" stroke-width="2" stroke-miterlimit="10"/>
<path d="M197.526 144.602C197.717 148.185 200.19 150.365 200.19 150.365C201.724 151.725 203.451 152.092 204.303 152.2C204.985 152.48 205.667 152.783 206.37 153.063C207.436 154.617 209.013 156.819 211.102 159.322C213.872 162.689 217.602 166.704 226.724 174.301C231.221 178.035 237.018 182.632 244.03 187.683C245.031 187.186 246.225 186.453 247.418 185.373C250.04 183.021 251.254 180.28 251.809 178.726C250.572 177.517 248.74 175.704 246.608 173.459C237.146 163.553 230.837 155.07 226.02 148.552C222.845 144.257 218.774 138.538 214.277 131.631C203.983 134.48 197.27 140.005 197.526 144.602Z" fill="#F7FAFC"/>
<path d="M200.829 151.185C202.534 151.79 204.218 152.373 205.923 152.977C206.306 153.106 206.477 152.48 206.093 152.351C204.388 151.747 202.705 151.164 201 150.56C200.616 150.43 200.445 151.056 200.829 151.185Z" fill="#111314"/>
<path d="M205.22 152.33C213.233 163.489 223.612 172.51 234.375 180.863C237.465 183.259 240.598 185.633 243.731 187.986C244.072 188.245 244.371 187.662 244.051 187.424C233.267 179.331 222.419 171.129 213.254 161.158C210.59 158.265 208.097 155.201 205.795 152.006C205.539 151.682 204.985 152.006 205.22 152.33Z" fill="#111314"/>
<path d="M217.794 137.286C225.339 149.006 233.842 160.056 243.22 170.33C245.927 173.308 248.719 176.201 251.553 179.028C251.851 179.33 252.299 178.855 252.001 178.575C242.133 168.776 233.096 158.135 224.998 146.804C222.696 143.588 220.479 140.308 218.327 136.962C218.114 136.617 217.56 136.941 217.794 137.286Z" fill="#111314"/>
<path d="M251.191 178.617C249.955 182.33 247.568 185.783 243.966 187.423C243.582 187.596 243.923 188.157 244.285 187.985C248.036 186.28 250.509 182.654 251.787 178.79C251.937 178.402 251.319 178.229 251.191 178.617Z" fill="#111314"/>
<path opacity="0.09" d="M217.815 136.941C216.6 135.279 215.577 133.919 214.895 133.034C214.213 134.308 213.275 136.444 213.19 139.099C212.998 145.099 217.346 147.668 229.814 161.654C235.249 167.74 238.126 171.409 245.138 178.661C246.779 180.345 248.164 181.748 249.166 182.741C249.933 181.381 250.7 180.021 251.489 178.661C244.733 171.798 239.383 165.603 235.376 160.704C231.519 155.977 228.066 151.747 224.507 146.481C223.591 145.164 221.268 141.646 217.815 136.941Z" fill="#636E72"/>
<path opacity="0.09" d="M221.587 143.005C221.886 144.494 222.504 147.019 223.719 149.955C227.235 158.329 232.435 161.869 241.792 172.337C243.582 174.344 246.353 177.517 249.592 181.617C250.338 180.538 251.084 179.481 251.83 178.402C251.148 177.754 250.061 176.74 248.74 175.445C246.31 173.07 239.724 166.444 227.15 150.278C225.786 148.552 223.868 146.048 221.587 143.005Z" fill="#636E72"/>
<path d="M129.901 119.113C129.454 119.372 128.623 119.825 128.452 120.775C128.239 121.832 128.985 122.695 129.092 122.803C128.964 122.954 128.58 123.408 128.537 124.098C128.495 125.242 129.496 125.911 129.539 125.955C129.496 125.998 128.878 126.645 129.092 127.53C129.262 128.286 129.923 128.609 130.008 128.631C129.965 128.76 129.816 129.322 130.093 129.84C130.519 130.617 131.542 130.573 131.649 130.573C132.374 130.53 133.056 130.034 133.375 129.278C133.78 129.516 134.846 130.077 136.295 129.926C137.276 129.818 138 129.429 138.384 129.192C139.151 130.552 140.345 132.386 142.113 134.264C143.669 135.904 146.568 138.991 150.873 140.264C156.244 141.861 160.996 139.789 163.724 138.602C171.056 135.408 174.7 129.537 176.043 127.336C178.302 123.58 179.091 120.364 179.773 117.451C180.881 112.832 180.497 111.019 180.135 109.961C179.922 109.314 178.664 105.601 175.766 105.17C173.4 104.803 171.439 106.853 171.205 107.112C170.395 107.976 169.969 109.12 169.116 111.364C168.69 112.508 168.413 113.371 168.285 113.76C166.9 118.314 166.197 120.58 166.005 121.055C165.493 122.35 164.278 125.307 161.359 127.616C158.567 129.818 155.647 130.293 154.347 130.487C152.386 130.768 149.978 131.113 147.42 129.84C144.564 128.415 143.286 125.825 142.945 125.134C141.922 122.998 141.73 120.623 141.581 118.94C141.389 116.782 141.538 115.098 140.302 113.76C140.067 113.523 139.513 112.918 138.938 113.026C138.107 113.199 137.638 114.818 137.212 116.35C136.849 117.645 136.956 117.796 136.657 118.098C136.039 118.724 135.251 118.4 132.544 118.551C130.967 118.659 130.413 118.832 129.901 119.113Z" fill="#F7FAFC"/>
<path d="M134.313 118.185C132.011 117.753 127.962 118.358 128.282 121.552C128.559 124.423 131.926 124.919 133.951 123.667C134.292 123.451 133.972 122.89 133.631 123.106C131.947 124.142 128.9 123.861 128.9 121.271C128.9 118.768 132.374 118.487 134.142 118.811C134.547 118.897 134.718 118.271 134.313 118.185Z" fill="#111314"/>
<path d="M128.835 122.61C126.533 125.459 132.074 129.041 133.716 125.459C133.886 125.092 133.332 124.746 133.161 125.135C131.883 127.897 127.62 125.135 129.304 123.063C129.56 122.761 129.112 122.286 128.835 122.61Z" fill="#111314"/>
<path d="M128.964 125.501C128.473 126.624 128.814 128.048 129.944 128.631C131.052 129.214 132.437 128.674 133.013 127.595C133.205 127.228 132.651 126.904 132.459 127.271C132.033 128.027 131.073 128.458 130.264 128.07C129.454 127.681 129.155 126.624 129.518 125.825C129.688 125.458 129.134 125.134 128.964 125.501Z" fill="#111314"/>
<path d="M129.475 128.394C129.39 129.537 130.051 130.573 131.201 130.811C132.267 131.027 133.247 130.314 133.61 129.343C133.759 128.955 133.141 128.782 132.992 129.171C132.715 129.904 131.947 130.379 131.18 130.142C130.392 129.904 130.072 129.171 130.115 128.394C130.136 127.983 129.496 127.983 129.475 128.394Z" fill="#111314"/>
<path d="M131.5 121.336C132.054 121.271 132.629 121.292 133.098 121.616C133.546 121.918 133.802 122.523 133.546 123.019C133.354 123.386 133.908 123.71 134.1 123.343C134.441 122.674 134.292 121.897 133.78 121.357C133.205 120.731 132.288 120.602 131.478 120.688C131.095 120.753 131.095 121.4 131.5 121.336Z" fill="#111314"/>
<path d="M133.482 129.775C134.59 129.365 135.656 130.293 136.806 130.163C137.68 130.055 138.448 129.58 139.172 129.149C139.513 128.933 139.193 128.372 138.852 128.588C137.766 129.257 136.828 129.732 135.528 129.343C134.739 129.106 134.121 128.847 133.311 129.149C132.928 129.3 133.077 129.926 133.482 129.775Z" fill="#111314"/>
<path d="M134.142 118.745C135.251 119.134 136.743 119.198 137.361 117.968C137.702 117.277 137.488 116.436 137.638 115.702C137.808 114.709 138.362 113.889 139.13 113.263C139.449 113.004 139.002 112.551 138.682 112.81C137.851 113.5 137.254 114.45 137.041 115.529C136.934 116.134 137.084 116.846 136.913 117.429C136.529 118.594 135.251 118.443 134.356 118.119C133.929 117.99 133.759 118.616 134.142 118.745Z" fill="#111314"/>
<path d="M138.661 113.306C140.472 113.544 140.707 116.63 141.005 118.033C141.368 119.868 141.559 121.724 141.9 123.558C142.454 126.494 144.138 128.825 146.824 130.141C149.637 131.501 152.834 131.436 155.775 130.616C158.801 129.753 161.934 128.199 163.895 125.63C164.151 125.307 163.703 124.853 163.447 125.177C161.401 127.854 158.077 129.429 154.88 130.185C151.661 130.94 148.145 130.659 145.46 128.544C142.561 126.278 142.497 122.868 141.922 119.479C141.645 117.882 141.41 116.155 140.835 114.645C140.472 113.695 139.897 112.832 138.853 112.68C138.426 112.616 138.256 113.242 138.661 113.306Z" fill="#111314"/>
<path d="M138.192 129.581C140.77 132.775 143.264 136.423 146.674 138.776C150.02 141.063 154.155 141.301 158.034 140.653C165.919 139.315 172.611 133.898 176.448 126.905C178.643 122.933 179.943 118.53 180.518 114.019C180.561 113.609 179.921 113.609 179.879 114.019C178.898 121.725 175.574 129.279 169.649 134.373C166.729 136.876 163.255 138.754 159.525 139.66C155.668 140.61 151.214 140.74 147.697 138.646C143.946 136.423 141.325 132.452 138.639 129.106C138.383 128.804 137.936 129.257 138.192 129.581Z" fill="#111314"/>
<path d="M176.064 105.084C174.295 104.371 172.42 105.299 171.183 106.616C169.734 108.127 169.01 110.134 168.477 112.12C167.859 114.429 167.305 116.717 166.431 118.94C165.493 121.336 164.3 123.602 162.936 125.76C162.701 126.106 163.255 126.43 163.49 126.084C165.685 122.652 167.369 118.919 168.413 114.969C168.967 112.897 169.329 110.738 170.352 108.861C171.375 106.961 173.549 104.76 175.894 105.71C176.277 105.861 176.448 105.235 176.064 105.084Z" fill="#111314"/>
<path d="M132.459 128.048C133.056 128.092 132.928 129.106 132.821 129.473C132.693 129.861 133.312 130.034 133.439 129.646C133.716 128.825 133.525 127.487 132.459 127.401C132.054 127.379 132.054 128.027 132.459 128.048Z" fill="#111314"/>
<path d="M132.821 126.062C132.949 126.58 132.757 127.12 132.352 127.422C132.011 127.66 132.331 128.221 132.672 127.983C133.333 127.509 133.652 126.688 133.439 125.89C133.354 125.48 132.736 125.652 132.821 126.062Z" fill="#111314"/>
<path d="M133.183 123.818C133.759 124.099 133.375 125.027 133.098 125.394C132.842 125.718 133.396 126.041 133.652 125.718C134.142 125.07 134.398 123.689 133.503 123.257C133.141 123.085 132.821 123.646 133.183 123.818Z" fill="#111314"/>
<path opacity="0.11" d="M128.793 123.904C129.134 123.71 129.688 124.919 131.116 125.523C131.649 125.739 132.31 125.89 135.336 125.523C136.316 125.393 137.595 125.221 139.13 124.94C139.428 126.17 140.046 128.027 141.304 129.947C141.836 130.746 143.989 133.854 148.145 135.689C152.599 137.674 156.627 137.005 158.183 136.725C159.504 136.487 163.192 135.775 166.474 132.883C168.669 130.962 170.075 128.631 172.143 122.566C173.549 118.444 175.254 112.724 176.512 105.623C177.364 106.508 178.686 108.105 179.432 110.479C179.794 111.623 180.135 113.307 179.858 115.94C179.282 121.616 176.469 126.343 174.764 128.76C172.995 131.286 169.841 135.645 164.001 138.343C163.213 138.71 158.758 140.674 153.089 140.415C151.789 140.351 150.596 140.286 149.125 139.746C147.527 139.164 145.928 137.653 142.753 134.674C141.431 133.444 140.131 132.149 138.81 130.271C138.554 129.904 138.341 129.581 138.192 129.365C137.744 129.667 137.084 130.012 136.338 129.926C135.336 129.84 134.995 129.106 134.164 129.235C133.439 129.343 133.439 129.947 132.565 130.271C131.883 130.509 130.924 130.487 130.285 129.991C129.816 129.624 129.752 129.214 129.219 126.883C128.708 124.595 128.559 124.034 128.793 123.904Z" fill="#636E72"/>
<path d="M173.4 105.58C173.698 107.652 174.274 110.932 175.467 114.817C177.982 122.933 180.945 126.408 184.866 135.818C185.846 138.171 187.232 141.71 188.596 146.178C191.132 147.02 195.842 148.164 201.596 147.149C211.059 145.487 216.622 139.142 218.177 137.221C214.938 131.178 211.677 124.638 208.502 117.623C205.347 110.673 202.598 103.983 200.211 97.6155C198.208 96.8601 192.965 95.1766 186.528 96.7737C178.835 98.6515 174.593 103.983 173.4 105.58Z" fill="#F7FAFC" stroke="#111314"/>
<path opacity="0.13" d="M192.112 96.04C192.922 97.7667 193.945 100.119 195.032 102.968C198.442 112.033 199.678 119.48 200.126 122.134C201.085 127.616 201.916 136.12 200.552 147.041C203.514 146.955 205.71 146.264 207.095 145.725C211.059 144.128 213.936 141.343 216.707 138.646C217.346 138.041 217.837 137.502 218.156 137.178C217.24 135.581 215.854 133.077 214.235 129.947C209.546 120.926 206.477 113.436 203.898 107.091C202.982 104.868 201.724 101.673 200.254 97.8099C199.081 97.3135 197.611 96.817 195.885 96.4933C194.478 96.2127 193.199 96.0832 192.112 96.04Z" fill="#636E72"/>
<path opacity="0.1" d="M206.221 113.156C206.584 117.02 206.882 120.257 207.095 122.588C207.905 131.718 208.054 134.243 208.118 135.862C208.288 139.682 208.289 142.812 208.267 144.862C209.589 144.387 211.294 143.61 213.063 142.358C215.279 140.783 216.771 139.056 217.73 137.783C213.894 129.56 210.057 121.358 206.221 113.156Z" fill="#636E72"/>
<path d="M191.089 92.2415C190.066 92.5437 189.512 94.0329 189.171 95.5654C188.489 98.6949 188.852 101.371 188.98 102.299C189.598 106.422 190.706 109.508 191.068 110.523C192.006 113.026 193.285 116.372 196.077 119.933C197.675 121.962 199.039 123.71 201.554 125.005C203.024 125.782 206.072 127.358 209.205 126.106C209.354 126.041 212.423 124.768 213.212 122.048C213.382 121.444 213.425 120.839 213.489 119.652C213.532 118.94 213.553 117.688 213.404 116.134C213.191 114.084 212.743 112.487 212.402 111.343C210.889 106.271 210.143 103.745 208.566 101.544C207.266 99.7309 205.795 97.6589 203.365 97.3784C203.152 97.3568 200.701 97.1194 199.252 98.846C198.25 100.055 198.314 101.544 198.336 102.537C198.4 104.436 199.124 105.796 200.254 107.889C201.383 109.961 201.831 110.22 203.174 112.681C205.007 116.048 204.815 116.372 204.729 116.458C204.367 116.782 202.918 115.767 202.598 115.53C202.3 115.314 201.874 115.012 201.341 114.429C199.678 112.551 198.698 109.724 198.698 109.724C197.824 107.976 196.673 105.494 195.501 102.343C195.863 100.94 196.418 99.9468 196.865 99.2993C197.59 98.2633 198.4 97.551 198.591 96.256C198.677 95.7596 198.634 95.3279 198.591 95.0474C198.954 94.702 199.06 94.184 198.869 93.7524C198.634 93.2559 198.059 93.0185 197.505 93.1912C197.505 93.1264 197.441 92.5653 196.95 92.2631C196.545 92.0041 195.991 92.0473 195.586 92.3494C194.947 91.853 194.414 91.7235 194.031 91.7019C193.583 91.6804 193.37 91.7883 192.304 91.9825C191.409 92.2199 191.345 92.1768 191.089 92.2415Z" fill="#F7FAFC"/>
<path d="M196.439 101.349C197.014 99.903 197.739 98.5864 198.527 97.2482C198.932 96.5576 199.401 95.6942 198.847 94.9388C197.59 93.2985 195.885 95.3921 195.352 96.4712C195.16 96.8381 195.714 97.1619 195.906 96.795C196.226 96.1475 196.588 95.3489 197.334 95.1331C197.547 95.0251 197.76 95.0251 197.995 95.0899C198.058 95.5863 198.122 96.0827 198.208 96.5791C198.144 96.8597 197.76 97.313 197.611 97.572C196.929 98.7159 196.375 99.9246 195.863 101.155C195.671 101.565 196.29 101.716 196.439 101.349Z" fill="#111314"/>
<path d="M189.47 104.133C189.15 101.824 189.107 99.4711 189.363 97.1617C189.597 95.0465 190.045 91.8306 192.943 92.4349C193.348 92.5213 193.519 91.8954 193.114 91.809C190.834 91.3342 189.406 92.9745 189.022 95.0681C188.447 98.1114 188.425 101.219 188.851 104.306C188.915 104.716 189.533 104.543 189.47 104.133Z" fill="#111314"/>
<path d="M192.133 94.1836C192.368 93.6225 192.624 93.0397 193.071 92.6081C193.838 91.8526 194.819 92.2627 195.65 92.6728C196.012 92.8671 196.332 92.3059 195.97 92.1116C195.096 91.6584 194.115 91.2267 193.178 91.7231C192.368 92.1548 191.942 93.0397 191.601 93.8383C191.43 94.2484 191.984 94.5721 192.133 94.1836Z" fill="#111314"/>
<path d="M194.03 94.378C194.819 93.342 195.863 92.2628 197.227 93.083C197.589 93.2988 197.909 92.7377 197.547 92.5218C195.927 91.5506 194.563 92.6082 193.583 93.9032C193.327 94.2485 193.775 94.7018 194.03 94.378Z" fill="#111314"/>
<path d="M195.459 94.8528C195.864 94.4211 196.29 93.9679 196.844 93.752C197.505 93.4715 198.719 93.6441 198.464 94.6585C198.378 95.0686 198.975 95.2413 199.082 94.8312C199.295 93.9463 198.719 93.1261 197.846 92.9751C196.673 92.7592 195.757 93.6226 195.011 94.3995C194.734 94.7017 195.182 95.155 195.459 94.8528Z" fill="#111314"/>
<path d="M195.714 101.025C194.968 102.644 195.884 104.285 196.524 105.774C197.419 107.867 198.357 109.961 199.508 111.903C200.999 114.45 204.239 119.026 207.628 116.414C207.947 116.155 207.628 115.594 207.308 115.853C204.047 118.378 201.021 113.285 199.699 110.932C198.932 109.551 198.25 108.126 197.611 106.68C196.971 105.234 195.543 102.968 196.289 101.349C196.439 100.982 195.884 100.637 195.714 101.025Z" fill="#111314"/>
<path d="M198.463 99.3849C196.588 105.838 202.342 110.846 204.452 116.371C204.601 116.759 205.22 116.587 205.07 116.198C203.024 110.846 197.27 105.795 199.082 99.5575C199.188 99.1475 198.57 98.9748 198.463 99.3849Z" fill="#111314"/>
<path d="M188.83 103.961C189.917 110.004 192.453 115.724 196.183 120.58C197.994 122.911 200.062 125.177 202.917 126.127C205.347 126.926 208.693 127.336 210.952 125.846C213.424 124.249 213.744 120.99 213.851 118.292C213.872 117.882 213.233 117.882 213.211 118.292C213.083 121.767 212.316 125.609 208.246 126.105C204.495 126.559 200.999 125.048 198.463 122.307C193.753 117.235 190.663 110.609 189.427 103.788C189.384 103.378 188.766 103.551 188.83 103.961Z" fill="#111314"/>
<path d="M198.89 100.248C199.572 97.4856 202.854 97.2913 204.9 98.5C206.988 99.7303 208.416 101.953 209.461 104.09C210.548 106.335 211.336 108.752 212.103 111.126C212.977 113.846 213.638 116.695 213.19 119.565C213.126 119.975 213.744 120.148 213.808 119.738C214.32 116.457 213.51 113.285 212.466 110.177C211.507 107.349 210.569 104.435 208.97 101.889C207.628 99.7303 205.624 97.4856 202.982 97.1187C200.936 96.8381 198.762 97.9604 198.25 100.076C198.165 100.486 198.783 100.658 198.89 100.248Z" fill="#111314"/>
<path opacity="0.1" d="M191.878 91.9602C193.583 91.2695 195.245 92.0249 195.65 92.2192C194.457 93.8163 191.92 97.6798 191.707 103.14C191.388 110.91 195.97 116.069 197.59 117.903C199.678 120.256 202.406 123.321 205.923 122.889C207.905 122.652 209.78 121.314 210.739 119.608C211.698 117.903 211.634 116.047 210.484 111.256C208.715 104.004 206.775 99.7518 207.052 99.6223C207.329 99.4928 209.631 103.14 211.357 107.716C211.528 108.191 212.956 112.033 213.467 117.321C213.787 120.58 213.51 121.918 212.849 123.105C211.826 124.94 210.164 125.76 209.525 126.04C206.946 127.141 204.473 126.364 203.301 125.954C199.103 124.529 196.865 121.076 194.606 117.601C191.132 112.227 190.173 107.63 189.256 103.205C188.617 100.14 188.191 96.579 189.789 93.9674C190.066 93.4278 190.684 92.4566 191.878 91.9602Z" fill="#636E72"/>
<path d="M161.102 81.4501C161.038 82.4646 161.401 83.6085 162.168 85.8963C163.021 88.4647 163.937 91.2058 166.239 93.9037C167.709 95.6304 169.5 97.7456 172.547 98.3499C174.956 98.8247 176.98 98.1341 178.003 97.7024C178.238 98.3499 178.557 99.0406 178.962 99.7528C180.028 101.652 181.349 102.99 182.394 103.875C183.182 103.789 184.717 103.465 186.038 102.256C187.061 101.307 187.551 100.184 187.85 99.4506C188.212 98.5873 188.404 97.8319 188.489 97.2923C187.85 96.9038 187.146 96.3858 186.464 95.6736C184.333 93.4721 183.758 90.8605 183.587 89.6086C183.864 87.1266 184.163 84.6229 184.44 82.1408C184.759 82.184 185.441 82.2271 186.038 81.8171C186.699 81.3638 186.827 80.6084 186.997 79.7666C187.168 78.9249 187.359 77.8457 186.891 76.6155C186.677 76.0759 185.995 74.3492 184.546 74.2413C183.566 74.155 182.564 74.8241 181.989 75.8601C180.753 74.6514 178.11 72.5146 174.401 72.1693C167.986 71.565 161.465 76.6371 161.102 81.4501Z" fill="#F7FAFC"/>
<path d="M170.565 91.3132C170.395 91.7664 170.885 92.4139 171.247 92.7377C172.249 93.6226 174.018 93.5794 175.297 92.9751C177.087 92.1333 177.662 90.3203 177.918 89.5002C178.216 88.5937 178.6 87.4066 177.982 86.349C177.449 85.4209 176.511 85.0972 176.149 84.9893C175.787 85.7447 175.51 86.3058 175.297 86.6728C175.041 87.126 174.956 87.2771 174.806 87.6224C174.593 88.0757 174.572 88.2483 174.274 88.6584C173.059 90.2556 171.396 90.8383 171.396 90.8383C171.013 90.9247 170.672 91.011 170.565 91.3132Z" fill="#111314"/>
<path d="M161.443 84.0395C163.127 89.3706 165.237 95.5866 170.672 98.0903C172.888 99.1047 175.531 99.2989 177.79 98.3061C180.326 97.2054 181.818 94.6585 182.841 92.198C184.184 88.9821 184.759 85.4856 184.546 82.0107C184.525 81.6006 183.885 81.6006 183.907 82.0107C184.12 85.6367 183.48 89.2843 181.967 92.5865C180.497 95.8024 178.174 98.3708 174.444 98.3277C166.942 98.2413 163.894 89.867 162.019 83.8884C161.934 83.4568 161.337 83.6294 161.443 84.0395Z" fill="#111314"/>
<path d="M182.223 76.4638C182.245 75.1688 183.566 74.3918 184.738 74.7587C185.825 75.1256 186.507 76.2047 186.742 77.2839C186.955 78.3199 186.869 79.5286 186.55 80.5214C186.294 81.3416 185.974 81.7733 184.994 81.7733C184.653 81.7733 184.312 81.6438 183.95 81.6438C183.545 81.6438 183.545 82.2913 183.95 82.2913C184.674 82.2913 185.378 82.6366 186.081 82.2697C186.592 82.0107 186.891 81.4927 187.104 80.9531C187.658 79.4854 187.722 77.4998 187.019 76.0537C186.443 74.8666 185.207 73.8522 183.843 74.0033C182.586 74.1328 181.605 75.1687 181.584 76.4422C181.584 76.8738 182.223 76.8738 182.223 76.4638Z" fill="#111314"/>
<path d="M183.481 88.2919C183.417 91.8532 184.973 95.2634 187.743 97.4864C188.063 97.7454 188.511 97.2922 188.191 97.0332C185.548 94.918 184.056 91.7237 184.12 88.2919C184.12 87.8819 183.481 87.8819 183.481 88.2919Z" fill="#111314"/>
<path d="M177.982 97.961C178.792 100.227 180.113 102.213 181.882 103.81C182.181 104.091 182.649 103.637 182.33 103.357C180.625 101.824 179.367 99.9467 178.579 97.7883C178.451 97.3998 177.833 97.5725 177.982 97.961Z" fill="#111314"/>
<path d="M182.032 104.026C183.864 104.695 185.697 103.119 186.827 101.803C188.02 100.421 189.065 98.6298 188.553 96.7521C188.447 96.342 187.829 96.5146 187.935 96.9247C188.361 98.5651 187.402 100.162 186.358 101.349C185.378 102.472 183.779 103.982 182.181 103.4C181.818 103.249 181.648 103.875 182.032 104.026Z" fill="#111314"/>
<path d="M163.831 81.7735C163.554 80.9749 164.193 80.1115 164.662 79.5504C165.365 78.6655 166.452 78.428 167.262 79.3345C168.2 80.3705 168.456 82.2267 168.584 83.5649C168.669 84.493 168.349 85.68 168.882 86.5002C169.457 87.3851 170.523 87.9031 171.525 88.0974C171.93 88.1837 172.1 87.5578 171.695 87.4715C171.162 87.3635 170.693 87.1909 170.225 86.8887C169.457 86.3707 169.287 85.8095 169.266 84.8815C169.244 84.0829 169.223 83.3059 169.095 82.5073C168.882 81.1907 168.52 79.5072 167.454 78.6223C166.559 77.8669 165.451 77.8885 164.577 78.6439C163.746 79.3777 162.787 80.7806 163.191 81.9245C163.362 82.3346 163.98 82.162 163.831 81.7735Z" fill="#111314"/>
<path d="M169.734 77.1118C169.883 74.5002 173.102 73.5505 174.593 75.6873C174.828 76.0326 175.382 75.7089 175.148 75.3635C173.293 72.6872 169.287 73.8311 169.095 77.1118C169.073 77.5219 169.713 77.5219 169.734 77.1118Z" fill="#111314"/>
<path d="M166.836 83.5004C166.537 83.0903 166.367 82.637 166.346 82.1406C166.175 82.227 166.026 82.3349 165.855 82.4212C166.346 82.745 166.601 83.263 166.58 83.8457C166.708 83.7378 166.857 83.6299 166.985 83.5435C166.452 83.3493 166.111 82.745 166.218 82.1838C166.069 82.2485 165.898 82.3133 165.749 82.378C166.005 82.5291 166.218 82.745 166.367 83.0255C166.431 83.155 166.473 83.2845 166.495 83.4356C166.495 83.5435 166.495 83.414 166.474 83.3709C166.431 83.2845 166.388 83.2198 166.346 83.1335C166.175 82.745 165.621 83.0903 165.791 83.4572C165.919 83.7594 166.132 84.0831 166.516 84.1047C166.836 84.1263 167.113 83.9105 167.155 83.5867C167.219 82.8745 166.665 82.1622 166.09 81.8385C165.919 81.7305 165.664 81.8169 165.621 82.0327C165.451 82.9608 165.962 83.8673 166.836 84.191C167.049 84.2558 167.241 84.0831 167.241 83.8889C167.262 83.0687 166.878 82.3349 166.196 81.9032C166.005 81.7737 165.706 81.9464 165.706 82.1838C165.728 82.7881 165.919 83.3709 166.282 83.8673C166.537 84.1695 167.092 83.8457 166.836 83.5004Z" fill="#111314"/>
<path d="M172.803 79.3342C172.696 79.2048 172.611 79.0537 172.569 78.881C172.569 78.8378 172.526 78.5788 172.569 78.5573C172.611 78.5357 172.718 78.881 172.739 78.9026C172.782 79.0753 172.76 79.2695 172.675 79.4206C172.824 79.3774 172.974 79.3343 173.123 79.3127C172.59 79.0105 172.334 78.4493 172.419 77.845C172.249 77.9313 172.1 78.0393 171.929 78.1256C172.526 78.3846 172.867 79.0105 172.718 79.658C172.846 79.5932 172.974 79.5069 173.101 79.4422C172.782 79.3342 172.526 79.0537 172.462 78.7083C172.462 78.6868 172.462 78.4925 172.441 78.4925C172.398 78.5141 172.355 78.5357 172.292 78.5573C172.313 78.6004 172.355 78.6652 172.377 78.7083C172.462 78.9458 172.462 79.1832 172.441 79.4422C172.633 79.3558 172.803 79.2911 172.995 79.2048C172.803 79.0537 172.654 78.881 172.547 78.6436C172.356 78.2767 171.801 78.6004 171.993 78.9673C172.121 79.2263 172.313 79.4637 172.547 79.658C172.782 79.8522 173.059 79.7228 173.101 79.4206C173.144 78.9889 173.101 78.4062 172.782 78.0824C172.526 77.8234 172.057 77.8018 171.887 78.1903C171.546 78.9458 172.27 79.8307 172.931 80.0681C173.101 80.1328 173.293 80.0033 173.315 79.8523C173.549 78.9458 173.101 77.9529 172.228 77.586C171.993 77.4781 171.78 77.6076 171.737 77.8666C171.631 78.6868 172.057 79.4853 172.76 79.8954C172.888 79.9817 173.123 79.9386 173.208 79.7875C173.378 79.3774 173.421 78.9673 173.272 78.5573C173.144 78.2335 172.867 77.8882 172.505 77.9313C171.567 78.0393 171.972 79.399 172.355 79.8307C172.633 80.1112 173.08 79.6364 172.803 79.3342Z" fill="#111314"/>
<path d="M178.366 97.8963C178.366 97.9179 178.366 97.9179 178.344 97.9395C178.472 97.8747 178.6 97.7884 178.728 97.7236C178.707 97.7236 178.685 97.7021 178.664 97.7021C178.728 97.8531 178.792 98.0258 178.856 98.1769C178.898 98.0906 179.474 97.81 179.644 97.6589C180.028 97.3351 180.348 96.9035 180.646 96.4934C181.307 95.6085 181.797 94.6372 182.202 93.6228C181.989 93.5581 181.797 93.5149 181.584 93.4501C180.945 95.3063 180.497 97.8963 178.707 98.9971C178.856 99.1481 179.005 99.2992 179.154 99.4503C179.58 98.8028 180.007 98.1337 180.433 97.4862C180.625 97.1841 180.177 96.8171 179.921 97.0977C179.58 97.4646 179.218 97.8531 178.877 98.2201C179.026 98.3711 179.176 98.5222 179.325 98.6733C179.644 98.2848 179.943 97.8747 180.22 97.4646C180.433 97.1625 179.964 96.7956 179.708 97.0761C179.41 97.3999 179.112 97.6373 178.728 97.8316C178.898 97.9179 179.048 98.0258 179.218 98.1121C179.218 98.0474 179.197 97.9826 179.197 97.9179C179.154 97.5078 178.515 97.5078 178.557 97.9179C178.557 97.9826 178.579 98.0474 178.579 98.1121C178.6 98.3496 178.835 98.5222 179.069 98.3927C179.495 98.1553 179.836 97.8963 180.177 97.5294C180.007 97.3999 179.836 97.2704 179.666 97.1409C179.41 97.5078 179.154 97.8747 178.877 98.2201C178.621 98.5438 179.048 98.9971 179.325 98.6733C179.666 98.3064 180.028 97.9179 180.369 97.551C180.199 97.4215 180.028 97.292 179.858 97.1625C179.431 97.81 179.005 98.4791 178.579 99.1266C178.408 99.4071 178.749 99.7309 179.026 99.5798C180.987 98.3711 181.499 95.6948 182.202 93.6444C182.33 93.2343 181.733 93.1048 181.584 93.4717C181.136 94.5725 180.561 95.6516 179.794 96.5581C179.431 96.9898 178.856 97.2272 178.515 97.6157C178.43 97.7021 178.344 97.7236 178.302 97.8316C178.195 98.0258 178.28 98.2201 178.494 98.3064C178.515 98.3064 178.536 98.328 178.557 98.328C178.728 98.3927 178.898 98.2632 178.941 98.1121C178.941 98.0906 178.941 98.0906 178.962 98.069C179.133 97.6805 178.515 97.5078 178.366 97.8963Z" fill="#111314"/>
<path d="M180.731 97.2485C180.923 97.0326 181.051 96.8168 181.115 96.5578C181.221 96.1693 180.731 96.0398 180.539 96.2988C180.092 96.9031 179.644 97.5075 179.197 98.1118C178.941 98.4355 179.495 98.7593 179.751 98.4355C180.198 97.8312 180.646 97.2269 181.094 96.6226C180.902 96.5362 180.71 96.4499 180.518 96.3636C180.475 96.5146 180.412 96.6441 180.305 96.7736C180.007 97.119 180.475 97.5722 180.731 97.2485Z" fill="#111314"/>
<path d="M170.885 91.8961C170.288 90.6874 170.927 90.2342 172.121 89.9104C172.27 89.8672 172.419 89.8457 172.547 89.7809C173.059 89.5435 173.357 89.0255 173.57 88.5291C173.911 87.7952 174.103 86.9967 174.551 86.3276C175.488 84.8815 177.151 84.9462 177.684 86.6729C178.216 88.3996 177.556 90.3205 176.426 91.6371C175.872 92.2846 175.19 92.8889 174.38 93.1695C173.677 93.4285 173.059 93.3422 172.377 93.04C171.887 92.8242 170.991 92.3925 170.864 91.8313C170.778 91.4213 170.16 91.5939 170.245 92.004C170.48 93.1263 172.142 93.817 173.144 93.9681C174.231 94.1408 175.254 93.6012 176.085 92.9105C177.939 91.3565 179.09 88.6154 178.195 86.2412C177.236 83.6728 174.636 84.6225 173.677 86.6513C173.378 87.2773 173.229 88.3348 172.739 88.7881C172.121 89.3708 171.332 89.155 170.693 89.6083C169.798 90.2558 169.883 91.3997 170.331 92.2846C170.523 92.6083 171.077 92.2846 170.885 91.8961Z" fill="#111314"/>
<path d="M170.459 91.2268C173.762 91.1405 175.361 88.0325 176.085 85.1835C176.192 84.7734 175.574 84.6008 175.467 85.0108C174.828 87.5577 173.443 90.493 170.459 90.5793C170.054 90.6009 170.054 91.2484 170.459 91.2268Z" fill="#111314"/>
<path d="M161.699 83.6943C161.316 83.9102 158.993 81.3417 158.012 77.91C157.288 75.4063 157.501 73.1832 157.757 71.7803C158.119 70.658 158.63 69.4493 159.334 68.2191C162.36 62.9527 167.134 60.4707 169.606 59.4131C169.095 59.9095 168.498 60.557 167.944 61.3772C167.177 62.4563 166.686 63.4708 166.367 64.3125C167.091 63.6866 167.923 63.0607 168.818 62.4563C170.821 61.0966 172.761 60.1253 174.444 59.4347C174.188 60.5354 173.911 61.6362 173.656 62.7153C174.252 62.37 175.084 61.8736 176.107 61.3772C177.236 60.8376 179.559 59.7153 179.922 60.2117C180.028 60.3628 179.9 60.5354 179.708 61.1613C179.453 61.9815 179.367 62.6722 179.325 63.1254C179.985 63.0175 180.731 62.9312 181.541 62.9096C182.436 62.8664 183.246 62.9096 183.971 62.9743C183.715 63.9672 183.459 64.9384 183.204 65.9313C183.715 66.1255 184.44 66.4924 185.186 67.0968C187.189 68.7587 187.765 71.0033 187.914 71.8882C188.233 74.0034 187.722 75.7732 187.338 76.7445C186.315 74.543 184.291 73.6797 183.14 74.2192C182.436 74.543 181.627 75.579 181.712 76.6366C181.733 76.874 181.797 77.0898 181.861 77.2409C181.115 76.5502 179.985 75.6222 178.515 74.7588C177.044 73.8955 175.403 72.9242 173.229 72.6437C169.137 72.1041 165.941 74.3703 165.088 74.9962C163.767 75.9459 161.614 77.4783 161.23 79.9172C160.847 81.9677 161.998 83.5432 161.699 83.6943Z" fill="#10B6E8"/>
<path opacity="0.11" d="M177.918 74.2192C178.579 75.7301 179.474 78.0827 179.964 81.0396C180.476 83.9749 181.115 87.752 179.559 91.9392C179.027 93.3637 177.769 96.1048 174.785 98.6732C175.489 98.6516 176.703 98.5221 177.982 97.8314C180.071 96.7307 180.987 94.8961 181.264 94.2486C182.266 95.2414 183.609 96.7954 184.632 98.9969C185.207 100.227 185.569 101.371 185.783 102.321C186.358 101.803 187.424 100.68 187.914 98.9106C188.106 98.2199 188.17 97.594 188.17 97.076C186.933 96.3853 186.145 95.5436 185.697 95.004C185.506 94.7666 183.609 92.3493 183.715 89.0038C183.758 87.7952 184.014 87.7736 184.205 85.9174C184.376 84.2555 184.291 82.8526 184.205 81.9245C185.292 82.3777 185.847 82.1619 186.102 82.0108C186.592 81.7087 186.72 81.1691 187.168 78.428C187.402 76.9603 187.53 76.2265 187.573 75.838C187.829 73.7444 187.956 72.6868 187.829 71.8451C187.466 69.4493 185.953 67.8522 185.442 67.3557C184.589 66.514 183.715 66.0392 183.14 65.7802C183.396 64.8737 183.63 63.9456 183.886 63.0391C182.671 64.4851 181.541 65.478 180.774 66.1255C178.856 67.6795 177.748 68.0464 176.426 69.5357C175.382 70.7012 174.785 71.8882 174.444 72.6868C175.617 73.2264 176.767 73.7228 177.918 74.2192Z" fill="#636E72"/>
<path opacity="0.17" d="M169.137 59.6504C168.413 59.9741 166.708 60.8806 165.514 62.8016C165.216 63.2764 164.555 64.4635 164.363 66.1254C164.15 67.96 164.598 69.4061 164.854 70.1183C164.939 68.3269 165.365 65.4347 167.07 62.4562C167.731 61.3339 168.455 60.4058 169.137 59.6504Z" fill="#636E72"/>
<path opacity="0.08" d="M184.205 82.0325C184.141 82.0109 184.013 82.2484 183.544 83.8887C182.905 86.1118 182.564 87.7521 182.372 88.5723C182.095 89.7594 181.626 91.4429 180.752 93.4717C182.266 93.7739 183.779 94.076 185.292 94.3566C184.738 93.1264 184.077 91.3565 183.821 89.155C183.416 85.3779 184.418 82.0757 184.205 82.0325Z" fill="#636E72"/>
<defs>
<clipPath id="clip0_107_15791">
<rect width="201" height="145" fill="white" transform="translate(10.9756 75.0479)"/>
</clipPath>
</defs>
</svg>
