<svg width="304" height="260" viewBox="0 0 304 260" fill="none" xmlns="http://www.w3.org/2000/svg">
<g opacity="0.6">
<path d="M24.9745 88.3444C28.7682 85.2148 33.9045 84.7616 38.5932 85.6249C43.6017 86.5314 48.1625 88.9703 52.7873 91.0207C57.5613 93.1575 62.4206 94.6899 67.6635 94.9489C72.885 95.2295 78.1066 94.4741 83.179 93.1791C93.7713 90.4812 103.49 85.3012 113.656 81.3946C118.75 79.4305 124.014 77.7254 129.427 76.9484C132.368 76.5168 135.331 76.4088 138.293 76.7326C141.106 77.0348 143.856 77.7038 146.605 78.3945C152.679 79.9269 158.732 81.2651 164.955 82.0205C171.37 82.7975 177.849 83.0565 184.307 82.8407C184.712 82.8191 184.712 82.1716 184.307 82.1932C172.585 82.6248 160.863 81.3514 149.482 78.4808C144.047 77.0995 138.655 75.675 133.008 75.9556C127.53 76.2362 122.117 77.7038 116.959 79.4953C106.623 83.0997 96.9042 88.3876 86.4185 91.6035C81.0903 93.2222 75.5704 94.3446 69.9865 94.3662C64.3174 94.3877 58.9893 93.0496 53.8103 90.7617C48.6953 88.5171 43.6869 85.7328 38.1243 84.8695C33.393 84.1357 28.3419 84.7184 24.527 87.8696C24.2073 88.1502 24.6548 88.625 24.9745 88.3444Z" fill="#DFE6E9"/>
<path d="M139.764 68.618C154.533 75.0714 171.306 73.9923 186.417 69.3087C194.601 66.7618 202.742 63.3517 211.459 63.3732C220.24 63.3948 228.573 66.5028 237.162 67.8842C244.962 69.136 253.551 68.9849 260.243 64.2366C260.584 63.9992 260.265 63.438 259.924 63.6754C253.743 68.0568 245.9 68.4453 238.654 67.4525C230.448 66.3302 222.563 63.438 214.272 62.8337C205.982 62.2293 198.16 64.7546 190.381 67.3446C182.623 69.913 174.78 71.9203 166.617 72.3951C157.581 72.9347 148.438 71.7044 140.105 68.0568C139.721 67.8842 139.401 68.4453 139.764 68.618Z" fill="#DFE6E9"/>
<path d="M16.8331 122.425C21.5006 119.058 27.0205 116.986 32.7323 116.424C35.5882 116.144 38.4653 116.252 41.2786 116.748C44.1984 117.266 47.0117 118.259 49.8036 119.252C54.9825 121.065 60.1188 122.446 65.5748 121.173C70.2849 120.072 74.5474 117.59 78.7247 115.237C83.6478 112.453 88.7628 109.604 94.4746 109.086C94.8795 109.043 94.8795 108.395 94.4746 108.439C84.2872 109.367 76.636 117.115 67.1307 120.072C64.7223 120.827 62.2075 121.216 59.6926 121.065C56.6023 120.871 53.5972 119.899 50.6987 118.885C47.7789 117.871 44.8591 116.77 41.7901 116.187C39.1473 115.691 36.4407 115.54 33.7766 115.712C27.596 116.101 21.5645 118.237 16.5135 121.885C16.1725 122.101 16.4921 122.662 16.8331 122.425Z" fill="#DFE6E9"/>
<path d="M73.3326 130.712C81.6232 121.842 93.8139 118.216 105.6 118.108C112.441 118.043 119.261 119.036 125.932 120.482C132.283 121.842 138.442 123.611 145.006 122.726C151.869 121.798 158.284 118.82 164.422 115.69C164.784 115.496 164.465 114.935 164.102 115.129C158.263 118.108 152.189 120.935 145.688 121.971C142.364 122.489 139.018 122.446 135.693 121.906C132.326 121.367 129.043 120.46 125.697 119.748C113.507 117.158 100.527 116.057 88.5497 120.266C82.6462 122.338 77.1902 125.64 72.885 130.237C72.608 130.561 73.0555 131.014 73.3326 130.712Z" fill="#DFE6E9"/>
<path d="M172.116 137.166C175.59 138.397 179.149 137.253 182.325 135.72C185.884 133.994 189.23 131.857 192.874 130.324C196.519 128.792 200.44 127.756 204.404 128.252C208.027 128.706 211.374 130.346 214.549 132.094C217.554 133.756 220.517 135.569 223.713 136.843C227.273 138.246 231.109 138.915 234.924 138.828C242.745 138.656 249.395 134.706 256.535 132.03C263.205 129.526 272.093 128.404 277.442 134.274C277.719 134.576 278.167 134.123 277.89 133.821C273.691 129.224 266.999 128.706 261.245 129.936C253.743 131.533 247.264 136.174 239.719 137.663C235.691 138.461 231.471 138.354 227.486 137.382C223.777 136.476 220.453 134.706 217.128 132.828C214.123 131.123 211.075 129.353 207.772 128.339C204.34 127.281 200.76 127.26 197.286 128.123C193.045 129.181 189.145 131.274 185.33 133.389C181.387 135.548 176.826 138.181 172.244 136.562C171.903 136.411 171.732 137.037 172.116 137.166Z" fill="#DFE6E9"/>
<path d="M228.232 147.569C237.055 148.109 244.323 142.044 252.656 140.209C254.872 139.713 257.217 139.497 259.476 139.886C261.501 140.231 263.333 141.073 265.081 142.152C268.086 144.008 271.006 146.404 274.672 146.663C279.126 146.965 283.069 144.159 286.394 141.526C286.713 141.267 286.266 140.814 285.946 141.073C282.707 143.62 278.828 146.404 274.48 145.994C270.708 145.648 267.724 142.886 264.548 141.094C257.238 136.95 249.416 140.209 242.405 143.339C237.908 145.325 233.24 147.246 228.253 146.943C227.827 146.9 227.827 147.548 228.232 147.569Z" fill="#DFE6E9"/>
<path d="M27.063 188.837C30.1534 185.858 34.7355 184.693 38.8489 185.836C43.154 187.024 45.9246 190.779 49.3772 193.369C56.2612 198.527 65.6387 197.707 73.2046 194.664C82.1345 191.081 89.5726 184.606 98.4812 180.959C102.829 179.167 107.539 178.023 112.27 178.347C116.874 178.671 120.795 180.678 124.44 183.398C128.063 186.095 131.473 189.29 135.714 190.995C140.254 192.808 145.369 192.419 149.631 190.024C149.993 189.829 149.674 189.268 149.312 189.462C144.964 191.901 139.764 192.117 135.224 190.088C131.43 188.383 128.319 185.534 125.015 183.031C121.627 180.462 118.025 178.455 113.762 177.851C109.372 177.246 104.896 178.002 100.74 179.405C91.6399 182.491 84.1379 188.858 75.5063 192.937C67.5355 196.714 57.2842 198.484 49.7182 192.808C45.9459 189.98 42.9835 185.944 38.1242 184.995C34.0109 184.196 29.6419 185.448 26.6155 188.383C26.3171 188.664 26.7647 189.139 27.063 188.837Z" fill="#DFE6E9"/>
<path d="M108.946 200.88C112.462 198.571 116.639 197.47 120.838 197.815C124.674 198.139 128.297 199.585 131.814 201.031C135.224 202.434 138.676 203.902 142.342 204.506C146.178 205.132 150.057 204.657 153.744 203.513C158.156 202.132 162.248 199.931 166.276 197.708C166.638 197.513 166.319 196.952 165.956 197.146C158.582 201.182 150.484 205.434 141.831 203.751C134.606 202.348 128.255 197.815 120.817 197.168C116.511 196.801 112.206 197.945 108.605 200.319C108.285 200.557 108.605 201.118 108.946 200.88Z" fill="#DFE6E9"/>
<path d="M189.4 215.514C194.047 211.111 199.758 207.938 205.918 206.319C209.051 205.499 212.269 205.089 215.508 205.11C219.11 205.154 222.691 205.736 226.271 206.082C233.219 206.751 239.89 205.564 246.39 202.995C252.592 200.556 258.432 196.326 265.102 195.29C272.903 194.081 278.934 199.326 283.9 204.7C284.177 205.002 284.625 204.549 284.348 204.247C280.256 199.823 275.439 195.247 269.216 194.535C262.396 193.758 256.194 197.815 250.269 200.6C243.449 203.815 236.096 206.017 228.53 205.585C224.758 205.369 221.028 204.679 217.235 204.484C214.016 204.312 210.777 204.549 207.623 205.218C200.653 206.664 194.153 210.075 188.953 215.017C188.655 215.341 189.102 215.794 189.4 215.514Z" fill="#DFE6E9"/>
<path d="M64.6158 79.1283C70.5833 83.8119 78.3624 81.7399 84.8627 79.5816C92.9188 76.8837 101.082 75.1786 109.607 75.0059C110.011 75.0059 110.011 74.3584 109.607 74.3584C101.764 74.5095 94.0271 75.8692 86.5677 78.3297C79.8116 80.5528 71.4145 83.6824 65.0634 78.6751C64.7437 78.4161 64.2962 78.8693 64.6158 79.1283Z" fill="#111314"/>
<path d="M122.074 39.89C129.278 39.3504 136.226 37.3216 143.195 35.6165C150.441 33.8251 157.709 32.638 165.189 33.4582C172.734 34.2783 180.044 36.5878 187.44 38.2281C194.558 39.8253 201.783 40.5591 209.072 40.1922C217.277 39.7821 225.376 38.0338 233.027 35.0553C233.411 34.9043 233.24 34.2783 232.857 34.4294C218.94 39.8468 203.744 40.9908 189.166 37.9259C181.898 36.3935 174.78 34.1488 167.427 33.0697C160.33 32.0337 153.404 32.6164 146.413 34.1704C138.314 35.9618 130.365 38.595 122.074 39.2209C121.669 39.2857 121.669 39.9332 122.074 39.89Z" fill="#111314"/>
<path d="M237.417 93.978C243.641 91.647 250.098 94.9708 256.321 95.5752C259.667 95.8989 262.992 95.5752 266.253 94.7982C269.45 94.0212 272.562 92.8772 275.822 92.3808C279.318 91.8413 283.047 92.0571 286.074 94.0643C286.415 94.3017 286.734 93.7406 286.393 93.5032C281.023 89.9635 274.458 91.8628 268.789 93.46C265.23 94.4744 261.671 95.2082 257.963 95.0572C254.425 94.9277 251.036 93.9348 247.583 93.201C244.152 92.4888 240.614 92.1003 237.268 93.3521C236.863 93.4816 237.034 94.1075 237.417 93.978Z" fill="#111314"/>
<path d="M53.8658 157.488C59.2792 152.61 66.9091 156.927 72.9192 157.855C79.8671 158.934 86.8149 156.992 93.4431 155.114C93.8481 155.006 93.6776 154.38 93.2726 154.488C85.9411 156.56 78.3539 158.61 70.7453 156.776C65.1828 155.438 58.3841 152.589 53.397 157.035C53.0986 157.294 53.5462 157.747 53.8658 157.488Z" fill="#111314"/>
<path d="M88.3368 220.068C90.0631 217.996 92.7272 216.873 95.4126 217.219C96.9471 217.413 98.3537 218.125 99.7603 218.751C100.932 219.269 102.126 219.701 103.341 220.046C108.562 221.514 114.168 221.298 119.261 219.485C119.645 219.355 119.474 218.73 119.091 218.859C113.379 220.866 107.07 220.866 101.38 218.708C98.9078 217.78 96.6061 216.291 93.8568 216.506C91.5337 216.679 89.3811 217.801 87.868 219.593C87.6122 219.938 88.0811 220.391 88.3368 220.068Z" fill="#111314"/>
<path d="M124.611 218.297C128.489 217.153 132.475 216.592 136.524 216.614C136.929 216.614 136.929 215.966 136.524 215.966C132.432 215.945 128.383 216.528 124.44 217.672C124.056 217.801 124.206 218.427 124.611 218.297Z" fill="#111314"/>
<path d="M129.683 50.5312C133.455 53.4666 137.057 56.6177 140.509 59.9632C140.808 60.2437 141.255 59.7905 140.957 59.5099C137.483 56.1429 133.817 52.9702 130.002 49.9917C129.683 49.7111 129.363 50.2722 129.683 50.5312Z" fill="#111314"/>
<path d="M92.7272 61.9049C93.0895 59.876 93.4731 57.8472 93.8354 55.7968C93.9207 55.3867 93.3026 55.214 93.2174 55.6241C92.8551 57.653 92.4714 59.6818 92.1091 61.7322C92.0452 62.1423 92.6633 62.315 92.7272 61.9049Z" fill="#111314"/>
</g>
<g opacity="0.6">
<path d="M215.615 74.7683C216.297 74.7683 216.851 74.2078 216.851 73.5165C216.851 72.8251 216.297 72.2646 215.615 72.2646C214.932 72.2646 214.378 72.8251 214.378 73.5165C214.378 74.2078 214.932 74.7683 215.615 74.7683Z" fill="#F7FAFC"/>
<path d="M54.1083 178.152C54.9204 178.152 55.5788 177.486 55.5788 176.663C55.5788 175.841 54.9204 175.174 54.1083 175.174C53.2961 175.174 52.6377 175.841 52.6377 176.663C52.6377 177.486 53.2961 178.152 54.1083 178.152Z" fill="#F7FAFC"/>
<path d="M46.9899 43.2354C48.8497 43.2354 50.3573 41.7086 50.3573 39.8252C50.3573 37.9418 48.8497 36.415 46.9899 36.415C45.1302 36.415 43.6226 37.9418 43.6226 39.8252C43.6226 41.7086 45.1302 43.2354 46.9899 43.2354Z" fill="#F7FAFC"/>
<path d="M53.7463 46.5378C54.3701 46.5378 54.8758 46.0257 54.8758 45.3939C54.8758 44.7621 54.3701 44.25 53.7463 44.25C53.1224 44.25 52.6167 44.7621 52.6167 45.3939C52.6167 46.0257 53.1224 46.5378 53.7463 46.5378Z" fill="#F7FAFC"/>
<path d="M118.281 238.521C119.669 238.521 120.795 237.381 120.795 235.975C120.795 234.568 119.669 233.428 118.281 233.428C116.892 233.428 115.766 234.568 115.766 235.975C115.766 237.381 116.892 238.521 118.281 238.521Z" fill="#F7FAFC"/>
<path d="M235.158 47.6808C236.382 47.6808 237.374 46.6758 237.374 45.4361C237.374 44.1964 236.382 43.1914 235.158 43.1914C233.934 43.1914 232.941 44.1964 232.941 45.4361C232.941 46.6758 233.934 47.6808 235.158 47.6808Z" fill="#F7FAFC"/>
<path d="M237.993 42.7392C238.746 42.7392 239.357 42.1208 239.357 41.3579C239.357 40.595 238.746 39.9766 237.993 39.9766C237.24 39.9766 236.629 40.595 236.629 41.3579C236.629 42.1208 237.24 42.7392 237.993 42.7392Z" fill="#F7FAFC"/>
<path d="M50.3786 39.6524C52.2384 39.6524 53.746 38.1256 53.746 36.2422C53.746 34.3588 52.2384 32.832 50.3786 32.832C48.5189 32.832 47.0112 34.3588 47.0112 36.2422C47.0112 38.1256 48.5189 39.6524 50.3786 39.6524Z" fill="#10B6E8"/>
<path d="M48.6949 180.16C49.6248 180.16 50.3786 179.397 50.3786 178.455C50.3786 177.513 49.6248 176.75 48.6949 176.75C47.765 176.75 47.0112 177.513 47.0112 178.455C47.0112 179.397 47.765 180.16 48.6949 180.16Z" fill="#10B6E8"/>
<path d="M107.88 233.578C108.704 233.578 109.372 232.902 109.372 232.067C109.372 231.233 108.704 230.557 107.88 230.557C107.056 230.557 106.388 231.233 106.388 232.067C106.388 232.902 107.056 233.578 107.88 233.578Z" fill="#10B6E8"/>
<path d="M226.974 39.9762C228.928 39.9762 230.512 38.3721 230.512 36.3934C230.512 34.4146 228.928 32.8105 226.974 32.8105C225.02 32.8105 223.437 34.4146 223.437 36.3934C223.437 38.3721 225.02 39.9762 226.974 39.9762Z" fill="#10B6E8"/>
<path d="M168.727 94.2366C169.151 94.2366 169.494 93.8887 169.494 93.4596C169.494 93.0305 169.151 92.6826 168.727 92.6826C168.303 92.6826 167.96 93.0305 167.96 93.4596C167.96 93.8887 168.303 94.2366 168.727 94.2366Z" fill="#10B6E8"/>
<path d="M160.863 47.9836C160.415 49.0412 159.989 50.1204 159.542 51.178C159.392 51.5665 160.01 51.7391 160.16 51.3506C160.607 50.2931 161.033 49.2139 161.481 48.1563C161.63 47.7678 161.012 47.5951 160.863 47.9836Z" fill="#10B6E8"/>
<path d="M160.756 48.5011C161.545 49.3429 162.163 50.2926 162.568 51.3717C162.717 51.7602 163.335 51.5876 163.186 51.1991C162.717 50.012 162.056 48.976 161.204 48.0479C160.927 47.7457 160.458 48.199 160.756 48.5011Z" fill="#10B6E8"/>
<path d="M159.712 51.7391C160.33 52.9046 161.033 54.0053 161.822 55.0413C162.078 55.3651 162.632 55.0413 162.376 54.7176C161.587 53.66 160.884 52.5592 160.266 51.4153C160.053 51.0484 159.52 51.3721 159.712 51.7391Z" fill="#10B6E8"/>
<path d="M162.61 51.4153C162.355 52.6239 162.12 53.8326 161.864 55.0413C161.779 55.4514 162.397 55.624 162.483 55.2139C162.738 54.0053 162.973 52.7966 163.228 51.5879C163.314 51.1994 162.696 51.0268 162.61 51.4153Z" fill="#10B6E8"/>
<path d="M220.9 140.381C220.388 141.331 220.047 142.346 219.898 143.425C219.834 143.835 220.452 144.007 220.516 143.597C220.665 142.583 220.964 141.633 221.454 140.727C221.646 140.338 221.092 140.015 220.9 140.381Z" fill="#10B6E8"/>
<path d="M220.858 140.576C221.284 141.72 221.774 142.821 222.328 143.879C222.52 144.245 223.074 143.922 222.882 143.555C222.349 142.54 221.881 141.483 221.476 140.404C221.326 140.015 220.708 140.188 220.858 140.576Z" fill="#10B6E8"/>
<path d="M219.771 143.879C220.325 144.677 220.857 145.476 221.412 146.274C221.646 146.62 222.2 146.296 221.966 145.951C221.412 145.152 220.879 144.353 220.325 143.555C220.09 143.21 219.536 143.533 219.771 143.879Z" fill="#10B6E8"/>
<path d="M222.094 143.771C221.646 144.397 221.433 145.109 221.433 145.864C221.433 146.274 222.072 146.274 222.072 145.864C222.072 145.217 222.264 144.612 222.648 144.094C222.882 143.749 222.328 143.425 222.094 143.771Z" fill="#10B6E8"/>
<path d="M42.6208 201.484C42.0454 202.757 41.4699 204.009 40.8945 205.282C40.724 205.649 41.2781 205.995 41.4486 205.606C42.0241 204.333 42.5995 203.081 43.1749 201.807C43.3454 201.441 42.8126 201.117 42.6208 201.484Z" fill="#10B6E8"/>
<path d="M42.7276 201.657C43.2818 202.995 43.8359 204.334 44.39 205.672C44.5392 206.06 45.1573 205.888 45.0081 205.499C44.4539 204.161 43.8998 202.823 43.3457 201.485C43.1965 201.096 42.5785 201.269 42.7276 201.657Z" fill="#10B6E8"/>
<path d="M40.7454 205.865C41.3208 207.009 41.875 208.175 42.4504 209.319C42.557 209.513 42.8127 209.513 42.9619 209.383C43.4095 209.016 43.6226 208.39 43.857 207.894C44.198 207.203 44.539 206.513 44.88 205.822C45.0718 205.455 44.5177 205.131 44.3259 205.498C44.0275 206.103 43.7078 206.707 43.4095 207.311C43.1537 207.829 42.9193 208.542 42.4717 208.908C42.6422 208.93 42.8127 208.952 42.9832 208.973C42.4078 207.829 41.8536 206.664 41.2782 205.52C41.1077 205.175 40.5536 205.498 40.7454 205.865Z" fill="#10B6E8"/>
<path d="M257.132 101.165C256.471 102.439 256.066 103.777 255.874 105.201C255.81 105.612 256.45 105.612 256.514 105.201C256.684 103.885 257.068 102.655 257.664 101.489C257.878 101.122 257.323 100.798 257.132 101.165Z" fill="#10B6E8"/>
<path d="M257.046 101.921C257.707 103.216 258.346 104.511 259.007 105.806C259.199 106.173 259.753 105.849 259.561 105.482C258.9 104.187 258.261 102.892 257.6 101.597C257.408 101.23 256.854 101.554 257.046 101.921Z" fill="#10B6E8"/>
<path d="M255.917 105.287C256.449 106.582 257.089 107.791 257.856 108.935C258.09 109.28 258.645 108.957 258.41 108.611C257.664 107.51 257.025 106.345 256.535 105.115C256.385 104.748 255.767 104.92 255.917 105.287Z" fill="#10B6E8"/>
<path d="M258.815 105.568C258.431 106.776 258.112 108.007 257.899 109.28C257.835 109.69 258.453 109.863 258.517 109.453C258.73 108.201 259.028 106.971 259.433 105.74C259.561 105.352 258.943 105.179 258.815 105.568Z" fill="#10B6E8"/>
<path d="M254.659 205.951C254.403 206.815 254.169 207.656 253.913 208.52C253.807 208.93 254.403 209.081 254.531 208.692C254.787 207.829 255.021 206.987 255.277 206.124C255.405 205.714 254.787 205.541 254.659 205.951Z" fill="#10B6E8"/>
<path d="M254.617 206.427C255 207.29 255.405 208.154 255.789 208.995C255.959 209.384 256.513 209.038 256.343 208.672C255.959 207.808 255.554 206.945 255.171 206.103C255 205.715 254.446 206.038 254.617 206.427Z" fill="#10B6E8"/>
<path d="M254.084 208.931C254.276 209.945 254.744 210.852 255.405 211.629C255.682 211.953 256.13 211.478 255.853 211.176C255.256 210.485 254.872 209.665 254.702 208.78C254.617 208.348 253.998 208.521 254.084 208.931Z" fill="#10B6E8"/>
<path d="M255.767 208.844C255.49 209.75 255.362 210.679 255.384 211.607C255.405 212.017 256.044 212.017 256.023 211.607C256.002 210.722 256.108 209.858 256.385 209.017C256.513 208.628 255.895 208.455 255.767 208.844Z" fill="#10B6E8"/>
<path d="M34.586 92.0782C34.1171 93.1142 33.6695 94.1502 33.2006 95.1862C33.0301 95.5531 33.5843 95.8985 33.7548 95.51C34.2236 94.4739 34.6712 93.4379 35.1401 92.4019C35.3106 92.035 34.7565 91.6897 34.586 92.0782Z" fill="#10B6E8"/>
<path d="M33.2862 95.7256C33.7764 96.9991 34.2453 98.2509 34.7355 99.5243C34.8847 99.9128 35.5027 99.7402 35.3536 99.3517C34.8634 98.0782 34.3945 96.8264 33.9043 95.553C33.7551 95.1645 33.137 95.3371 33.2862 95.7256Z" fill="#10B6E8"/>
<path d="M34.586 92.1209C35.2467 93.2864 35.9074 94.4735 36.5681 95.639C36.7812 96.0059 37.314 95.6821 37.1222 95.3152C36.4615 94.1497 35.8008 92.9626 35.1401 91.7971C34.927 91.4302 34.3729 91.754 34.586 92.1209Z" fill="#10B6E8"/>
<path d="M36.7176 95.3587C36.0356 96.6537 35.4388 97.9918 34.9273 99.3516C34.7782 99.7401 35.3962 99.9128 35.5454 99.5243C36.0356 98.2077 36.611 96.9127 37.2717 95.6824C37.4635 95.3155 36.9094 94.9918 36.7176 95.3587Z" fill="#10B6E8"/>
<path d="M195.24 111.978C195.666 111.158 196.476 110.597 197.414 110.64C198.181 110.662 198.756 111.201 199.438 111.46C200.632 111.892 200.994 111.115 201.889 110.532C203.104 109.712 204.276 111.546 205.576 111.525C206.322 111.503 206.94 111.136 206.962 110.338C206.791 110.424 206.642 110.532 206.471 110.618C207.132 110.964 207.793 111.309 208.432 111.676C208.794 111.87 209.114 111.309 208.752 111.115C208.091 110.769 207.43 110.424 206.791 110.057C206.578 109.949 206.322 110.079 206.301 110.338C206.237 111.87 203.296 109.69 202.742 109.626C201.484 109.453 200.994 111.028 199.907 110.856C198.756 110.662 198.032 109.82 196.795 110.036C195.858 110.208 195.09 110.791 194.664 111.654C194.515 112.021 195.048 112.345 195.24 111.978Z" fill="#10B6E8"/>
<path d="M203.402 107.597C204.362 106.518 205.875 107.877 206.962 108.007C208.219 108.158 209.199 106.798 210.414 107.489C211.416 108.072 213.249 109.453 213.973 107.683C214.123 107.295 213.505 107.122 213.355 107.51C212.844 108.762 211.011 107.014 210.393 106.755C209.562 106.388 209.008 106.69 208.262 107.057C207.367 107.489 206.727 107.338 205.875 106.949C205.491 106.777 205.107 106.626 204.681 106.561C204.021 106.474 203.424 106.604 202.955 107.122C202.678 107.446 203.125 107.899 203.402 107.597Z" fill="#10B6E8"/>
<path d="M186.097 56.6814C186.395 56.1203 186.736 55.9692 187.12 56.2282C187.29 56.2929 187.461 56.3793 187.631 56.4872C187.823 56.5735 188.015 56.703 188.207 56.7678C188.548 56.8757 188.889 56.9188 189.23 56.8325C190.146 56.5735 190.615 55.408 191.595 55.4296C192.512 55.4512 193.172 56.3361 194.131 55.8829C194.536 55.6886 194.813 55.3433 195.197 55.1274C196.05 54.6526 197.094 54.8253 197.818 55.4296C198.138 55.6886 198.586 55.2354 198.266 54.9764C197.307 54.1778 195.986 53.9404 194.877 54.5663C194.387 54.8469 193.982 55.4512 193.343 55.3649C192.981 55.3217 192.661 55.0627 192.32 54.9332C191.808 54.7389 191.34 54.6742 190.828 54.9116C190.189 55.2138 189.762 56.0555 189.059 56.2066C188.164 56.4009 187.567 55.4728 186.736 55.4512C185.947 55.4296 185.031 56.2066 185.564 57.0052C185.777 57.3505 186.331 57.0268 186.097 56.6814Z" fill="#F7FAFC"/>
<path d="M193.173 52.8608C193.428 51.4579 195.837 52.8176 196.689 52.6666C197.243 52.5802 197.648 52.1917 198.16 51.9975C198.97 51.6737 199.758 51.8032 200.504 52.2565C200.866 52.4723 201.186 51.9111 200.824 51.6953C200.184 51.3068 199.502 51.1126 198.778 51.1773C198.458 51.1989 198.16 51.2852 197.883 51.3931C197.03 51.7601 196.689 52.1701 195.623 51.9111C194.6 51.6521 192.853 51.1341 192.576 52.6881C192.469 53.0982 193.087 53.2709 193.173 52.8608Z" fill="#F7FAFC"/>
<path d="M31.8156 130.864C32.0927 129.504 33.9469 131.36 34.3092 131.598C34.7141 131.878 35.1617 132.073 35.6519 131.965C36.2912 131.857 36.7814 131.317 37.4421 131.166C38.5077 130.929 39.5734 131.274 40.3406 132.051C40.639 132.353 41.0866 131.878 40.7882 131.598C40.1275 130.929 39.3176 130.519 38.3799 130.454C37.911 130.411 37.4421 130.476 36.9945 130.627C36.2912 130.864 35.7371 131.555 34.8846 131.209C33.9895 130.842 33.6485 129.914 32.6255 129.806C31.9648 129.742 31.3467 130.001 31.2189 130.691C31.1123 131.101 31.7304 131.274 31.8156 130.864Z" fill="#F7FAFC"/>
<path d="M38.9125 129.31C39.3814 128.662 41.534 129.957 42.152 130.108C43.1537 130.346 44.1767 130.346 45.1997 130.216C45.6046 130.151 45.4341 129.525 45.0292 129.59C43.2603 129.828 41.8963 129.353 40.2978 128.705C39.5732 128.425 38.8486 128.317 38.3584 128.986C38.124 129.31 38.6781 129.633 38.9125 129.31Z" fill="#F7FAFC"/>
<path d="M90.8726 174.548C91.2136 174.009 91.7464 173.663 92.4071 173.663C92.9612 173.663 93.3022 174.009 93.7924 174.16C94.2825 174.332 94.6875 174.224 95.1137 173.944C95.9449 173.383 96.3498 172.692 97.4794 172.735C98.5024 172.757 99.4828 173.253 100.378 173.706C100.74 173.901 101.06 173.34 100.698 173.145C99.0139 172.282 96.9679 171.462 95.3482 172.865C94.9859 173.167 94.9432 173.253 94.3891 173.361C93.771 173.491 93.835 173.404 93.3661 173.21C92.9612 173.037 92.5776 172.973 92.13 173.016C91.3414 173.102 90.7234 173.555 90.3184 174.203C90.1053 174.57 90.6594 174.894 90.8726 174.548Z" fill="#F7FAFC"/>
<path d="M97.9698 175.8C98.9715 174.915 100.868 176.772 102.104 176.599C102.85 176.491 103.191 175.93 103.682 175.412C104.619 174.397 106.026 174.246 107.177 175.002C107.518 175.218 107.838 174.678 107.497 174.441C106.665 173.901 105.685 173.728 104.726 174.009C104.3 174.138 103.916 174.333 103.575 174.613C103.064 175.045 102.744 175.822 102.019 175.951C100.463 176.232 98.9928 174.031 97.5222 175.347C97.2239 175.628 97.6714 176.081 97.9698 175.8Z" fill="#F7FAFC"/>
<path d="M68.8994 37.3645C69.0699 36.6522 69.4748 36.0911 70.1568 35.7889C70.7536 35.5299 71.2438 35.7026 71.8618 35.681C72.5438 35.6378 73.0553 35.2925 73.4603 34.7745C74.0783 33.9975 74.4833 33.1989 75.3571 32.6809C76.3588 32.0981 77.5097 31.9902 78.6179 32.3356C79.0228 32.4651 79.172 31.8391 78.7884 31.7096C76.7424 31.0837 74.7177 31.8823 73.4816 33.6306C72.9914 34.3212 72.6291 35.0119 71.6913 35.0335C71.1159 35.0551 70.6257 34.9256 70.0716 35.1198C69.1338 35.4436 68.4945 36.2422 68.2813 37.1918C68.1748 37.6019 68.7928 37.7746 68.8994 37.3645Z" fill="#F7FAFC"/>
<path d="M71.9043 39.8467C70.9878 37.3862 75.3782 37.5157 76.6996 37.0409C78.3407 36.4581 79.7473 35.4221 81.1326 34.3861C81.4523 34.1487 81.1326 33.5875 80.8129 33.8249C79.8752 34.5372 78.9161 35.2279 77.8931 35.789C76.6143 36.4797 75.3995 36.6955 74.0142 36.9114C72.5436 37.1488 70.6255 38.1848 71.3075 39.9978C71.4354 40.3863 72.0534 40.2352 71.9043 39.8467Z" fill="#F7FAFC"/>
</g>
<g clip-path="url(#clip0_109_14633)">
<path d="M157.147 210.133C200.988 210.133 236.528 208.305 236.528 206.051C236.528 203.796 200.988 201.969 157.147 201.969C113.306 201.969 77.7657 203.796 77.7657 206.051C77.7657 208.305 113.306 210.133 157.147 210.133Z" fill="#F2F2F2"/>
<path d="M203.525 80.3549H202.623V55.5115C202.623 51.698 201.117 48.0408 198.435 45.3442C195.754 42.6477 192.117 41.1328 188.325 41.1328H135.986C132.194 41.1328 128.557 42.6477 125.876 45.3442C123.194 48.0407 121.688 51.698 121.688 55.5115V191.804C121.688 195.618 123.194 199.275 125.876 201.972C128.557 204.668 132.194 206.183 135.986 206.183H188.325C192.117 206.183 195.754 204.668 198.435 201.972C201.116 199.275 202.623 195.618 202.623 191.804V98.0389H203.525L203.525 80.3549Z" fill="#3F3D56"/>
<path d="M199.58 55.6114V191.704C199.58 194.552 198.455 197.283 196.452 199.297C194.449 201.311 191.733 202.442 188.901 202.442H136.311C133.479 202.442 130.763 201.311 128.761 199.297C126.758 197.283 125.633 194.552 125.633 191.704V55.6114C125.633 52.7634 126.758 50.0321 128.761 48.0183C130.763 46.0045 133.479 44.8731 136.311 44.873H142.691C142.378 45.6477 142.258 46.488 142.344 47.32C142.429 48.152 142.716 48.9502 143.18 49.6443C143.644 50.3385 144.27 50.9073 145.004 51.3009C145.738 51.6944 146.557 51.9005 147.389 51.9012H177.373C178.205 51.9005 179.024 51.6944 179.758 51.3009C180.491 50.9073 181.118 50.3385 181.582 49.6443C182.046 48.9502 182.333 48.152 182.418 47.32C182.503 46.488 182.384 45.6477 182.071 44.873H188.901C191.733 44.8731 194.449 46.0045 196.452 48.0183C198.455 50.0321 199.58 52.7634 199.58 55.6114Z" fill="white"/>
<path d="M182.638 114.294C182.288 114.477 181.932 114.651 181.571 114.815C181.242 114.965 180.907 115.106 180.567 115.237C180.443 115.285 180.317 115.332 180.191 115.38C179.192 115.744 178.167 116.029 177.124 116.23C176.607 116.333 176.084 116.413 175.554 116.471C175.117 116.521 174.675 116.556 174.228 116.577C173.91 116.593 173.592 116.6 173.272 116.6C172.004 116.601 170.738 116.481 169.492 116.244C169.168 116.185 168.85 116.115 168.532 116.038C166.994 115.667 165.505 115.114 164.096 114.391C163.969 114.328 163.843 114.26 163.717 114.194C163.53 114.094 163.347 113.99 163.164 113.881C163.252 113.759 163.347 113.638 163.444 113.52C164.499 112.205 165.818 111.129 167.315 110.36C168.812 109.592 170.453 109.15 172.131 109.062C173.809 108.974 175.487 109.243 177.054 109.851C178.622 110.459 180.045 111.393 181.23 112.591C181.642 113.006 182.023 113.45 182.371 113.92C182.464 114.042 182.552 114.167 182.638 114.294Z" fill="#10B6E8"/>
<path d="M173.722 104.332C179.191 104.332 183.624 99.8739 183.624 94.3742C183.624 88.8744 179.191 84.416 173.722 84.416C168.253 84.416 163.82 88.8744 163.82 94.3742C163.82 99.8739 168.253 104.332 173.722 104.332Z" fill="#2F2E41"/>
<path d="M176.356 104.346C179.927 102.383 181.24 97.8795 179.288 94.2878C177.335 90.6961 172.857 89.3761 169.286 91.3395C165.714 93.3029 164.401 97.8062 166.354 101.398C168.306 104.99 172.784 106.31 176.356 104.346Z" fill="#A0616A"/>
<path d="M180.565 93.1808C178.881 94.3481 176.882 94.9694 174.836 94.9611C175.566 95.4699 176.397 95.8135 177.271 95.9684C174.551 96.5551 171.741 96.5709 169.015 96.0151C168.409 95.9174 167.824 95.7154 167.287 95.4181C167.019 95.2676 166.785 95.0621 166.601 94.8149C166.418 94.5677 166.288 94.2844 166.22 93.9833C166.039 92.9427 166.845 91.9973 167.683 91.3601C168.966 90.3994 170.445 89.7375 172.014 89.4223C173.582 89.1071 175.201 89.1465 176.752 89.5375C177.765 89.8009 178.78 90.2458 179.438 91.064C180.096 91.8822 180.291 93.1436 179.664 93.9862L180.565 93.1808Z" fill="#2F2E41"/>
<path d="M173.272 75.7793C168.846 75.7786 164.54 77.2334 161.013 79.9219C157.485 82.6103 154.928 86.385 153.731 90.6706C152.535 94.9562 152.764 99.5177 154.385 103.66C156.006 107.802 158.929 111.298 162.709 113.614L162.84 113.691C162.948 113.757 163.056 113.82 163.164 113.882C163.347 113.991 163.53 114.095 163.717 114.195C163.843 114.26 163.969 114.328 164.096 114.392C165.505 115.115 166.994 115.668 168.532 116.038C168.85 116.116 169.168 116.186 169.492 116.245C170.738 116.482 172.004 116.601 173.272 116.601C173.592 116.601 173.91 116.594 174.228 116.578C174.675 116.558 175.117 116.522 175.554 116.472C176.084 116.413 176.607 116.333 177.124 116.231C178.167 116.029 179.192 115.745 180.191 115.381C180.317 115.333 180.443 115.286 180.567 115.238C180.908 115.106 181.242 114.966 181.571 114.816C181.932 114.653 182.287 114.479 182.638 114.294C186.148 112.446 189.05 109.612 190.991 106.137C191 106.119 191.011 106.101 191.02 106.083C192.055 104.214 192.79 102.193 193.196 100.093C193.767 97.1375 193.68 94.0916 192.943 91.1735C192.206 88.2554 190.836 85.5373 188.932 83.2138C187.028 80.8903 184.637 79.0189 181.93 77.7337C179.222 76.4484 176.266 75.781 173.272 75.7793H173.272ZM190.65 105.817C190.632 105.849 190.616 105.881 190.598 105.91C188.696 109.334 185.835 112.119 182.371 113.92C182.026 114.102 181.675 114.272 181.318 114.431C181.023 114.564 180.721 114.691 180.416 114.809C180.288 114.859 180.157 114.909 180.026 114.954C179.164 115.271 178.28 115.526 177.381 115.716C176.714 115.859 176.04 115.966 175.362 116.036C174.945 116.082 174.521 116.113 174.095 116.129C173.822 116.14 173.547 116.147 173.272 116.147C172.045 116.149 170.82 116.034 169.614 115.805C168.881 115.669 168.155 115.49 167.442 115.27C166.356 114.932 165.301 114.502 164.287 113.984C164.17 113.923 164.053 113.861 163.938 113.798C163.773 113.709 163.606 113.619 163.444 113.521C163.322 113.453 163.2 113.381 163.081 113.308C163.011 113.267 162.941 113.224 162.871 113.181C159.557 111.134 156.914 108.154 155.268 104.61C153.623 101.066 153.049 97.1149 153.617 93.2458C154.184 89.3767 155.869 85.7603 158.462 82.8454C161.055 79.9304 164.442 77.8452 168.202 76.8483C171.963 75.8514 175.932 75.9868 179.617 77.2376C183.301 78.4885 186.54 80.7997 188.93 83.8847C191.321 86.9696 192.758 90.6924 193.064 94.5913C193.37 98.4902 192.53 102.394 190.65 105.817H190.65Z" fill="#3F3D56"/>
<path d="M168.707 84.5532C168.601 83.4265 167.228 82.7329 166.155 83.0732C165.082 83.4136 164.377 84.5004 164.164 85.6117C164.062 86.0797 164.052 86.5634 164.136 87.0352C164.22 87.507 164.395 87.9575 164.652 88.3609C165.195 89.1461 166.192 89.6361 167.122 89.4368C168.183 89.2092 168.919 88.1668 169.129 87.0961C169.34 86.0253 169.131 84.9214 168.922 83.8502L168.707 84.5532Z" fill="#2F2E41"/>
<path d="M183.813 86.1626C183.706 85.0359 182.334 84.3423 181.261 84.6826C180.187 85.0229 179.483 86.1098 179.27 87.221C179.167 87.6891 179.158 88.1728 179.241 88.6446C179.325 89.1164 179.501 89.5668 179.758 89.9702C180.3 90.7554 181.297 91.2455 182.227 91.0461C183.289 90.8186 184.024 89.7762 184.235 88.7055C184.445 87.6347 184.236 86.5307 184.028 85.4596L183.813 86.1626Z" fill="#2F2E41"/>
<path d="M138.19 104.347C138.05 104.347 137.911 104.317 137.782 104.26C137.654 104.203 137.539 104.119 137.444 104.015L126.254 91.7379C126.127 91.5989 125.973 91.4879 125.801 91.4118C125.629 91.3358 125.443 91.2965 125.256 91.2963H66.1214C65.224 91.2952 64.3636 90.9363 63.7291 90.2982C63.0945 89.66 62.7376 88.7948 62.7366 87.8924V66.4469C62.7376 65.5444 63.0945 64.6792 63.7291 64.0411C64.3636 63.4029 65.224 63.044 66.1214 63.043H142.734C143.632 63.044 144.492 63.4029 145.127 64.0411C145.761 64.6792 146.118 65.5444 146.119 66.4469V87.8924C146.118 88.7948 145.761 89.66 145.127 90.2982C144.492 90.9363 143.632 91.2953 142.734 91.2963H140.562C140.203 91.2967 139.859 91.4403 139.605 91.6956C139.351 91.9509 139.209 92.297 139.208 92.6581V103.325C139.209 103.531 139.148 103.732 139.032 103.902C138.916 104.072 138.752 104.202 138.561 104.276C138.443 104.323 138.317 104.347 138.19 104.347Z" fill="white"/>
<path d="M138.19 104.347C138.05 104.347 137.911 104.317 137.782 104.26C137.654 104.203 137.539 104.119 137.444 104.015L126.254 91.7379C126.127 91.5989 125.973 91.4879 125.801 91.4118C125.629 91.3358 125.443 91.2965 125.256 91.2963H66.1214C65.224 91.2952 64.3636 90.9363 63.7291 90.2982C63.0945 89.66 62.7376 88.7948 62.7366 87.8924V66.4469C62.7376 65.5444 63.0945 64.6792 63.7291 64.0411C64.3636 63.4029 65.224 63.044 66.1214 63.043H142.734C143.632 63.044 144.492 63.4029 145.127 64.0411C145.761 64.6792 146.118 65.5444 146.119 66.4469V87.8924C146.118 88.7948 145.761 89.66 145.127 90.2982C144.492 90.9363 143.632 91.2953 142.734 91.2963H140.562C140.203 91.2967 139.859 91.4403 139.605 91.6956C139.351 91.9509 139.209 92.297 139.208 92.6581V103.325C139.209 103.531 139.148 103.732 139.032 103.902C138.916 104.072 138.752 104.202 138.561 104.276C138.443 104.323 138.317 104.347 138.19 104.347ZM66.1214 63.4965C65.3436 63.4974 64.5979 63.8085 64.0479 64.3616C63.4979 64.9148 63.1885 65.6647 63.1876 66.4469V87.8924C63.1885 88.6746 63.4979 89.4245 64.0479 89.9776C64.5979 90.5307 65.3436 90.8418 66.1214 90.8427H125.256C125.506 90.843 125.753 90.8954 125.982 90.9968C126.211 91.0981 126.417 91.2461 126.586 91.4314L137.777 103.708C137.854 103.792 137.954 103.851 138.065 103.877C138.176 103.903 138.291 103.895 138.397 103.853C138.503 103.812 138.594 103.739 138.659 103.645C138.723 103.551 138.757 103.439 138.757 103.325V92.6581C138.758 92.1768 138.948 91.7153 139.286 91.375C139.625 91.0347 140.084 90.8432 140.562 90.8427H142.734C143.512 90.8418 144.258 90.5307 144.808 89.9776C145.358 89.4245 145.667 88.6746 145.668 87.8924V66.4469C145.667 65.6647 145.358 64.9148 144.808 64.3616C144.258 63.8085 143.512 63.4974 142.734 63.4965H66.1214Z" fill="#3F3D56"/>
<path d="M71.0391 72.504C72.6749 72.504 74.001 71.1704 74.001 69.5254C74.001 67.8804 72.6749 66.5469 71.0391 66.5469C69.4033 66.5469 68.0773 67.8804 68.0773 69.5254C68.0773 71.1704 69.4033 72.504 71.0391 72.504Z" fill="#10B6E8"/>
<path d="M139.279 86.0062H69.5768C69.3692 86.0065 69.1636 85.9656 68.9718 85.8858C68.7799 85.8061 68.6055 85.6891 68.4586 85.5416C68.3118 85.3941 68.1952 85.2189 68.1157 85.026C68.0362 84.8332 67.9953 84.6264 67.9953 84.4177C67.9953 84.2089 68.0362 84.0022 68.1157 83.8093C68.1952 83.6164 68.3118 83.4412 68.4586 83.2937C68.6055 83.1462 68.7799 83.0292 68.9718 82.9495C69.1636 82.8698 69.3692 82.8289 69.5768 82.8291H139.279C139.697 82.8296 140.099 82.9972 140.395 83.2951C140.69 83.5929 140.857 83.9967 140.857 84.4177C140.857 84.8386 140.69 85.2424 140.395 85.5403C140.099 85.8381 139.697 86.0057 139.279 86.0062Z" fill="#E6E6E6"/>
<path d="M116.571 79.2552H69.5768C69.3692 79.2555 69.1636 79.2146 68.9718 79.1349C68.7799 79.0551 68.6055 78.9382 68.4586 78.7906C68.3118 78.6431 68.1952 78.4679 68.1157 78.275C68.0362 78.0822 67.9953 77.8755 67.9953 77.6667C67.9953 77.4579 68.0362 77.2512 68.1157 77.0583C68.1952 76.8655 68.3118 76.6903 68.4586 76.5427C68.6055 76.3952 68.7799 76.2782 68.9718 76.1985C69.1636 76.1188 69.3692 76.0779 69.5768 76.0781H116.571C116.99 76.0781 117.392 76.2455 117.688 76.5434C117.985 76.8413 118.151 77.2454 118.151 77.6667C118.151 78.088 117.985 78.4921 117.688 78.79C117.392 79.0879 116.99 79.2552 116.571 79.2552Z" fill="#E6E6E6"/>
<path d="M187.912 177.075C187.721 177.001 187.557 176.871 187.441 176.701C187.325 176.531 187.264 176.329 187.265 176.123V165.457C187.265 165.096 187.122 164.75 186.868 164.494C186.614 164.239 186.27 164.096 185.911 164.095H183.739C182.841 164.094 181.981 163.735 181.346 163.097C180.712 162.459 180.355 161.594 180.354 160.691V139.246C180.355 138.343 180.712 137.478 181.346 136.84C181.981 136.202 182.841 135.843 183.739 135.842H260.352C261.249 135.843 262.11 136.202 262.744 136.84C263.379 137.478 263.736 138.343 263.737 139.246V160.691C263.736 161.594 263.379 162.459 262.744 163.097C262.11 163.735 261.249 164.094 260.352 164.095H201.217C201.03 164.095 200.844 164.135 200.672 164.211C200.5 164.287 200.346 164.398 200.219 164.537L189.029 176.813C188.934 176.918 188.819 177.001 188.691 177.059C188.562 177.116 188.423 177.145 188.283 177.146C188.156 177.145 188.03 177.121 187.912 177.075Z" fill="white"/>
<path d="M187.912 177.075C187.721 177.001 187.557 176.871 187.441 176.701C187.325 176.531 187.264 176.329 187.265 176.123V165.457C187.265 165.096 187.122 164.75 186.868 164.494C186.614 164.239 186.27 164.096 185.911 164.095H183.739C182.841 164.094 181.981 163.735 181.346 163.097C180.712 162.459 180.355 161.594 180.354 160.691V139.246C180.355 138.343 180.712 137.478 181.346 136.84C181.981 136.202 182.841 135.843 183.739 135.842H260.352C261.249 135.843 262.11 136.202 262.744 136.84C263.379 137.478 263.736 138.343 263.737 139.246V160.691C263.736 161.594 263.379 162.459 262.744 163.097C262.11 163.735 261.249 164.094 260.352 164.095H201.217C201.03 164.095 200.844 164.135 200.672 164.211C200.5 164.287 200.346 164.398 200.219 164.537L189.029 176.813C188.934 176.918 188.819 177.001 188.691 177.059C188.562 177.116 188.423 177.145 188.283 177.146C188.156 177.145 188.03 177.121 187.912 177.075ZM183.739 136.295C182.961 136.296 182.215 136.607 181.665 137.16C181.115 137.714 180.806 138.463 180.805 139.246V160.691C180.806 161.473 181.115 162.223 181.665 162.776C182.215 163.33 182.961 163.641 183.739 163.642H185.911C186.389 163.642 186.848 163.834 187.187 164.174C187.525 164.514 187.715 164.976 187.716 165.457V176.123C187.716 176.238 187.75 176.349 187.815 176.444C187.879 176.538 187.97 176.611 188.076 176.652C188.182 176.694 188.298 176.702 188.408 176.676C188.519 176.65 188.619 176.591 188.696 176.507L199.887 164.23C200.056 164.045 200.262 163.897 200.491 163.796C200.72 163.694 200.967 163.642 201.217 163.642H260.352C261.13 163.641 261.875 163.33 262.425 162.776C262.975 162.223 263.285 161.473 263.286 160.691V139.246C263.285 138.463 262.975 137.714 262.425 137.16C261.875 136.607 261.13 136.296 260.352 136.295H183.739Z" fill="#3F3D56"/>
<path d="M164.033 183.716C160.891 185.739 157.251 186.842 153.521 186.902C149.79 186.962 146.117 185.975 142.913 184.054C143.477 182.999 144.191 182.032 145.033 181.185C146.332 179.872 147.913 178.876 149.655 178.274C151.397 177.672 153.253 177.479 155.08 177.71C156.907 177.942 158.657 178.591 160.196 179.609C161.735 180.627 163.021 181.986 163.956 183.582C163.981 183.625 164.008 183.67 164.033 183.716Z" fill="#10B6E8"/>
<path d="M152.591 172.871C158.096 172.871 162.559 168.383 162.559 162.847C162.559 157.31 158.096 152.822 152.591 152.822C147.086 152.822 142.623 157.31 142.623 162.847C142.623 168.383 147.086 172.871 152.591 172.871Z" fill="#2F2E41"/>
<path d="M160.008 169.917C161.974 166.302 160.652 161.769 157.057 159.792C153.462 157.816 148.954 159.145 146.989 162.76C145.023 166.376 146.345 170.909 149.94 172.885C153.535 174.862 158.043 173.533 160.008 169.917Z" fill="#FFB8B8"/>
<path d="M145.703 161.646C147.398 162.821 149.411 163.446 151.47 163.438C150.735 163.95 149.899 164.296 149.019 164.452C151.756 165.042 154.586 165.058 157.33 164.499C157.94 164.4 158.528 164.197 159.069 163.898C159.339 163.746 159.574 163.539 159.759 163.291C159.944 163.042 160.075 162.757 160.143 162.454C160.326 161.406 159.514 160.454 158.671 159.813C157.379 158.846 155.89 158.18 154.311 157.862C152.732 157.545 151.103 157.585 149.541 157.978C148.521 158.243 147.499 158.691 146.837 159.515C146.174 160.338 145.978 161.608 146.609 162.456L145.703 161.646Z" fill="#2F2E41"/>
<path d="M153.201 187.131C148.319 187.13 143.602 185.358 139.914 182.142C136.226 178.925 133.814 174.479 133.122 169.619C132.43 164.759 133.504 159.812 136.146 155.683C138.788 151.555 142.822 148.523 147.507 147.144C152.192 145.765 157.215 146.131 161.654 148.174C166.092 150.218 169.65 153.802 171.673 158.27C173.696 162.738 174.05 167.79 172.669 172.499C171.288 177.207 168.265 181.258 164.155 183.907C160.886 186.014 157.084 187.134 153.201 187.131ZM153.201 146.763C149.276 146.763 145.438 147.933 142.174 150.126C138.91 152.319 136.366 155.436 134.863 159.083C133.361 162.731 132.968 166.744 133.733 170.616C134.499 174.488 136.389 178.044 139.165 180.835C141.941 183.627 145.478 185.528 149.328 186.298C153.178 187.068 157.169 186.673 160.795 185.162C164.422 183.651 167.522 181.092 169.702 177.81C171.883 174.527 173.047 170.668 173.046 166.72C173.041 161.429 170.948 156.357 167.227 152.615C163.507 148.874 158.463 146.769 153.201 146.763Z" fill="#3F3D56"/>
<path d="M189.885 145.075C191.521 145.075 192.847 143.742 192.847 142.097C192.847 140.452 191.521 139.118 189.885 139.118C188.25 139.118 186.923 140.452 186.923 142.097C186.923 143.742 188.25 145.075 189.885 145.075Z" fill="#10B6E8"/>
<path d="M258.125 158.578H188.423C188.215 158.578 188.01 158.537 187.818 158.457C187.626 158.377 187.452 158.26 187.305 158.113C187.158 157.965 187.041 157.79 186.962 157.597C186.882 157.404 186.841 157.198 186.841 156.989C186.841 156.78 186.882 156.573 186.962 156.381C187.041 156.188 187.158 156.013 187.305 155.865C187.452 155.717 187.626 155.6 187.818 155.521C188.01 155.441 188.215 155.4 188.423 155.4H258.125C258.544 155.4 258.946 155.568 259.242 155.866C259.538 156.164 259.705 156.568 259.705 156.989C259.705 157.41 259.538 157.814 259.242 158.112C258.946 158.41 258.544 158.578 258.125 158.578Z" fill="#E6E6E6"/>
<path d="M235.418 151.827H188.423C188.215 151.827 188.01 151.786 187.818 151.706C187.626 151.626 187.452 151.509 187.305 151.362C187.158 151.214 187.041 151.039 186.962 150.846C186.882 150.653 186.841 150.447 186.841 150.238C186.841 150.029 186.882 149.822 186.962 149.63C187.041 149.437 187.158 149.262 187.305 149.114C187.452 148.966 187.626 148.85 187.818 148.77C188.01 148.69 188.215 148.649 188.423 148.649H235.418C235.836 148.65 236.238 148.818 236.533 149.115C236.829 149.413 236.995 149.817 236.995 150.238C236.995 150.659 236.829 151.063 236.533 151.361C236.238 151.658 235.836 151.826 235.418 151.827Z" fill="#E6E6E6"/>
<path d="M187.817 179.106C190.869 179.106 193.343 178.829 193.343 178.489C193.343 178.148 190.869 177.872 187.817 177.872C184.765 177.872 182.291 178.148 182.291 178.489C182.291 178.829 184.765 179.106 187.817 179.106Z" fill="#F2F2F2"/>
<path d="M138.429 106.533C141.481 106.533 143.955 106.257 143.955 105.917C143.955 105.576 141.481 105.3 138.429 105.3C135.377 105.3 132.903 105.576 132.903 105.917C132.903 106.257 135.377 106.533 138.429 106.533Z" fill="#F2F2F2"/>
</g>
<defs>
<clipPath id="clip0_109_14633">
<rect width="201" height="169" fill="white" transform="translate(62.7366 41.1328)"/>
</clipPath>
</defs>
</svg>
