<svg width="44" height="45" viewBox="0 0 44 45" fill="none" xmlns="http://www.w3.org/2000/svg">
<g clip-path="url(#clip0_224_13843)">
<path d="M12.8333 38.5193C10.3291 38.3271 7.94963 37.3485 6.0347 35.7233C4.11978 34.0981 2.76731 31.9094 2.17041 29.4697C1.5735 27.0301 1.76269 24.4642 2.71096 22.1385C3.65923 19.8127 5.31809 17.8461 7.45067 16.5193C7.90444 12.9812 9.63196 9.7296 12.31 7.37313C14.9879 5.01666 18.4328 3.7168 22 3.7168C25.5672 3.7168 29.0121 5.01666 31.6901 7.37313C34.368 9.7296 36.0956 12.9812 36.5493 16.5193C38.6819 17.8461 40.3408 19.8127 41.289 22.1385C42.2373 24.4642 42.4265 27.0301 41.8296 29.4697C41.2327 31.9094 39.8802 34.0981 37.9653 35.7233C36.0504 37.3485 33.6709 38.3271 31.1667 38.5193V38.5542H12.8333V38.5193ZM23.8333 22.0542V14.7208H20.1667V22.0542H14.6667L22 31.2208L29.3333 22.0542H23.8333Z" fill="white"/>
</g>
<defs>
<clipPath id="clip0_224_13843">
<rect width="44" height="44" fill="white" transform="translate(0 0.0546875)"/>
</clipPath>
</defs>
</svg>
