<svg width="304" height="260" viewBox="0 0 304 260" fill="none" xmlns="http://www.w3.org/2000/svg">
<path d="M24.9745 88.3444C28.7682 85.2148 33.9045 84.7616 38.5932 85.6249C43.6017 86.5314 48.1625 88.9703 52.7873 91.0207C57.5613 93.1575 62.4206 94.6899 67.6635 94.9489C72.885 95.2295 78.1066 94.4741 83.179 93.1791C93.7713 90.4812 103.49 85.3012 113.656 81.3946C118.75 79.4305 124.014 77.7254 129.427 76.9484C132.368 76.5168 135.331 76.4088 138.293 76.7326C141.106 77.0348 143.856 77.7038 146.605 78.3945C152.679 79.9269 158.732 81.2651 164.955 82.0205C171.37 82.7975 177.849 83.0565 184.307 82.8407C184.712 82.8191 184.712 82.1716 184.307 82.1932C172.585 82.6248 160.863 81.3514 149.482 78.4808C144.047 77.0995 138.655 75.675 133.008 75.9556C127.53 76.2362 122.117 77.7038 116.959 79.4953C106.623 83.0997 96.9042 88.3876 86.4185 91.6035C81.0903 93.2222 75.5704 94.3446 69.9865 94.3662C64.3174 94.3877 58.9893 93.0496 53.8103 90.7617C48.6953 88.5171 43.6869 85.7328 38.1243 84.8695C33.393 84.1357 28.3419 84.7184 24.527 87.8696C24.2073 88.1502 24.6548 88.625 24.9745 88.3444Z" fill="#DFE6E9"/>
<path d="M139.764 68.618C154.533 75.0714 171.306 73.9923 186.417 69.3087C194.601 66.7618 202.742 63.3517 211.459 63.3732C220.24 63.3948 228.573 66.5028 237.162 67.8842C244.962 69.136 253.551 68.9849 260.243 64.2366C260.584 63.9992 260.265 63.438 259.924 63.6754C253.743 68.0568 245.9 68.4453 238.654 67.4525C230.448 66.3302 222.563 63.438 214.272 62.8337C205.982 62.2293 198.16 64.7546 190.381 67.3446C182.623 69.913 174.78 71.9203 166.617 72.3951C157.581 72.9347 148.438 71.7044 140.105 68.0568C139.721 67.8842 139.401 68.4453 139.764 68.618Z" fill="#DFE6E9"/>
<path d="M16.8331 122.425C21.5006 119.058 27.0205 116.986 32.7323 116.424C35.5882 116.144 38.4653 116.252 41.2786 116.748C44.1984 117.266 47.0117 118.259 49.8036 119.252C54.9825 121.065 60.1188 122.446 65.5748 121.173C70.2849 120.072 74.5474 117.59 78.7247 115.237C83.6478 112.453 88.7628 109.604 94.4746 109.086C94.8795 109.043 94.8795 108.395 94.4746 108.439C84.2872 109.367 76.636 117.115 67.1307 120.072C64.7223 120.827 62.2075 121.216 59.6926 121.065C56.6023 120.871 53.5972 119.899 50.6987 118.885C47.7789 117.871 44.8591 116.77 41.7901 116.187C39.1473 115.691 36.4407 115.54 33.7766 115.712C27.596 116.101 21.5645 118.237 16.5135 121.885C16.1725 122.101 16.4921 122.662 16.8331 122.425Z" fill="#DFE6E9"/>
<path d="M73.3326 130.712C81.6232 121.842 93.8139 118.216 105.6 118.108C112.441 118.043 119.261 119.036 125.932 120.482C132.283 121.842 138.442 123.611 145.006 122.726C151.869 121.798 158.284 118.82 164.422 115.69C164.784 115.496 164.465 114.935 164.102 115.129C158.263 118.108 152.189 120.935 145.688 121.971C142.364 122.489 139.018 122.446 135.693 121.906C132.326 121.367 129.043 120.46 125.697 119.748C113.507 117.158 100.527 116.057 88.5497 120.266C82.6462 122.338 77.1902 125.64 72.885 130.237C72.608 130.561 73.0555 131.014 73.3326 130.712Z" fill="#DFE6E9"/>
<path d="M172.116 137.166C175.59 138.397 179.149 137.253 182.325 135.72C185.884 133.994 189.23 131.857 192.874 130.324C196.519 128.792 200.44 127.756 204.404 128.252C208.027 128.706 211.374 130.346 214.549 132.094C217.554 133.756 220.517 135.569 223.713 136.843C227.273 138.246 231.109 138.915 234.924 138.828C242.745 138.656 249.395 134.706 256.535 132.03C263.205 129.526 272.093 128.404 277.442 134.274C277.719 134.576 278.167 134.123 277.89 133.821C273.691 129.224 266.999 128.706 261.245 129.936C253.743 131.533 247.264 136.174 239.719 137.663C235.691 138.461 231.471 138.354 227.486 137.382C223.777 136.476 220.453 134.706 217.128 132.828C214.123 131.123 211.075 129.353 207.772 128.339C204.34 127.281 200.76 127.26 197.286 128.123C193.045 129.181 189.145 131.274 185.33 133.389C181.387 135.548 176.826 138.181 172.244 136.562C171.903 136.411 171.732 137.037 172.116 137.166Z" fill="#DFE6E9"/>
<path d="M228.232 147.569C237.055 148.109 244.323 142.044 252.656 140.209C254.872 139.713 257.217 139.497 259.476 139.886C261.501 140.231 263.333 141.073 265.081 142.152C268.086 144.008 271.006 146.404 274.672 146.663C279.126 146.965 283.069 144.159 286.394 141.526C286.713 141.267 286.266 140.814 285.946 141.073C282.707 143.62 278.828 146.404 274.48 145.994C270.708 145.648 267.724 142.886 264.548 141.094C257.238 136.95 249.416 140.209 242.405 143.339C237.908 145.325 233.24 147.246 228.253 146.943C227.827 146.9 227.827 147.548 228.232 147.569Z" fill="#DFE6E9"/>
<path d="M27.063 188.837C30.1534 185.858 34.7355 184.693 38.8489 185.836C43.154 187.024 45.9246 190.779 49.3772 193.369C56.2612 198.527 65.6387 197.707 73.2046 194.664C82.1345 191.081 89.5726 184.606 98.4812 180.959C102.829 179.167 107.539 178.023 112.27 178.347C116.874 178.671 120.795 180.678 124.44 183.398C128.063 186.095 131.473 189.29 135.714 190.995C140.254 192.808 145.369 192.419 149.631 190.024C149.993 189.829 149.674 189.268 149.312 189.462C144.964 191.901 139.764 192.117 135.224 190.088C131.43 188.383 128.319 185.534 125.015 183.031C121.627 180.462 118.025 178.455 113.762 177.851C109.372 177.246 104.896 178.002 100.74 179.405C91.6399 182.491 84.1379 188.858 75.5063 192.937C67.5355 196.714 57.2842 198.484 49.7182 192.808C45.9459 189.98 42.9835 185.944 38.1242 184.995C34.0109 184.196 29.6419 185.448 26.6155 188.383C26.3171 188.664 26.7647 189.139 27.063 188.837Z" fill="#DFE6E9"/>
<path d="M108.946 200.88C112.462 198.571 116.639 197.47 120.838 197.815C124.674 198.139 128.297 199.585 131.814 201.031C135.224 202.434 138.676 203.902 142.342 204.506C146.178 205.132 150.057 204.657 153.744 203.513C158.156 202.132 162.248 199.931 166.276 197.708C166.638 197.513 166.319 196.952 165.956 197.146C158.582 201.182 150.484 205.434 141.831 203.751C134.606 202.348 128.255 197.815 120.817 197.168C116.511 196.801 112.206 197.945 108.605 200.319C108.285 200.557 108.605 201.118 108.946 200.88Z" fill="#DFE6E9"/>
<path d="M189.4 215.514C194.047 211.111 199.758 207.938 205.918 206.319C209.051 205.499 212.269 205.089 215.508 205.11C219.11 205.154 222.691 205.736 226.271 206.082C233.219 206.751 239.89 205.564 246.39 202.995C252.592 200.556 258.432 196.326 265.102 195.29C272.903 194.081 278.934 199.326 283.9 204.7C284.177 205.002 284.625 204.549 284.348 204.247C280.256 199.823 275.439 195.247 269.216 194.535C262.396 193.758 256.194 197.815 250.269 200.6C243.449 203.815 236.096 206.017 228.53 205.585C224.758 205.369 221.028 204.679 217.235 204.484C214.016 204.312 210.777 204.549 207.623 205.218C200.653 206.664 194.153 210.075 188.953 215.017C188.655 215.341 189.102 215.794 189.4 215.514Z" fill="#DFE6E9"/>
<path d="M64.6158 79.1283C70.5833 83.8119 78.3624 81.7399 84.8627 79.5816C92.9188 76.8837 101.082 75.1786 109.607 75.0059C110.011 75.0059 110.011 74.3584 109.607 74.3584C101.764 74.5095 94.0271 75.8692 86.5677 78.3297C79.8116 80.5528 71.4145 83.6824 65.0634 78.6751C64.7437 78.4161 64.2962 78.8693 64.6158 79.1283Z" fill="#111314"/>
<path d="M122.074 39.89C129.278 39.3504 136.226 37.3216 143.195 35.6165C150.441 33.8251 157.709 32.638 165.189 33.4582C172.734 34.2783 180.044 36.5878 187.44 38.2281C194.558 39.8253 201.783 40.5591 209.072 40.1922C217.277 39.7821 225.376 38.0338 233.027 35.0553C233.411 34.9043 233.24 34.2783 232.857 34.4294C218.94 39.8468 203.744 40.9908 189.166 37.9259C181.898 36.3935 174.78 34.1488 167.427 33.0697C160.33 32.0337 153.404 32.6164 146.413 34.1704C138.314 35.9618 130.365 38.595 122.074 39.2209C121.669 39.2857 121.669 39.9332 122.074 39.89Z" fill="#111314"/>
<path d="M237.417 93.978C243.641 91.647 250.098 94.9708 256.321 95.5752C259.667 95.8989 262.992 95.5752 266.253 94.7982C269.45 94.0212 272.562 92.8772 275.822 92.3808C279.318 91.8413 283.047 92.0571 286.074 94.0643C286.415 94.3017 286.734 93.7406 286.393 93.5032C281.023 89.9635 274.458 91.8628 268.789 93.46C265.23 94.4744 261.671 95.2082 257.963 95.0572C254.425 94.9277 251.036 93.9348 247.583 93.201C244.152 92.4888 240.614 92.1003 237.268 93.3521C236.863 93.4816 237.034 94.1075 237.417 93.978Z" fill="#111314"/>
<path d="M53.8658 157.488C59.2792 152.61 66.9091 156.927 72.9192 157.855C79.8671 158.934 86.8149 156.992 93.4431 155.114C93.8481 155.006 93.6776 154.38 93.2726 154.488C85.9411 156.56 78.3539 158.61 70.7453 156.776C65.1828 155.438 58.3841 152.589 53.397 157.035C53.0986 157.294 53.5462 157.747 53.8658 157.488Z" fill="#111314"/>
<path d="M88.3368 220.068C90.0631 217.996 92.7272 216.873 95.4126 217.219C96.9471 217.413 98.3537 218.125 99.7603 218.751C100.932 219.269 102.126 219.701 103.341 220.046C108.562 221.514 114.168 221.298 119.261 219.485C119.645 219.355 119.474 218.73 119.091 218.859C113.379 220.866 107.07 220.866 101.38 218.708C98.9078 217.78 96.6061 216.291 93.8568 216.506C91.5337 216.679 89.3811 217.801 87.868 219.593C87.6122 219.938 88.0811 220.391 88.3368 220.068Z" fill="#111314"/>
<path d="M124.611 218.297C128.489 217.153 132.475 216.592 136.524 216.614C136.929 216.614 136.929 215.966 136.524 215.966C132.432 215.945 128.383 216.528 124.44 217.672C124.056 217.801 124.206 218.427 124.611 218.297Z" fill="#111314"/>
<path d="M129.683 50.5312C133.455 53.4666 137.057 56.6177 140.509 59.9632C140.808 60.2437 141.255 59.7905 140.957 59.5099C137.483 56.1429 133.817 52.9702 130.002 49.9917C129.683 49.7111 129.363 50.2722 129.683 50.5312Z" fill="#111314"/>
<path d="M92.7272 61.9049C93.0895 59.876 93.4731 57.8472 93.8354 55.7968C93.9207 55.3867 93.3026 55.214 93.2174 55.6241C92.8551 57.653 92.4714 59.6818 92.1091 61.7322C92.0452 62.1423 92.6633 62.315 92.7272 61.9049Z" fill="#111314"/>
<path d="M215.615 74.7683C216.297 74.7683 216.851 74.2078 216.851 73.5165C216.851 72.8251 216.297 72.2646 215.615 72.2646C214.932 72.2646 214.378 72.8251 214.378 73.5165C214.378 74.2078 214.932 74.7683 215.615 74.7683Z" fill="#F7FAFC"/>
<path d="M54.1083 178.152C54.9204 178.152 55.5788 177.486 55.5788 176.663C55.5788 175.841 54.9204 175.174 54.1083 175.174C53.2961 175.174 52.6377 175.841 52.6377 176.663C52.6377 177.486 53.2961 178.152 54.1083 178.152Z" fill="#F7FAFC"/>
<path d="M46.9899 43.2354C48.8497 43.2354 50.3573 41.7086 50.3573 39.8252C50.3573 37.9418 48.8497 36.415 46.9899 36.415C45.1302 36.415 43.6226 37.9418 43.6226 39.8252C43.6226 41.7086 45.1302 43.2354 46.9899 43.2354Z" fill="#F7FAFC"/>
<path d="M53.7463 46.5378C54.3701 46.5378 54.8758 46.0257 54.8758 45.3939C54.8758 44.7621 54.3701 44.25 53.7463 44.25C53.1224 44.25 52.6167 44.7621 52.6167 45.3939C52.6167 46.0257 53.1224 46.5378 53.7463 46.5378Z" fill="#F7FAFC"/>
<path d="M118.281 238.521C119.669 238.521 120.795 237.381 120.795 235.975C120.795 234.568 119.669 233.428 118.281 233.428C116.892 233.428 115.766 234.568 115.766 235.975C115.766 237.381 116.892 238.521 118.281 238.521Z" fill="#F7FAFC"/>
<path d="M235.158 47.6808C236.382 47.6808 237.374 46.6758 237.374 45.4361C237.374 44.1964 236.382 43.1914 235.158 43.1914C233.934 43.1914 232.941 44.1964 232.941 45.4361C232.941 46.6758 233.934 47.6808 235.158 47.6808Z" fill="#F7FAFC"/>
<path d="M237.993 42.7392C238.746 42.7392 239.357 42.1208 239.357 41.3579C239.357 40.595 238.746 39.9766 237.993 39.9766C237.24 39.9766 236.629 40.595 236.629 41.3579C236.629 42.1208 237.24 42.7392 237.993 42.7392Z" fill="#F7FAFC"/>
<path d="M50.3786 39.6524C52.2384 39.6524 53.746 38.1256 53.746 36.2422C53.746 34.3588 52.2384 32.832 50.3786 32.832C48.5189 32.832 47.0112 34.3588 47.0112 36.2422C47.0112 38.1256 48.5189 39.6524 50.3786 39.6524Z" fill="#10B6E8"/>
<path d="M48.6949 180.16C49.6248 180.16 50.3786 179.397 50.3786 178.455C50.3786 177.513 49.6248 176.75 48.6949 176.75C47.765 176.75 47.0112 177.513 47.0112 178.455C47.0112 179.397 47.765 180.16 48.6949 180.16Z" fill="#10B6E8"/>
<path d="M107.88 233.578C108.704 233.578 109.372 232.902 109.372 232.067C109.372 231.233 108.704 230.557 107.88 230.557C107.056 230.557 106.388 231.233 106.388 232.067C106.388 232.902 107.056 233.578 107.88 233.578Z" fill="#10B6E8"/>
<path d="M226.974 39.9762C228.928 39.9762 230.512 38.3721 230.512 36.3934C230.512 34.4146 228.928 32.8105 226.974 32.8105C225.02 32.8105 223.437 34.4146 223.437 36.3934C223.437 38.3721 225.02 39.9762 226.974 39.9762Z" fill="#10B6E8"/>
<path d="M168.727 94.2366C169.151 94.2366 169.494 93.8887 169.494 93.4596C169.494 93.0305 169.151 92.6826 168.727 92.6826C168.303 92.6826 167.96 93.0305 167.96 93.4596C167.96 93.8887 168.303 94.2366 168.727 94.2366Z" fill="#10B6E8"/>
<path d="M160.863 47.9836C160.415 49.0412 159.989 50.1204 159.542 51.178C159.392 51.5665 160.01 51.7391 160.16 51.3506C160.607 50.2931 161.033 49.2139 161.481 48.1563C161.63 47.7678 161.012 47.5951 160.863 47.9836Z" fill="#10B6E8"/>
<path d="M160.756 48.5011C161.545 49.3429 162.163 50.2926 162.568 51.3717C162.717 51.7602 163.335 51.5876 163.186 51.1991C162.717 50.012 162.056 48.976 161.204 48.0479C160.927 47.7457 160.458 48.199 160.756 48.5011Z" fill="#10B6E8"/>
<path d="M159.712 51.7391C160.33 52.9046 161.033 54.0053 161.822 55.0413C162.078 55.3651 162.632 55.0413 162.376 54.7176C161.587 53.66 160.884 52.5592 160.266 51.4153C160.053 51.0484 159.52 51.3721 159.712 51.7391Z" fill="#10B6E8"/>
<path d="M162.61 51.4153C162.355 52.6239 162.12 53.8326 161.864 55.0413C161.779 55.4514 162.397 55.624 162.483 55.2139C162.738 54.0053 162.973 52.7966 163.228 51.5879C163.314 51.1994 162.696 51.0268 162.61 51.4153Z" fill="#10B6E8"/>
<path d="M220.9 140.381C220.388 141.331 220.047 142.346 219.898 143.425C219.834 143.835 220.452 144.007 220.516 143.597C220.665 142.583 220.964 141.633 221.454 140.727C221.646 140.338 221.092 140.015 220.9 140.381Z" fill="#10B6E8"/>
<path d="M220.858 140.576C221.284 141.72 221.774 142.821 222.328 143.879C222.52 144.245 223.074 143.922 222.882 143.555C222.349 142.54 221.881 141.483 221.476 140.404C221.326 140.015 220.708 140.188 220.858 140.576Z" fill="#10B6E8"/>
<path d="M219.771 143.879C220.325 144.677 220.857 145.476 221.412 146.274C221.646 146.62 222.2 146.296 221.966 145.951C221.412 145.152 220.879 144.353 220.325 143.555C220.09 143.21 219.536 143.533 219.771 143.879Z" fill="#10B6E8"/>
<path d="M222.094 143.771C221.646 144.397 221.433 145.109 221.433 145.864C221.433 146.274 222.072 146.274 222.072 145.864C222.072 145.217 222.264 144.612 222.648 144.094C222.882 143.749 222.328 143.425 222.094 143.771Z" fill="#10B6E8"/>
<path d="M42.6208 201.484C42.0454 202.757 41.4699 204.009 40.8945 205.282C40.724 205.649 41.2781 205.995 41.4486 205.606C42.0241 204.333 42.5995 203.081 43.1749 201.807C43.3454 201.441 42.8126 201.117 42.6208 201.484Z" fill="#10B6E8"/>
<path d="M42.7276 201.657C43.2818 202.995 43.8359 204.334 44.39 205.672C44.5392 206.06 45.1573 205.888 45.0081 205.499C44.4539 204.161 43.8998 202.823 43.3457 201.485C43.1965 201.096 42.5785 201.269 42.7276 201.657Z" fill="#10B6E8"/>
<path d="M40.7454 205.865C41.3208 207.009 41.875 208.175 42.4504 209.319C42.557 209.513 42.8127 209.513 42.9619 209.383C43.4095 209.016 43.6226 208.39 43.857 207.894C44.198 207.203 44.539 206.513 44.88 205.822C45.0718 205.455 44.5177 205.131 44.3259 205.498C44.0275 206.103 43.7078 206.707 43.4095 207.311C43.1537 207.829 42.9193 208.542 42.4717 208.908C42.6422 208.93 42.8127 208.952 42.9832 208.973C42.4078 207.829 41.8536 206.664 41.2782 205.52C41.1077 205.175 40.5536 205.498 40.7454 205.865Z" fill="#10B6E8"/>
<path d="M257.132 101.165C256.471 102.439 256.066 103.777 255.874 105.201C255.81 105.612 256.45 105.612 256.514 105.201C256.684 103.885 257.068 102.655 257.664 101.489C257.878 101.122 257.323 100.798 257.132 101.165Z" fill="#10B6E8"/>
<path d="M257.046 101.921C257.707 103.216 258.346 104.511 259.007 105.806C259.199 106.173 259.753 105.849 259.561 105.482C258.9 104.187 258.261 102.892 257.6 101.597C257.408 101.23 256.854 101.554 257.046 101.921Z" fill="#10B6E8"/>
<path d="M255.917 105.287C256.449 106.582 257.089 107.791 257.856 108.935C258.09 109.28 258.645 108.957 258.41 108.611C257.664 107.51 257.025 106.345 256.535 105.115C256.385 104.748 255.767 104.92 255.917 105.287Z" fill="#10B6E8"/>
<path d="M258.815 105.568C258.431 106.776 258.112 108.007 257.899 109.28C257.835 109.69 258.453 109.863 258.517 109.453C258.73 108.201 259.028 106.971 259.433 105.74C259.561 105.352 258.943 105.179 258.815 105.568Z" fill="#10B6E8"/>
<path d="M254.659 205.951C254.403 206.815 254.169 207.656 253.913 208.52C253.807 208.93 254.403 209.081 254.531 208.692C254.787 207.829 255.021 206.987 255.277 206.124C255.405 205.714 254.787 205.541 254.659 205.951Z" fill="#10B6E8"/>
<path d="M254.617 206.427C255 207.29 255.405 208.154 255.789 208.995C255.959 209.384 256.513 209.038 256.343 208.672C255.959 207.808 255.554 206.945 255.171 206.103C255 205.715 254.446 206.038 254.617 206.427Z" fill="#10B6E8"/>
<path d="M254.084 208.931C254.276 209.945 254.744 210.852 255.405 211.629C255.682 211.953 256.13 211.478 255.853 211.176C255.256 210.485 254.872 209.665 254.702 208.78C254.617 208.348 253.998 208.521 254.084 208.931Z" fill="#10B6E8"/>
<path d="M255.767 208.844C255.49 209.75 255.362 210.679 255.384 211.607C255.405 212.017 256.044 212.017 256.023 211.607C256.002 210.722 256.108 209.858 256.385 209.017C256.513 208.628 255.895 208.455 255.767 208.844Z" fill="#10B6E8"/>
<path d="M34.586 92.0782C34.1171 93.1142 33.6695 94.1502 33.2006 95.1862C33.0301 95.5531 33.5843 95.8985 33.7548 95.51C34.2236 94.4739 34.6712 93.4379 35.1401 92.4019C35.3106 92.035 34.7565 91.6897 34.586 92.0782Z" fill="#10B6E8"/>
<path d="M33.2862 95.7256C33.7764 96.9991 34.2453 98.2509 34.7355 99.5243C34.8847 99.9128 35.5027 99.7402 35.3536 99.3517C34.8634 98.0782 34.3945 96.8264 33.9043 95.553C33.7551 95.1645 33.137 95.3371 33.2862 95.7256Z" fill="#10B6E8"/>
<path d="M34.586 92.1209C35.2467 93.2864 35.9074 94.4735 36.5681 95.639C36.7812 96.0059 37.314 95.6821 37.1222 95.3152C36.4615 94.1497 35.8008 92.9626 35.1401 91.7971C34.927 91.4302 34.3729 91.754 34.586 92.1209Z" fill="#10B6E8"/>
<path d="M36.7176 95.3587C36.0356 96.6537 35.4388 97.9918 34.9273 99.3516C34.7782 99.7401 35.3962 99.9128 35.5454 99.5243C36.0356 98.2077 36.611 96.9127 37.2717 95.6824C37.4635 95.3155 36.9094 94.9918 36.7176 95.3587Z" fill="#10B6E8"/>
<path d="M195.24 111.978C195.666 111.158 196.476 110.597 197.414 110.64C198.181 110.662 198.756 111.201 199.438 111.46C200.632 111.892 200.994 111.115 201.889 110.532C203.104 109.712 204.276 111.546 205.576 111.525C206.322 111.503 206.94 111.136 206.962 110.338C206.791 110.424 206.642 110.532 206.471 110.618C207.132 110.964 207.793 111.309 208.432 111.676C208.794 111.87 209.114 111.309 208.752 111.115C208.091 110.769 207.43 110.424 206.791 110.057C206.578 109.949 206.322 110.079 206.301 110.338C206.237 111.87 203.296 109.69 202.742 109.626C201.484 109.453 200.994 111.028 199.907 110.856C198.756 110.662 198.032 109.82 196.795 110.036C195.858 110.208 195.09 110.791 194.664 111.654C194.515 112.021 195.048 112.345 195.24 111.978Z" fill="#10B6E8"/>
<path d="M203.402 107.597C204.362 106.518 205.875 107.877 206.962 108.007C208.219 108.158 209.199 106.798 210.414 107.489C211.416 108.072 213.249 109.453 213.973 107.683C214.123 107.295 213.505 107.122 213.355 107.51C212.844 108.762 211.011 107.014 210.393 106.755C209.562 106.388 209.008 106.69 208.262 107.057C207.367 107.489 206.727 107.338 205.875 106.949C205.491 106.777 205.107 106.626 204.681 106.561C204.021 106.474 203.424 106.604 202.955 107.122C202.678 107.446 203.125 107.899 203.402 107.597Z" fill="#10B6E8"/>
<path d="M186.097 56.6814C186.395 56.1203 186.736 55.9692 187.12 56.2282C187.29 56.2929 187.461 56.3793 187.631 56.4872C187.823 56.5735 188.015 56.703 188.207 56.7678C188.548 56.8757 188.889 56.9188 189.23 56.8325C190.146 56.5735 190.615 55.408 191.595 55.4296C192.512 55.4512 193.172 56.3361 194.131 55.8829C194.536 55.6886 194.813 55.3433 195.197 55.1274C196.05 54.6526 197.094 54.8253 197.818 55.4296C198.138 55.6886 198.586 55.2354 198.266 54.9764C197.307 54.1778 195.986 53.9404 194.877 54.5663C194.387 54.8469 193.982 55.4512 193.343 55.3649C192.981 55.3217 192.661 55.0627 192.32 54.9332C191.808 54.7389 191.34 54.6742 190.828 54.9116C190.189 55.2138 189.762 56.0555 189.059 56.2066C188.164 56.4009 187.567 55.4728 186.736 55.4512C185.947 55.4296 185.031 56.2066 185.564 57.0052C185.777 57.3505 186.331 57.0268 186.097 56.6814Z" fill="#F7FAFC"/>
<path d="M193.173 52.8608C193.428 51.4579 195.837 52.8176 196.689 52.6666C197.243 52.5802 197.648 52.1917 198.16 51.9975C198.97 51.6737 199.758 51.8032 200.504 52.2565C200.866 52.4723 201.186 51.9111 200.824 51.6953C200.184 51.3068 199.502 51.1126 198.778 51.1773C198.458 51.1989 198.16 51.2852 197.883 51.3931C197.03 51.7601 196.689 52.1701 195.623 51.9111C194.6 51.6521 192.853 51.1341 192.576 52.6881C192.469 53.0982 193.087 53.2709 193.173 52.8608Z" fill="#F7FAFC"/>
<path d="M31.8156 130.864C32.0927 129.504 33.9469 131.36 34.3092 131.598C34.7141 131.878 35.1617 132.073 35.6519 131.965C36.2912 131.857 36.7814 131.317 37.4421 131.166C38.5077 130.929 39.5734 131.274 40.3406 132.051C40.639 132.353 41.0866 131.878 40.7882 131.598C40.1275 130.929 39.3176 130.519 38.3799 130.454C37.911 130.411 37.4421 130.476 36.9945 130.627C36.2912 130.864 35.7371 131.555 34.8846 131.209C33.9895 130.842 33.6485 129.914 32.6255 129.806C31.9648 129.742 31.3467 130.001 31.2189 130.691C31.1123 131.101 31.7304 131.274 31.8156 130.864Z" fill="#F7FAFC"/>
<path d="M38.9125 129.31C39.3814 128.662 41.534 129.957 42.152 130.108C43.1537 130.346 44.1767 130.346 45.1997 130.216C45.6046 130.151 45.4341 129.525 45.0292 129.59C43.2603 129.828 41.8963 129.353 40.2978 128.705C39.5732 128.425 38.8486 128.317 38.3584 128.986C38.124 129.31 38.6781 129.633 38.9125 129.31Z" fill="#F7FAFC"/>
<path d="M90.8726 174.548C91.2136 174.009 91.7464 173.663 92.4071 173.663C92.9612 173.663 93.3022 174.009 93.7924 174.16C94.2825 174.332 94.6875 174.224 95.1137 173.944C95.9449 173.383 96.3498 172.692 97.4794 172.735C98.5024 172.757 99.4828 173.253 100.378 173.706C100.74 173.901 101.06 173.34 100.698 173.145C99.0139 172.282 96.9679 171.462 95.3482 172.865C94.9859 173.167 94.9432 173.253 94.3891 173.361C93.771 173.491 93.835 173.404 93.3661 173.21C92.9612 173.037 92.5776 172.973 92.13 173.016C91.3414 173.102 90.7234 173.555 90.3184 174.203C90.1053 174.57 90.6594 174.894 90.8726 174.548Z" fill="#F7FAFC"/>
<path d="M97.9698 175.8C98.9715 174.915 100.868 176.772 102.104 176.599C102.85 176.491 103.191 175.93 103.682 175.412C104.619 174.397 106.026 174.246 107.177 175.002C107.518 175.218 107.838 174.678 107.497 174.441C106.665 173.901 105.685 173.728 104.726 174.009C104.3 174.138 103.916 174.333 103.575 174.613C103.064 175.045 102.744 175.822 102.019 175.951C100.463 176.232 98.9928 174.031 97.5222 175.347C97.2239 175.628 97.6714 176.081 97.9698 175.8Z" fill="#F7FAFC"/>
<path d="M68.8994 37.3645C69.0699 36.6522 69.4748 36.0911 70.1568 35.7889C70.7536 35.5299 71.2438 35.7026 71.8618 35.681C72.5438 35.6378 73.0553 35.2925 73.4603 34.7745C74.0783 33.9975 74.4833 33.1989 75.3571 32.6809C76.3588 32.0981 77.5097 31.9902 78.6179 32.3356C79.0228 32.4651 79.172 31.8391 78.7884 31.7096C76.7424 31.0837 74.7177 31.8823 73.4816 33.6306C72.9914 34.3212 72.6291 35.0119 71.6913 35.0335C71.1159 35.0551 70.6257 34.9256 70.0716 35.1198C69.1338 35.4436 68.4945 36.2422 68.2813 37.1918C68.1748 37.6019 68.7928 37.7746 68.8994 37.3645Z" fill="#F7FAFC"/>
<path d="M71.9043 39.8467C70.9878 37.3862 75.3782 37.5157 76.6996 37.0409C78.3407 36.4581 79.7473 35.4221 81.1326 34.3861C81.4523 34.1487 81.1326 33.5875 80.8129 33.8249C79.8752 34.5372 78.9161 35.2279 77.8931 35.789C76.6143 36.4797 75.3995 36.6955 74.0142 36.9114C72.5436 37.1488 70.6255 38.1848 71.3075 39.9978C71.4354 40.3863 72.0534 40.2352 71.9043 39.8467Z" fill="#F7FAFC"/>
<path d="M164.763 127.376C164.763 141.913 159.688 154.324 150.03 163.561C143.177 170.118 132.621 179.309 132.621 189.027V197.067H100.479V189.027C100.479 179.208 89.8811 169.998 83.0693 163.561C73.6297 154.648 68.3365 141.394 68.3365 127.376V127.078C68.378 114.283 73.4963 102.028 82.5656 93.0089C91.6349 83.9898 103.913 78.9452 116.698 78.9846C129.484 79.024 141.73 84.1442 150.744 93.2191C159.757 102.294 164.8 114.58 164.763 127.376Z" fill="#10B6E8"/>
<path d="M132.62 198.196C132.321 198.196 132.034 198.077 131.823 197.866C131.611 197.654 131.493 197.367 131.493 197.067V189.026C131.493 179.574 140.808 170.749 147.61 164.306C148.174 163.771 148.723 163.253 149.25 162.747C158.659 153.744 163.633 141.514 163.633 127.377C163.633 100.955 142.952 80.2575 116.55 80.2575H116.417C103.993 80.2715 92.0789 85.2081 83.2809 93.9881C74.483 102.768 69.5166 114.677 69.4677 127.111V127.375C69.4677 141.22 74.7078 154.11 83.8452 162.742C84.308 163.18 84.7888 163.63 85.2824 164.092C92.1721 170.548 101.608 179.389 101.608 189.026V197.067C101.608 197.367 101.489 197.654 101.278 197.866C101.066 198.077 100.779 198.196 100.48 198.196C100.181 198.196 99.8942 198.077 99.6827 197.866C99.4712 197.654 99.3524 197.367 99.3524 197.067V189.026C99.3524 180.367 90.33 171.913 83.7407 165.738C83.2448 165.274 82.7635 164.822 82.2967 164.382C72.7105 155.325 67.2122 141.837 67.2122 127.375V127.104C67.2873 99.9994 89.3488 77.9987 116.414 77.9987H116.553C129.57 77.931 142.081 83.0409 151.333 92.2044C160.585 101.368 165.821 113.834 165.888 126.861C165.889 127.033 165.889 127.205 165.888 127.377C165.888 142.145 160.674 154.94 150.809 164.378C150.279 164.885 149.728 165.408 149.16 165.945C142.657 172.107 133.747 180.545 133.747 189.026V197.067C133.747 197.367 133.628 197.654 133.417 197.866C133.205 198.077 132.918 198.196 132.619 198.196H132.62Z" fill="#3F3D56"/>
<path d="M127.264 212.678H105.836C105.338 212.678 104.859 212.48 104.507 212.127C104.154 211.774 103.956 211.296 103.956 210.797C103.956 210.298 104.154 209.82 104.507 209.467C104.859 209.114 105.338 208.916 105.836 208.916H127.264C127.763 208.916 128.241 209.114 128.593 209.467C128.946 209.82 129.144 210.298 129.144 210.797C129.144 211.296 128.946 211.774 128.593 212.127C128.241 212.48 127.763 212.678 127.264 212.678Z" fill="#10B6E8"/>
<path d="M118.854 225.282H114.243C112.641 225.283 111.069 224.847 109.696 224.021C109.492 223.902 109.335 223.718 109.248 223.499C109.162 223.28 109.152 223.038 109.219 222.812C109.281 222.58 109.418 222.375 109.609 222.229C109.799 222.083 110.033 222.005 110.272 222.006H122.824C123.064 222.005 123.298 222.083 123.488 222.229C123.679 222.375 123.816 222.58 123.878 222.812C123.945 223.038 123.935 223.28 123.848 223.499C123.762 223.718 123.604 223.902 123.401 224.021C122.028 224.847 120.456 225.283 118.854 225.282Z" fill="#3F3D56"/>
<path d="M127.268 218.621L105.713 218.618L105.646 218.475C105.582 218.212 105.58 217.937 105.638 217.673C105.697 217.408 105.815 217.16 105.984 216.948C106.155 216.731 106.374 216.556 106.623 216.435C106.872 216.315 107.145 216.252 107.421 216.253H125.676C125.952 216.252 126.225 216.315 126.474 216.435C126.723 216.556 126.942 216.731 127.113 216.949C127.28 217.158 127.398 217.402 127.457 217.663C127.517 217.924 127.516 218.195 127.455 218.456L127.421 218.602L127.268 218.621Z" fill="#3F3D56"/>
<path d="M66.7017 83.0353C66.2473 83.0358 65.8083 82.8709 65.4664 82.5714L49.3243 68.4703C48.9545 68.1406 48.7297 67.6782 48.6986 67.1835C48.6676 66.6889 48.8329 66.202 49.1586 65.8286C49.4843 65.4552 49.944 65.2256 50.438 65.1896C50.9319 65.1535 51.4201 65.314 51.7964 65.6362L67.9385 79.7373C68.2268 79.9892 68.4315 80.3231 68.5251 80.6944C68.6187 81.0658 68.5968 81.4569 68.4623 81.8155C68.3279 82.1741 68.0872 82.483 67.7726 82.7011C67.458 82.9191 67.0844 83.0358 66.7017 83.0357V83.0353Z" fill="#E4E4E4"/>
<path d="M163.721 83.0348C163.338 83.035 162.965 82.9183 162.65 82.7002C162.336 82.4822 162.095 82.1732 161.961 81.8147C161.826 81.4561 161.804 81.065 161.898 80.6936C161.991 80.3223 162.196 79.9884 162.484 79.7365L178.626 65.6342C179.002 65.3121 179.491 65.1516 179.984 65.1876C180.478 65.2236 180.938 65.4533 181.264 65.8267C181.59 66.2 181.755 66.6869 181.724 67.1816C181.693 67.6762 181.468 68.1386 181.098 68.4683L164.956 82.5695C164.615 82.8694 164.176 83.0349 163.721 83.0348Z" fill="#E4E4E4"/>
<path d="M132.62 206.002H100.478C99.9798 206.002 99.5017 205.804 99.1492 205.452C98.7967 205.099 98.5986 204.62 98.5986 204.121C98.5986 203.622 98.7967 203.144 99.1492 202.791C99.5017 202.438 99.9798 202.24 100.478 202.24H132.62C133.119 202.24 133.597 202.438 133.949 202.791C134.302 203.144 134.5 203.622 134.5 204.121C134.5 204.62 134.302 205.099 133.949 205.452C133.597 205.804 133.119 206.002 132.62 206.002Z" fill="#10B6E8"/>
<path d="M115.76 156.861L109.076 197.067H105.26L112.05 156.244C112.132 155.751 112.405 155.311 112.811 155.021C113.217 154.731 113.721 154.614 114.213 154.695C114.705 154.777 115.145 155.051 115.435 155.457C115.725 155.863 115.842 156.368 115.76 156.861Z" fill="#E6E6E6"/>
<path d="M128.606 197.067H124.79L118.106 156.861C118.024 156.368 118.141 155.863 118.431 155.457C118.722 155.051 119.161 154.777 119.653 154.695C120.145 154.614 120.649 154.731 121.055 155.021C121.461 155.311 121.735 155.751 121.816 156.244L128.606 197.067Z" fill="#E6E6E6"/>
<path d="M104.334 155.517C104.334 155.018 104.532 154.539 104.884 154.187C105.237 153.834 105.715 153.636 106.213 153.636H126.887C127.385 153.636 127.863 153.834 128.216 154.187C128.568 154.539 128.766 155.018 128.766 155.517C128.766 156.016 128.568 156.494 128.216 156.847C127.863 157.2 127.385 157.398 126.887 157.398H106.213C105.715 157.398 105.237 157.2 104.884 156.847C104.532 156.494 104.334 156.016 104.334 155.517Z" fill="#E6E6E6"/>
<path d="M116.55 64.2573C116.052 64.2573 115.573 64.0591 115.221 63.7063C114.868 63.3535 114.67 62.8751 114.67 62.3762V30.2092C114.67 29.7103 114.868 29.2319 115.221 28.8791C115.573 28.5263 116.052 28.3281 116.55 28.3281C117.049 28.3281 117.527 28.5263 117.879 28.8791C118.232 29.2319 118.43 29.7103 118.43 30.2092V62.3762C118.43 62.8751 118.232 63.3535 117.879 63.7063C117.527 64.0591 117.049 64.2573 116.55 64.2573Z" fill="#E4E4E4"/>
<path d="M210.868 202.157C210.932 202.783 211.167 203.279 211.529 203.883C213.064 206.387 215.6 207.919 217.433 208.804C216.708 211.114 215.834 214.438 215.195 218.495C214.598 222.402 213.895 226.956 214.811 227.258C215.131 227.366 216.069 227.064 224.785 209.581C226 207.142 227.002 205.114 227.663 203.732C223.016 201.617 218.392 199.48 213.746 197.365C213.298 197.711 210.634 199.675 210.868 202.157Z" fill="#111314" stroke="#111314" stroke-width="2" stroke-miterlimit="10"/>
<path d="M201.15 154.414C197.228 157.177 194.692 159.853 192.433 162.27C191.516 163.242 187.126 167.968 182.501 175.393C180.455 178.674 178.942 181.566 177.898 183.746C178.026 184.631 178.324 185.904 179.113 187.178C179.986 188.602 180.967 189.228 182.501 190.609C184.377 192.293 185.059 193.286 186.146 194.408C188.256 196.61 191.218 198.271 197.058 201.531C204.389 205.61 208.332 207.099 209.547 207.552C211.039 208.092 212.296 208.502 213.191 208.783C213.617 206.775 214.129 204.639 214.768 202.394C215.344 200.387 215.962 198.509 216.58 196.761C212.04 193.394 207.373 189.617 202.642 185.343C201 183.875 199.423 182.386 197.91 180.918C199.445 179.041 201.597 176.58 204.325 173.925C205.114 173.148 206.776 171.551 208.801 169.868C211.358 167.774 215.216 164.968 220.544 162.378C221.46 156.184 220.374 150.4 217.027 148.522C212.85 146.191 206.499 150.659 201.15 154.414Z" fill="#F7FAFC"/>
<path d="M196.844 157.63C189.3 164.105 183.055 172.112 178.622 181.069C178.175 181.997 177.535 183.033 177.45 184.069C177.365 185.17 178.026 186.012 178.622 186.854C180.05 188.818 181.67 190.652 183.396 192.357C187.062 195.919 191.282 198.854 195.715 201.336C201.171 204.401 206.947 206.84 212.701 209.257C213.085 209.408 213.255 208.782 212.871 208.631C203.451 204.66 193.839 200.602 185.975 193.847C184.206 192.314 182.522 190.674 181.009 188.883C180.221 187.933 179.432 186.962 178.75 185.947C178.324 185.321 178.004 184.739 178.111 183.94C178.217 183.163 178.665 182.429 179.006 181.717C181.052 177.508 183.503 173.515 186.316 169.781C189.534 165.486 193.221 161.58 197.292 158.105C197.612 157.824 197.164 157.371 196.844 157.63Z" fill="#111314"/>
<path d="M214.917 165.076C207.607 169.867 201.213 175.932 196.034 183.012C195.8 183.357 196.354 183.681 196.589 183.335C201.704 176.342 208.033 170.342 215.237 165.616C215.578 165.421 215.258 164.86 214.917 165.076Z" fill="#111314"/>
<path d="M197.548 181.243C203.537 186.725 209.696 191.991 216.047 197.02C216.367 197.279 216.814 196.826 216.495 196.567C210.144 191.538 203.963 186.272 197.995 180.789C197.697 180.509 197.249 180.962 197.548 181.243Z" fill="#111314"/>
<path d="M216.068 196.934C214.726 200.776 213.681 204.704 212.914 208.697C212.829 209.107 213.447 209.28 213.532 208.869C214.299 204.877 215.365 200.948 216.686 197.107C216.814 196.718 216.196 196.545 216.068 196.934Z" fill="#111314"/>
<path opacity="0.11" d="M209.397 162.659C206.456 162.918 204.24 165.098 197.398 174.724C194.777 178.415 192.582 181.631 190.898 184.178C193.328 185.905 195.246 187.329 196.461 188.257C203.259 193.416 206.115 196.308 211.891 199.459C213.148 200.15 214.193 200.646 214.811 200.927C215.301 199.567 215.791 198.207 216.26 196.847C214.64 195.423 213.021 194.02 211.379 192.595C206.861 188.71 202.386 184.955 197.931 181.307C199.785 178.674 201.533 176.689 202.812 175.329C206.584 171.336 210.335 168.638 213.255 166.566C214.257 165.854 215.109 165.293 215.663 164.926C212.914 162.789 210.761 162.53 209.397 162.659Z" fill="#636E72"/>
<path opacity="0.08" d="M210.25 168.292C208.417 168.724 205.966 169.565 203.473 171.249C197.377 175.371 195.331 181.674 194.735 183.832C198.017 186.422 201.405 189.034 204.922 191.645C208.332 194.192 211.721 196.609 215.024 198.94C215.514 198.228 216.004 197.494 216.473 196.782C211.934 193.437 207.224 189.573 202.514 185.149C201.022 183.767 199.594 182.364 198.23 180.983C198.976 179.99 199.786 178.976 200.638 177.94C203.835 174.098 207.117 170.925 210.25 168.292Z" fill="#636E72"/>
<path d="M250.594 195.098C252.854 197.256 255.134 199.436 257.393 201.595C256.796 215.365 257.926 218.602 259.12 218.84C260.974 219.207 264.149 212.71 265.535 207.595C266.579 203.71 266.685 200.3 266.579 197.99C263.041 194.796 259.503 191.602 255.965 188.386C254.175 190.63 252.385 192.875 250.594 195.098Z" fill="#111314" stroke="#111314" stroke-width="2" stroke-miterlimit="10"/>
<path d="M206.243 156.27C206.435 159.853 208.907 162.033 208.907 162.033C210.442 163.393 212.168 163.76 213.021 163.868C213.703 164.148 214.385 164.451 215.088 164.731C216.153 166.285 217.731 168.487 219.819 170.99C222.59 174.357 226.32 178.372 235.441 185.969C239.938 189.703 245.735 194.3 252.747 199.351C253.749 198.854 254.942 198.121 256.136 197.041C258.757 194.689 259.972 191.948 260.526 190.394C259.29 189.185 257.457 187.372 255.326 185.127C245.863 175.221 239.555 166.738 234.738 160.22C231.562 155.925 227.492 150.206 222.995 143.299C212.701 146.148 205.987 151.673 206.243 156.27Z" fill="#F7FAFC"/>
<path d="M209.547 162.853C211.252 163.458 212.935 164.04 214.64 164.645C215.024 164.774 215.194 164.148 214.811 164.019C213.106 163.415 211.422 162.832 209.717 162.227C209.333 162.098 209.163 162.724 209.547 162.853Z" fill="#111314"/>
<path d="M213.937 163.998C221.951 175.156 232.33 184.178 243.093 192.531C246.183 194.927 249.316 197.301 252.449 199.654C252.79 199.913 253.088 199.33 252.769 199.092C241.984 190.999 231.136 182.797 221.972 172.825C219.308 169.933 216.814 166.868 214.513 163.674C214.257 163.35 213.703 163.674 213.937 163.998Z" fill="#111314"/>
<path d="M226.512 148.954C234.056 160.674 242.56 171.724 251.937 181.998C254.644 184.976 257.436 187.869 260.271 190.696C260.569 190.998 261.017 190.523 260.718 190.243C250.85 180.444 241.814 169.803 233.715 158.472C231.413 155.256 229.197 151.975 227.044 148.63C226.831 148.285 226.277 148.608 226.512 148.954Z" fill="#111314"/>
<path d="M259.908 190.285C258.672 193.998 256.285 197.451 252.683 199.091C252.3 199.264 252.641 199.825 253.003 199.653C256.754 197.947 259.226 194.321 260.505 190.458C260.654 190.07 260.036 189.897 259.908 190.285Z" fill="#111314"/>
<path opacity="0.09" d="M226.532 148.609C225.318 146.947 224.295 145.587 223.613 144.702C222.931 145.976 221.993 148.112 221.908 150.767C221.716 156.767 226.064 159.336 238.531 173.322C243.966 179.408 246.843 183.077 253.855 190.329C255.496 192.013 256.881 193.416 257.883 194.409C258.65 193.049 259.418 191.689 260.206 190.329C253.45 183.466 248.101 177.271 244.094 172.372C240.236 167.645 236.784 163.415 233.225 158.149C232.308 156.832 229.985 153.314 226.532 148.609Z" fill="#636E72"/>
<path opacity="0.09" d="M230.305 154.673C230.603 156.162 231.221 158.687 232.436 161.623C235.953 169.997 241.153 173.537 250.509 184.005C252.299 186.012 255.07 189.185 258.31 193.285C259.056 192.206 259.801 191.149 260.547 190.07C259.865 189.422 258.778 188.408 257.457 187.113C255.027 184.738 248.442 178.112 235.867 161.946C234.503 160.22 232.585 157.716 230.305 154.673Z" fill="#636E72"/>
<path d="M138.619 130.781C138.171 131.04 137.34 131.493 137.17 132.443C136.957 133.5 137.702 134.363 137.809 134.471C137.681 134.622 137.298 135.076 137.255 135.766C137.212 136.91 138.214 137.579 138.257 137.623C138.214 137.666 137.596 138.313 137.809 139.198C137.98 139.954 138.64 140.277 138.725 140.299C138.683 140.428 138.534 140.99 138.811 141.508C139.237 142.285 140.26 142.241 140.367 142.241C141.091 142.198 141.773 141.702 142.093 140.946C142.498 141.184 143.563 141.745 145.013 141.594C145.993 141.486 146.718 141.097 147.101 140.86C147.869 142.22 149.062 144.054 150.831 145.932C152.387 147.572 155.285 150.659 159.59 151.932C164.961 153.529 169.714 151.457 172.442 150.27C179.773 147.076 183.418 141.205 184.76 139.004C187.02 135.248 187.808 132.032 188.49 129.119C189.598 124.5 189.215 122.687 188.852 121.629C188.639 120.982 187.382 117.269 184.483 116.838C182.118 116.471 180.157 118.521 179.923 118.78C179.113 119.644 178.686 120.788 177.834 123.032C177.408 124.176 177.131 125.039 177.003 125.428C175.617 129.982 174.914 132.248 174.722 132.723C174.211 134.018 172.996 136.975 170.076 139.284C167.284 141.486 164.364 141.961 163.064 142.155C161.104 142.436 158.695 142.781 156.138 141.508C153.282 140.083 152.003 137.493 151.662 136.802C150.639 134.666 150.447 132.291 150.298 130.608C150.106 128.45 150.256 126.766 149.019 125.428C148.785 125.191 148.231 124.586 147.655 124.694C146.824 124.867 146.355 126.486 145.929 128.018C145.567 129.313 145.673 129.464 145.375 129.766C144.757 130.392 143.968 130.068 141.262 130.219C139.685 130.327 139.13 130.5 138.619 130.781Z" fill="#F7FAFC"/>
<path d="M143.03 129.853C140.729 129.421 136.679 130.026 136.999 133.22C137.276 136.09 140.643 136.587 142.668 135.335C143.009 135.119 142.689 134.558 142.348 134.774C140.665 135.81 137.617 135.529 137.617 132.939C137.617 130.436 141.091 130.155 142.86 130.479C143.265 130.565 143.435 129.939 143.03 129.853Z" fill="#111314"/>
<path d="M137.553 134.277C135.251 137.126 140.792 140.709 142.433 137.126C142.604 136.76 142.049 136.414 141.879 136.803C140.6 139.565 136.338 136.803 138.021 134.731C138.277 134.429 137.83 133.954 137.553 134.277Z" fill="#111314"/>
<path d="M137.681 137.169C137.191 138.292 137.532 139.716 138.661 140.299C139.77 140.882 141.155 140.342 141.73 139.263C141.922 138.896 141.368 138.572 141.176 138.939C140.75 139.694 139.791 140.126 138.981 139.738C138.171 139.349 137.873 138.292 138.235 137.493C138.406 137.126 137.852 136.802 137.681 137.169Z" fill="#111314"/>
<path d="M138.193 140.061C138.107 141.205 138.768 142.241 139.919 142.479C140.985 142.695 141.965 141.982 142.327 141.011C142.476 140.623 141.858 140.45 141.709 140.838C141.432 141.572 140.665 142.047 139.898 141.81C139.109 141.572 138.789 140.838 138.832 140.061C138.853 139.651 138.214 139.651 138.193 140.061Z" fill="#111314"/>
<path d="M140.217 133.004C140.771 132.939 141.347 132.96 141.816 133.284C142.263 133.586 142.519 134.191 142.263 134.687C142.072 135.054 142.626 135.378 142.817 135.011C143.158 134.342 143.009 133.565 142.498 133.025C141.922 132.399 141.006 132.27 140.196 132.356C139.812 132.421 139.812 133.068 140.217 133.004Z" fill="#111314"/>
<path d="M142.199 141.443C143.307 141.033 144.373 141.961 145.524 141.831C146.398 141.723 147.165 141.248 147.89 140.817C148.231 140.601 147.911 140.04 147.57 140.256C146.483 140.925 145.545 141.4 144.245 141.011C143.457 140.774 142.839 140.515 142.029 140.817C141.645 140.968 141.794 141.594 142.199 141.443Z" fill="#111314"/>
<path d="M142.86 130.413C143.968 130.802 145.46 130.866 146.078 129.636C146.419 128.945 146.206 128.104 146.355 127.37C146.526 126.377 147.08 125.557 147.847 124.931C148.167 124.672 147.719 124.219 147.4 124.478C146.568 125.168 145.972 126.118 145.758 127.197C145.652 127.802 145.801 128.514 145.631 129.097C145.247 130.262 143.968 130.111 143.073 129.787C142.647 129.658 142.476 130.284 142.86 130.413Z" fill="#111314"/>
<path d="M147.378 124.974C149.19 125.212 149.424 128.298 149.723 129.701C150.085 131.536 150.277 133.392 150.618 135.226C151.172 138.162 152.856 140.493 155.541 141.809C158.354 143.169 161.551 143.104 164.492 142.284C167.519 141.421 170.652 139.867 172.612 137.298C172.868 136.975 172.421 136.521 172.165 136.845C170.119 139.522 166.794 141.097 163.597 141.853C160.379 142.608 156.862 142.327 154.177 140.212C151.279 137.946 151.215 134.536 150.639 131.147C150.362 129.55 150.128 127.823 149.552 126.313C149.19 125.363 148.615 124.5 147.57 124.348C147.144 124.284 146.973 124.91 147.378 124.974Z" fill="#111314"/>
<path d="M146.909 141.249C149.488 144.443 151.981 148.091 155.391 150.444C158.738 152.731 162.872 152.969 166.751 152.321C174.637 150.983 181.329 145.566 185.165 138.573C187.36 134.601 188.66 130.198 189.236 125.687C189.278 125.277 188.639 125.277 188.596 125.687C187.616 133.393 184.291 140.947 178.366 146.041C175.447 148.544 171.973 150.422 168.243 151.328C164.385 152.278 159.931 152.408 156.414 150.314C152.663 148.091 150.042 144.12 147.357 140.774C147.101 140.472 146.653 140.925 146.909 141.249Z" fill="#111314"/>
<path d="M184.782 116.752C183.013 116.039 181.137 116.967 179.901 118.284C178.452 119.795 177.727 121.802 177.194 123.788C176.576 126.097 176.022 128.385 175.148 130.608C174.211 133.004 173.017 135.27 171.653 137.428C171.419 137.774 171.973 138.097 172.207 137.752C174.402 134.32 176.086 130.586 177.13 126.637C177.685 124.565 178.047 122.406 179.07 120.529C180.093 118.629 182.267 116.428 184.611 117.377C184.995 117.529 185.165 116.903 184.782 116.752Z" fill="#111314"/>
<path d="M141.177 139.716C141.773 139.76 141.645 140.774 141.539 141.141C141.411 141.529 142.029 141.702 142.157 141.314C142.434 140.493 142.242 139.155 141.177 139.069C140.772 139.047 140.772 139.695 141.177 139.716Z" fill="#111314"/>
<path d="M141.539 137.73C141.667 138.248 141.475 138.788 141.07 139.09C140.729 139.328 141.049 139.889 141.39 139.651C142.05 139.176 142.37 138.356 142.157 137.558C142.072 137.148 141.453 137.32 141.539 137.73Z" fill="#111314"/>
<path d="M141.901 135.486C142.476 135.767 142.093 136.695 141.816 137.062C141.56 137.386 142.114 137.709 142.37 137.386C142.86 136.738 143.116 135.357 142.221 134.925C141.858 134.753 141.539 135.314 141.901 135.486Z" fill="#111314"/>
<path opacity="0.11" d="M137.511 135.572C137.852 135.378 138.406 136.587 139.834 137.191C140.367 137.407 141.027 137.558 144.054 137.191C145.034 137.061 146.313 136.889 147.847 136.608C148.146 137.838 148.764 139.695 150.021 141.615C150.554 142.414 152.706 145.522 156.862 147.357C161.317 149.342 165.345 148.673 166.901 148.393C168.222 148.155 171.909 147.443 175.191 144.551C177.386 142.63 178.793 140.299 180.86 134.234C182.267 130.112 183.972 124.392 185.229 117.291C186.082 118.176 187.403 119.773 188.149 122.147C188.511 123.291 188.852 124.975 188.575 127.608C188 133.284 185.187 138.011 183.482 140.428C181.713 142.954 178.559 147.313 172.719 150.011C171.93 150.378 167.476 152.342 161.807 152.083C160.507 152.019 159.313 151.954 157.843 151.414C156.244 150.832 154.646 149.321 151.47 146.342C150.149 145.112 148.849 143.817 147.528 141.939C147.272 141.572 147.059 141.249 146.909 141.033C146.462 141.335 145.801 141.68 145.055 141.594C144.054 141.508 143.713 140.774 142.881 140.903C142.157 141.011 142.157 141.615 141.283 141.939C140.601 142.177 139.642 142.155 139.003 141.659C138.534 141.292 138.47 140.882 137.937 138.551C137.425 136.263 137.276 135.702 137.511 135.572Z" fill="#636E72"/>
<path d="M182.117 117.248C182.416 119.32 182.991 122.6 184.185 126.485C186.7 134.601 189.662 138.076 193.584 147.486C194.564 149.839 195.949 153.378 197.313 157.846C199.849 158.688 204.559 159.832 210.314 158.817C219.777 157.155 225.339 150.81 226.895 148.889C223.655 142.846 220.395 136.306 217.219 129.291C214.065 122.341 211.316 115.651 208.929 109.283C206.925 108.528 201.682 106.845 195.246 108.442C187.552 110.319 183.311 115.651 182.117 117.248Z" fill="#F7FAFC" stroke="#111314"/>
<path opacity="0.13" d="M200.83 107.708C201.64 109.435 202.663 111.787 203.75 114.636C207.16 123.701 208.396 131.148 208.843 133.802C209.802 139.284 210.634 147.788 209.27 158.709C212.232 158.623 214.427 157.932 215.813 157.393C219.777 155.796 222.654 153.011 225.424 150.314C226.064 149.709 226.554 149.17 226.874 148.846C225.957 147.249 224.572 144.745 222.952 141.615C218.263 132.594 215.194 125.104 212.616 118.759C211.699 116.536 210.442 113.341 208.971 109.478C207.799 108.981 206.328 108.485 204.602 108.161C203.196 107.881 201.917 107.751 200.83 107.708Z" fill="#636E72"/>
<path opacity="0.1" d="M214.939 124.824C215.301 128.688 215.599 131.925 215.813 134.256C216.622 143.386 216.772 145.911 216.836 147.53C217.006 151.35 217.006 154.48 216.985 156.53C218.306 156.055 220.011 155.278 221.78 154.026C223.997 152.451 225.488 150.724 226.447 149.451C222.611 141.228 218.775 133.026 214.939 124.824Z" fill="#636E72"/>
<path d="M199.807 103.909C198.784 104.212 198.23 105.701 197.889 107.233C197.207 110.363 197.569 113.039 197.697 113.967C198.315 118.09 199.423 121.176 199.786 122.191C200.723 124.694 202.002 128.04 204.794 131.601C206.393 133.63 207.757 135.378 210.271 136.673C211.742 137.45 214.79 139.026 217.923 137.774C218.072 137.709 221.141 136.436 221.929 133.716C222.1 133.112 222.142 132.507 222.206 131.32C222.249 130.608 222.27 129.356 222.121 127.802C221.908 125.752 221.46 124.155 221.119 123.011C219.606 117.939 218.86 115.413 217.283 113.212C215.983 111.399 214.513 109.327 212.083 109.046C211.87 109.025 209.419 108.787 207.97 110.514C206.968 111.723 207.032 113.212 207.053 114.205C207.117 116.104 207.842 117.464 208.971 119.557C210.101 121.629 210.548 121.888 211.891 124.349C213.724 127.716 213.532 128.04 213.447 128.126C213.085 128.45 211.635 127.435 211.316 127.198C211.017 126.982 210.591 126.68 210.058 126.097C208.396 124.219 207.416 121.392 207.416 121.392C206.542 119.644 205.391 117.162 204.219 114.01C204.581 112.608 205.135 111.615 205.583 110.967C206.307 109.931 207.117 109.219 207.309 107.924C207.394 107.428 207.352 106.996 207.309 106.715C207.671 106.37 207.778 105.852 207.586 105.42C207.352 104.924 206.776 104.686 206.222 104.859C206.222 104.794 206.158 104.233 205.668 103.931C205.263 103.672 204.709 103.715 204.304 104.017C203.665 103.521 203.132 103.391 202.748 103.37C202.301 103.348 202.087 103.456 201.022 103.65C200.127 103.888 200.063 103.845 199.807 103.909Z" fill="#F7FAFC"/>
<path d="M205.156 113.017C205.732 111.571 206.456 110.254 207.245 108.916C207.65 108.226 208.119 107.362 207.565 106.607C206.307 104.966 204.602 107.06 204.069 108.139C203.877 108.506 204.432 108.83 204.623 108.463C204.943 107.815 205.305 107.017 206.051 106.801C206.265 106.693 206.478 106.693 206.712 106.758C206.776 107.254 206.84 107.751 206.925 108.247C206.861 108.528 206.478 108.981 206.328 109.24C205.646 110.384 205.092 111.593 204.581 112.823C204.389 113.233 205.007 113.384 205.156 113.017Z" fill="#111314"/>
<path d="M198.187 115.801C197.867 113.492 197.825 111.139 198.08 108.83C198.315 106.714 198.762 103.499 201.661 104.103C202.066 104.189 202.236 103.563 201.831 103.477C199.551 103.002 198.123 104.642 197.739 106.736C197.164 109.779 197.143 112.887 197.569 115.974C197.633 116.384 198.251 116.211 198.187 115.801Z" fill="#111314"/>
<path d="M200.851 105.852C201.085 105.29 201.341 104.708 201.789 104.276C202.556 103.521 203.536 103.931 204.368 104.341C204.73 104.535 205.05 103.974 204.687 103.78C203.813 103.326 202.833 102.895 201.895 103.391C201.085 103.823 200.659 104.708 200.318 105.506C200.148 105.916 200.702 106.24 200.851 105.852Z" fill="#111314"/>
<path d="M202.748 106.046C203.536 105.01 204.581 103.931 205.945 104.751C206.307 104.967 206.627 104.406 206.264 104.19C204.645 103.219 203.281 104.276 202.3 105.571C202.044 105.916 202.492 106.37 202.748 106.046Z" fill="#111314"/>
<path d="M204.176 106.521C204.581 106.089 205.007 105.636 205.561 105.42C206.222 105.139 207.437 105.312 207.181 106.327C207.096 106.737 207.693 106.909 207.799 106.499C208.012 105.614 207.437 104.794 206.563 104.643C205.391 104.427 204.474 105.291 203.729 106.068C203.451 106.37 203.899 106.823 204.176 106.521Z" fill="#111314"/>
<path d="M204.431 112.693C203.686 114.312 204.602 115.953 205.241 117.442C206.136 119.535 207.074 121.629 208.225 123.571C209.717 126.118 212.956 130.694 216.345 128.082C216.665 127.823 216.345 127.262 216.025 127.521C212.765 130.046 209.738 124.953 208.417 122.6C207.65 121.219 206.968 119.794 206.328 118.348C205.689 116.902 204.261 114.636 205.007 113.017C205.156 112.65 204.602 112.305 204.431 112.693Z" fill="#111314"/>
<path d="M207.181 111.053C205.305 117.506 211.06 122.514 213.17 128.039C213.319 128.427 213.937 128.255 213.788 127.866C211.742 122.514 205.987 117.463 207.799 111.226C207.906 110.815 207.288 110.643 207.181 111.053Z" fill="#111314"/>
<path d="M197.547 115.629C198.634 121.672 201.17 127.392 204.9 132.248C206.712 134.579 208.779 136.845 211.635 137.795C214.065 138.593 217.411 139.004 219.67 137.514C222.142 135.917 222.462 132.658 222.568 129.96C222.59 129.55 221.95 129.55 221.929 129.96C221.801 133.435 221.034 137.277 216.963 137.773C213.212 138.227 209.717 136.716 207.181 133.975C202.471 128.903 199.38 122.276 198.144 115.456C198.101 115.046 197.483 115.219 197.547 115.629Z" fill="#111314"/>
<path d="M207.607 111.916C208.289 109.154 211.571 108.959 213.617 110.168C215.706 111.398 217.134 113.621 218.178 115.758C219.265 118.003 220.054 120.42 220.821 122.794C221.695 125.514 222.355 128.363 221.908 131.233C221.844 131.643 222.462 131.816 222.526 131.406C223.037 128.125 222.228 124.953 221.183 121.845C220.224 119.017 219.286 116.103 217.688 113.557C216.345 111.398 214.342 109.154 211.699 108.787C209.653 108.506 207.479 109.628 206.968 111.744C206.883 112.154 207.501 112.326 207.607 111.916Z" fill="#111314"/>
<path opacity="0.1" d="M200.595 103.628C202.3 102.937 203.963 103.693 204.368 103.887C203.174 105.484 200.638 109.348 200.425 114.808C200.105 122.578 204.687 127.737 206.307 129.571C208.396 131.924 211.124 134.989 214.64 134.557C216.622 134.32 218.498 132.981 219.457 131.276C220.416 129.571 220.352 127.715 219.201 122.924C217.432 115.672 215.493 111.42 215.77 111.29C216.047 111.161 218.349 114.808 220.075 119.384C220.245 119.859 221.673 123.701 222.185 128.989C222.505 132.248 222.227 133.586 221.567 134.773C220.544 136.607 218.881 137.428 218.242 137.708C215.663 138.809 213.191 138.032 212.019 137.622C207.82 136.197 205.582 132.744 203.323 129.269C199.849 123.895 198.89 119.298 197.974 114.873C197.335 111.808 196.908 108.247 198.507 105.635C198.784 105.096 199.402 104.125 200.595 103.628Z" fill="#636E72"/>
<path d="M169.82 93.1181C169.756 94.1325 170.118 95.2764 170.886 97.5643C171.738 100.133 172.655 102.874 174.956 105.572C176.427 107.298 178.217 109.414 181.265 110.018C183.673 110.493 185.698 109.802 186.721 109.37C186.955 110.018 187.275 110.709 187.68 111.421C188.745 113.32 190.067 114.658 191.111 115.543C191.9 115.457 193.434 115.133 194.756 113.924C195.779 112.975 196.269 111.852 196.567 111.119C196.929 110.255 197.121 109.5 197.207 108.96C196.567 108.572 195.864 108.054 195.182 107.342C193.051 105.14 192.475 102.528 192.305 101.277C192.582 98.7945 192.88 96.2909 193.157 93.8088C193.477 93.8519 194.159 93.8951 194.756 93.485C195.416 93.0318 195.544 92.2764 195.715 91.4346C195.885 90.5929 196.077 89.5137 195.608 88.2834C195.395 87.7439 194.713 86.0172 193.264 85.9093C192.283 85.8229 191.282 86.492 190.706 87.528C189.47 86.3194 186.827 84.1826 183.119 83.8373C176.704 83.2329 170.182 88.305 169.82 93.1181Z" fill="#F7FAFC"/>
<path d="M179.283 102.981C179.112 103.434 179.602 104.082 179.965 104.406C180.966 105.291 182.735 105.247 184.014 104.643C185.804 103.801 186.38 101.988 186.636 101.168C186.934 100.262 187.318 99.0746 186.699 98.017C186.167 97.0889 185.229 96.7651 184.867 96.6572C184.504 97.4126 184.227 97.9738 184.014 98.3407C183.758 98.794 183.673 98.9451 183.524 99.2904C183.311 99.7436 183.289 99.9163 182.991 100.326C181.776 101.924 180.114 102.506 180.114 102.506C179.73 102.593 179.389 102.679 179.283 102.981Z" fill="#111314"/>
<path d="M170.161 95.7075C171.845 101.039 173.955 107.255 179.389 109.758C181.606 110.773 184.248 110.967 186.508 109.974C189.044 108.873 190.536 106.326 191.559 103.866C192.901 100.65 193.477 97.1536 193.264 93.6787C193.242 93.2686 192.603 93.2686 192.624 93.6787C192.837 97.3047 192.198 100.952 190.685 104.254C189.214 107.47 186.891 110.039 183.162 109.996C175.66 109.909 172.612 101.535 170.736 95.5564C170.651 95.1247 170.054 95.2974 170.161 95.7075Z" fill="#111314"/>
<path d="M190.941 88.1317C190.962 86.8367 192.284 86.0597 193.456 86.4266C194.543 86.7936 195.225 87.8727 195.459 88.9519C195.672 89.9879 195.587 91.1965 195.267 92.1894C195.012 93.0095 194.692 93.4412 193.712 93.4412C193.371 93.4412 193.03 93.3117 192.667 93.3117C192.262 93.3117 192.262 93.9592 192.667 93.9592C193.392 93.9592 194.095 94.3046 194.798 93.9376C195.31 93.6786 195.608 93.1606 195.821 92.621C196.376 91.1534 196.44 89.1677 195.736 87.7216C195.161 86.5346 193.925 85.5201 192.561 85.6712C191.303 85.8007 190.323 86.8367 190.302 88.1101C190.302 88.5418 190.941 88.5418 190.941 88.1317Z" fill="#111314"/>
<path d="M192.198 99.9599C192.134 103.521 193.69 106.931 196.461 109.154C196.781 109.413 197.228 108.96 196.908 108.701C194.266 106.586 192.774 103.392 192.838 99.9599C192.838 99.5498 192.198 99.5498 192.198 99.9599Z" fill="#111314"/>
<path d="M186.7 109.629C187.509 111.895 188.831 113.881 190.6 115.478C190.898 115.759 191.367 115.305 191.047 115.025C189.342 113.492 188.085 111.615 187.296 109.456C187.168 109.068 186.55 109.24 186.7 109.629Z" fill="#111314"/>
<path d="M190.749 115.694C192.582 116.363 194.415 114.787 195.544 113.471C196.738 112.089 197.782 110.298 197.271 108.42C197.164 108.01 196.546 108.183 196.653 108.593C197.079 110.233 196.12 111.83 195.075 113.017C194.095 114.14 192.497 115.65 190.898 115.068C190.536 114.917 190.365 115.543 190.749 115.694Z" fill="#111314"/>
<path d="M172.548 93.4414C172.271 92.6428 172.911 91.7795 173.38 91.2183C174.083 90.3334 175.17 90.096 175.98 91.0025C176.917 92.0385 177.173 93.8947 177.301 95.2328C177.386 96.1609 177.067 97.348 177.599 98.1682C178.175 99.0531 179.24 99.5711 180.242 99.7653C180.647 99.8517 180.818 99.2258 180.413 99.1394C179.88 99.0315 179.411 98.8588 178.942 98.5567C178.175 98.0387 178.004 97.4775 177.983 96.5494C177.962 95.7508 177.94 94.9738 177.813 94.1753C177.599 92.8587 177.237 91.1752 176.171 90.2903C175.276 89.5348 174.168 89.5564 173.294 90.3118C172.463 91.0457 171.504 92.4486 171.909 93.5925C172.079 94.0026 172.698 93.8299 172.548 93.4414Z" fill="#111314"/>
<path d="M178.452 88.7798C178.601 86.1682 181.819 85.2185 183.311 87.3553C183.545 87.7006 184.099 87.3768 183.865 87.0315C182.011 84.3552 178.004 85.4991 177.812 88.7798C177.791 89.1898 178.43 89.1898 178.452 88.7798Z" fill="#111314"/>
<path d="M175.553 95.1683C175.255 94.7583 175.084 94.305 175.063 93.8086C174.893 93.8949 174.743 94.0028 174.573 94.0892C175.063 94.4129 175.319 94.9309 175.298 95.5137C175.425 95.4058 175.575 95.2978 175.703 95.2115C175.17 95.0173 174.829 94.4129 174.935 93.8518C174.786 93.9165 174.616 93.9813 174.466 94.046C174.722 94.1971 174.935 94.4129 175.084 94.6935C175.148 94.823 175.191 94.9525 175.212 95.1036C175.212 95.2115 175.212 95.082 175.191 95.0388C175.148 94.9525 175.106 94.8878 175.063 94.8014C174.893 94.4129 174.339 94.7583 174.509 95.1252C174.637 95.4273 174.85 95.7511 175.234 95.7727C175.553 95.7943 175.83 95.5784 175.873 95.2547C175.937 94.5424 175.383 93.8302 174.807 93.5064C174.637 93.3985 174.381 93.4848 174.339 93.7007C174.168 94.6288 174.68 95.5353 175.553 95.859C175.766 95.9238 175.958 95.7511 175.958 95.5568C175.98 94.7367 175.596 94.0028 174.914 93.5712C174.722 93.4417 174.424 93.6143 174.424 93.8518C174.445 94.4561 174.637 95.0388 174.999 95.5353C175.255 95.8374 175.809 95.5137 175.553 95.1683Z" fill="#111314"/>
<path d="M181.521 91.0022C181.414 90.8727 181.329 90.7216 181.286 90.549C181.286 90.5058 181.244 90.2468 181.286 90.2252C181.329 90.2036 181.435 90.549 181.457 90.5706C181.499 90.7432 181.478 90.9375 181.393 91.0886C181.542 91.0454 181.691 91.0022 181.84 90.9806C181.307 90.6785 181.052 90.1173 181.137 89.513C180.966 89.5993 180.817 89.7072 180.647 89.7936C181.244 90.0526 181.585 90.6785 181.435 91.326C181.563 91.2612 181.691 91.1749 181.819 91.1101C181.499 91.0022 181.244 90.7216 181.18 90.3763C181.18 90.3547 181.18 90.1605 181.158 90.1605C181.116 90.1821 181.073 90.2036 181.009 90.2252C181.03 90.2684 181.073 90.3331 181.094 90.3763C181.18 90.6137 181.18 90.8511 181.158 91.1101C181.35 91.0238 181.521 90.9591 181.712 90.8727C181.521 90.7216 181.371 90.549 181.265 90.3116C181.073 89.9446 180.519 90.2684 180.711 90.6353C180.839 90.8943 181.03 91.1317 181.265 91.326C181.499 91.5202 181.776 91.3907 181.819 91.0886C181.862 90.6569 181.819 90.0741 181.499 89.7504C181.244 89.4914 180.775 89.4698 180.604 89.8583C180.263 90.6137 180.988 91.4986 181.648 91.7361C181.819 91.8008 182.011 91.6713 182.032 91.5202C182.266 90.6137 181.819 89.6209 180.945 89.254C180.711 89.1461 180.498 89.2756 180.455 89.5346C180.348 90.3547 180.775 91.1533 181.478 91.5634C181.606 91.6497 181.84 91.6065 181.926 91.4555C182.096 91.0454 182.139 90.6353 181.989 90.2252C181.862 89.9015 181.585 89.5561 181.222 89.5993C180.284 89.7072 180.689 91.067 181.073 91.4986C181.35 91.7792 181.798 91.3044 181.521 91.0022Z" fill="#111314"/>
<path d="M187.083 109.564C187.083 109.586 187.083 109.586 187.062 109.607C187.19 109.543 187.318 109.456 187.446 109.392C187.424 109.392 187.403 109.37 187.382 109.37C187.446 109.521 187.509 109.694 187.573 109.845C187.616 109.759 188.191 109.478 188.362 109.327C188.746 109.003 189.065 108.571 189.364 108.161C190.024 107.276 190.515 106.305 190.919 105.291C190.706 105.226 190.515 105.183 190.301 105.118C189.662 106.974 189.214 109.564 187.424 110.665C187.573 110.816 187.723 110.967 187.872 111.118C188.298 110.471 188.724 109.802 189.151 109.154C189.342 108.852 188.895 108.485 188.639 108.766C188.298 109.133 187.936 109.521 187.595 109.888C187.744 110.039 187.893 110.19 188.042 110.341C188.362 109.953 188.66 109.543 188.937 109.133C189.151 108.83 188.682 108.464 188.426 108.744C188.128 109.068 187.829 109.305 187.446 109.5C187.616 109.586 187.765 109.694 187.936 109.78C187.936 109.715 187.914 109.651 187.914 109.586C187.872 109.176 187.232 109.176 187.275 109.586C187.275 109.651 187.296 109.715 187.296 109.78C187.318 110.018 187.552 110.19 187.787 110.061C188.213 109.823 188.554 109.564 188.895 109.197C188.724 109.068 188.554 108.938 188.383 108.809C188.128 109.176 187.872 109.543 187.595 109.888C187.339 110.212 187.765 110.665 188.042 110.341C188.383 109.974 188.746 109.586 189.087 109.219C188.916 109.089 188.746 108.96 188.575 108.83C188.149 109.478 187.723 110.147 187.296 110.795C187.126 111.075 187.467 111.399 187.744 111.248C189.705 110.039 190.216 107.363 190.919 105.312C191.047 104.902 190.451 104.773 190.301 105.14C189.854 106.24 189.278 107.32 188.511 108.226C188.149 108.658 187.573 108.895 187.232 109.284C187.147 109.37 187.062 109.392 187.019 109.5C186.913 109.694 186.998 109.888 187.211 109.974C187.232 109.974 187.254 109.996 187.275 109.996C187.446 110.061 187.616 109.931 187.659 109.78C187.659 109.759 187.659 109.759 187.68 109.737C187.85 109.348 187.232 109.176 187.083 109.564Z" fill="#111314"/>
<path d="M189.449 108.916C189.641 108.701 189.768 108.485 189.832 108.226C189.939 107.837 189.449 107.708 189.257 107.967C188.809 108.571 188.362 109.175 187.914 109.78C187.658 110.104 188.213 110.427 188.468 110.104C188.916 109.499 189.363 108.895 189.811 108.291C189.619 108.204 189.427 108.118 189.236 108.032C189.193 108.183 189.129 108.312 189.022 108.442C188.724 108.787 189.193 109.24 189.449 108.916Z" fill="#111314"/>
<path d="M179.602 103.564C179.006 102.355 179.645 101.902 180.839 101.578C180.988 101.535 181.137 101.514 181.265 101.449C181.776 101.211 182.075 100.693 182.288 100.197C182.629 99.4632 182.821 98.6646 183.268 97.9956C184.206 96.5495 185.868 96.6142 186.401 98.3409C186.934 100.068 186.273 101.988 185.144 103.305C184.589 103.953 183.907 104.557 183.098 104.837C182.394 105.096 181.776 105.01 181.094 104.708C180.604 104.492 179.709 104.06 179.581 103.499C179.496 103.089 178.878 103.262 178.963 103.672C179.197 104.794 180.86 105.485 181.861 105.636C182.948 105.809 183.971 105.269 184.803 104.578C186.657 103.024 187.808 100.283 186.913 97.9092C185.953 95.3408 183.353 96.2905 182.394 98.3193C182.096 98.9452 181.947 100.003 181.457 100.456C180.838 101.039 180.05 100.823 179.411 101.276C178.515 101.924 178.601 103.068 179.048 103.953C179.24 104.276 179.794 103.953 179.602 103.564Z" fill="#111314"/>
<path d="M179.177 102.895C182.48 102.808 184.078 99.7005 184.803 96.8515C184.91 96.4414 184.292 96.2687 184.185 96.6788C183.546 99.2256 182.16 102.161 179.177 102.247C178.772 102.269 178.772 102.916 179.177 102.895Z" fill="#111314"/>
<path d="M170.417 95.3623C170.033 95.5781 167.71 93.0097 166.73 89.578C166.005 87.0743 166.218 84.8512 166.474 83.4483C166.836 82.326 167.348 81.1173 168.051 79.887C171.078 74.6207 175.852 72.1386 178.324 71.0811C177.812 71.5775 177.216 72.225 176.661 73.0451C175.894 74.1243 175.404 75.1387 175.084 75.9805C175.809 75.3546 176.64 74.7286 177.535 74.1243C179.539 72.7646 181.478 71.7933 183.162 71.1026C182.906 72.2034 182.629 73.3041 182.373 74.3833C182.97 74.038 183.801 73.5416 184.824 73.0451C185.954 72.5056 188.277 71.3832 188.639 71.8796C188.746 72.0307 188.618 72.2034 188.426 72.8293C188.17 73.6495 188.085 74.3401 188.042 74.7934C188.703 74.6855 189.449 74.5991 190.259 74.5776C191.154 74.5344 191.964 74.5776 192.688 74.6423C192.433 75.6351 192.177 76.6064 191.921 77.5992C192.433 77.7935 193.157 78.1604 193.903 78.7647C195.907 80.4266 196.482 82.6713 196.631 83.5562C196.951 85.6714 196.439 87.4412 196.056 88.4125C195.033 86.211 193.008 85.3476 191.857 85.8872C191.154 86.211 190.344 87.247 190.429 88.3045C190.451 88.542 190.515 88.7578 190.578 88.9089C189.833 88.2182 188.703 87.2901 187.232 86.4268C185.762 85.5635 184.121 84.5922 181.947 84.3116C177.855 83.772 174.658 86.0383 173.806 86.6642C172.484 87.6139 170.332 89.1463 169.948 91.5852C169.564 93.6356 170.715 95.2112 170.417 95.3623Z" fill="#10B6E8"/>
<path opacity="0.11" d="M186.636 85.8872C187.296 87.398 188.192 89.7506 188.682 92.7076C189.193 95.6429 189.833 99.42 188.277 103.607C187.744 105.032 186.487 107.773 183.503 110.341C184.206 110.32 185.421 110.19 186.7 109.499C188.788 108.399 189.705 106.564 189.982 105.917C190.984 106.909 192.326 108.463 193.349 110.665C193.925 111.895 194.287 113.039 194.5 113.989C195.076 113.471 196.141 112.348 196.631 110.579C196.823 109.888 196.887 109.262 196.887 108.744C195.651 108.053 194.862 107.212 194.415 106.672C194.223 106.435 192.326 104.017 192.433 100.672C192.475 99.4631 192.731 99.4416 192.923 97.5854C193.093 95.9235 193.008 94.5205 192.923 93.5925C194.01 94.0457 194.564 93.8299 194.82 93.6788C195.31 93.3766 195.438 92.8371 195.885 90.096C196.12 88.6283 196.248 87.8945 196.29 87.506C196.546 85.4124 196.674 84.3548 196.546 83.513C196.184 81.1173 194.671 79.5201 194.159 79.0237C193.307 78.182 192.433 77.7071 191.857 77.4481C192.113 76.5416 192.348 75.6135 192.603 74.707C191.388 76.1531 190.259 77.146 189.492 77.7935C187.574 79.3475 186.465 79.7144 185.144 81.2036C184.1 82.3691 183.503 83.5562 183.162 84.3548C184.334 84.8944 185.485 85.3908 186.636 85.8872Z" fill="#636E72"/>
<path opacity="0.17" d="M177.855 71.3184C177.13 71.6421 175.425 72.5486 174.232 74.4695C173.934 74.9444 173.273 76.1314 173.081 77.7934C172.868 79.6279 173.315 81.074 173.571 81.7863C173.656 79.9949 174.083 77.1027 175.788 74.1242C176.448 73.0019 177.173 72.0738 177.855 71.3184Z" fill="#636E72"/>
<path opacity="0.08" d="M192.923 93.7005C192.859 93.6789 192.731 93.9163 192.262 95.5567C191.623 97.7797 191.282 99.4201 191.09 100.24C190.813 101.427 190.344 103.111 189.47 105.14C190.983 105.442 192.496 105.744 194.01 106.025C193.455 104.794 192.795 103.025 192.539 100.823C192.134 97.0459 193.136 93.7437 192.923 93.7005Z" fill="#636E72"/>
</svg>
