<svg width="304" height="260" viewBox="0 0 304 260" fill="none" xmlns="http://www.w3.org/2000/svg">
<g opacity="0.6">
<path d="M24.9745 88.3444C28.7682 85.2148 33.9045 84.7616 38.5932 85.6249C43.6017 86.5314 48.1625 88.9703 52.7873 91.0207C57.5613 93.1575 62.4206 94.6899 67.6635 94.9489C72.885 95.2295 78.1066 94.4741 83.179 93.1791C93.7713 90.4812 103.49 85.3012 113.656 81.3946C118.75 79.4305 124.014 77.7254 129.427 76.9484C132.368 76.5168 135.331 76.4088 138.293 76.7326C141.106 77.0348 143.856 77.7038 146.605 78.3945C152.679 79.9269 158.732 81.2651 164.955 82.0205C171.37 82.7975 177.849 83.0565 184.307 82.8407C184.712 82.8191 184.712 82.1716 184.307 82.1932C172.585 82.6248 160.863 81.3514 149.482 78.4808C144.047 77.0995 138.655 75.675 133.008 75.9556C127.53 76.2362 122.117 77.7038 116.959 79.4953C106.623 83.0997 96.9042 88.3876 86.4185 91.6035C81.0903 93.2222 75.5704 94.3446 69.9865 94.3662C64.3174 94.3877 58.9893 93.0496 53.8103 90.7617C48.6953 88.5171 43.6869 85.7328 38.1243 84.8695C33.393 84.1357 28.3419 84.7184 24.527 87.8696C24.2073 88.1502 24.6548 88.625 24.9745 88.3444Z" fill="#DFE6E9"/>
<path d="M139.764 68.618C154.533 75.0714 171.306 73.9923 186.417 69.3087C194.601 66.7618 202.742 63.3517 211.459 63.3732C220.24 63.3948 228.573 66.5028 237.162 67.8842C244.962 69.136 253.551 68.9849 260.243 64.2366C260.584 63.9992 260.265 63.438 259.924 63.6754C253.743 68.0568 245.9 68.4453 238.654 67.4525C230.448 66.3302 222.563 63.438 214.272 62.8337C205.982 62.2293 198.16 64.7546 190.381 67.3446C182.623 69.913 174.78 71.9203 166.617 72.3951C157.581 72.9347 148.438 71.7044 140.105 68.0568C139.721 67.8842 139.401 68.4453 139.764 68.618Z" fill="#DFE6E9"/>
<path d="M16.8331 122.425C21.5006 119.058 27.0205 116.986 32.7323 116.424C35.5882 116.144 38.4653 116.252 41.2786 116.748C44.1984 117.266 47.0117 118.259 49.8036 119.252C54.9825 121.065 60.1188 122.446 65.5748 121.173C70.2849 120.072 74.5474 117.59 78.7247 115.237C83.6478 112.453 88.7628 109.604 94.4746 109.086C94.8795 109.043 94.8795 108.395 94.4746 108.439C84.2872 109.367 76.636 117.115 67.1307 120.072C64.7223 120.827 62.2075 121.216 59.6926 121.065C56.6023 120.871 53.5972 119.899 50.6987 118.885C47.7789 117.871 44.8591 116.77 41.7901 116.187C39.1473 115.691 36.4407 115.54 33.7766 115.712C27.596 116.101 21.5645 118.237 16.5135 121.885C16.1725 122.101 16.4921 122.662 16.8331 122.425Z" fill="#DFE6E9"/>
<path d="M73.3326 130.712C81.6232 121.842 93.8139 118.216 105.6 118.108C112.441 118.043 119.261 119.036 125.932 120.482C132.283 121.842 138.442 123.611 145.006 122.726C151.869 121.798 158.284 118.82 164.422 115.69C164.784 115.496 164.465 114.935 164.102 115.129C158.263 118.108 152.189 120.935 145.688 121.971C142.364 122.489 139.018 122.446 135.693 121.906C132.326 121.367 129.043 120.46 125.697 119.748C113.507 117.158 100.527 116.057 88.5497 120.266C82.6462 122.338 77.1902 125.64 72.885 130.237C72.608 130.561 73.0555 131.014 73.3326 130.712Z" fill="#DFE6E9"/>
<path d="M172.116 137.166C175.59 138.397 179.149 137.253 182.325 135.72C185.884 133.994 189.23 131.857 192.874 130.324C196.519 128.792 200.44 127.756 204.404 128.252C208.027 128.706 211.374 130.346 214.549 132.094C217.554 133.756 220.517 135.569 223.713 136.843C227.273 138.246 231.109 138.915 234.924 138.828C242.745 138.656 249.395 134.706 256.535 132.03C263.205 129.526 272.093 128.404 277.442 134.274C277.719 134.576 278.167 134.123 277.89 133.821C273.691 129.224 266.999 128.706 261.245 129.936C253.743 131.533 247.264 136.174 239.719 137.663C235.691 138.461 231.471 138.354 227.486 137.382C223.777 136.476 220.453 134.706 217.128 132.828C214.123 131.123 211.075 129.353 207.772 128.339C204.34 127.281 200.76 127.26 197.286 128.123C193.045 129.181 189.145 131.274 185.33 133.389C181.387 135.548 176.826 138.181 172.244 136.562C171.903 136.411 171.732 137.037 172.116 137.166Z" fill="#DFE6E9"/>
<path d="M228.232 147.569C237.055 148.109 244.323 142.044 252.656 140.209C254.872 139.713 257.217 139.497 259.476 139.886C261.501 140.231 263.333 141.073 265.081 142.152C268.086 144.008 271.006 146.404 274.672 146.663C279.126 146.965 283.069 144.159 286.394 141.526C286.713 141.267 286.266 140.814 285.946 141.073C282.707 143.62 278.828 146.404 274.48 145.994C270.708 145.648 267.724 142.886 264.548 141.094C257.238 136.95 249.416 140.209 242.405 143.339C237.908 145.325 233.24 147.246 228.253 146.943C227.827 146.9 227.827 147.548 228.232 147.569Z" fill="#DFE6E9"/>
<path d="M27.063 188.837C30.1534 185.858 34.7355 184.693 38.8489 185.836C43.154 187.024 45.9246 190.779 49.3772 193.369C56.2612 198.527 65.6387 197.707 73.2046 194.664C82.1345 191.081 89.5726 184.606 98.4812 180.959C102.829 179.167 107.539 178.023 112.27 178.347C116.874 178.671 120.795 180.678 124.44 183.398C128.063 186.095 131.473 189.29 135.714 190.995C140.254 192.808 145.369 192.419 149.631 190.024C149.993 189.829 149.674 189.268 149.312 189.462C144.964 191.901 139.764 192.117 135.224 190.088C131.43 188.383 128.319 185.534 125.015 183.031C121.627 180.462 118.025 178.455 113.762 177.851C109.372 177.246 104.896 178.002 100.74 179.405C91.6399 182.491 84.1379 188.858 75.5063 192.937C67.5355 196.714 57.2842 198.484 49.7182 192.808C45.9459 189.98 42.9835 185.944 38.1242 184.995C34.0109 184.196 29.6419 185.448 26.6155 188.383C26.3171 188.664 26.7647 189.139 27.063 188.837Z" fill="#DFE6E9"/>
<path d="M108.946 200.88C112.462 198.571 116.639 197.47 120.838 197.815C124.674 198.139 128.297 199.585 131.814 201.031C135.224 202.434 138.676 203.902 142.342 204.506C146.178 205.132 150.057 204.657 153.744 203.513C158.156 202.132 162.248 199.931 166.276 197.708C166.638 197.513 166.319 196.952 165.956 197.146C158.582 201.182 150.484 205.434 141.831 203.751C134.606 202.348 128.255 197.815 120.817 197.168C116.511 196.801 112.206 197.945 108.605 200.319C108.285 200.557 108.605 201.118 108.946 200.88Z" fill="#DFE6E9"/>
<path d="M189.4 215.514C194.047 211.111 199.758 207.938 205.918 206.319C209.051 205.499 212.269 205.089 215.508 205.11C219.11 205.154 222.691 205.736 226.271 206.082C233.219 206.751 239.89 205.564 246.39 202.995C252.592 200.556 258.432 196.326 265.102 195.29C272.903 194.081 278.934 199.326 283.9 204.7C284.177 205.002 284.625 204.549 284.348 204.247C280.256 199.823 275.439 195.247 269.216 194.535C262.396 193.758 256.194 197.815 250.269 200.6C243.449 203.815 236.096 206.017 228.53 205.585C224.758 205.369 221.028 204.679 217.235 204.484C214.016 204.312 210.777 204.549 207.623 205.218C200.653 206.664 194.153 210.075 188.953 215.017C188.655 215.341 189.102 215.794 189.4 215.514Z" fill="#DFE6E9"/>
<path d="M64.6158 79.1283C70.5833 83.8119 78.3624 81.7399 84.8627 79.5816C92.9188 76.8837 101.082 75.1786 109.607 75.0059C110.011 75.0059 110.011 74.3584 109.607 74.3584C101.764 74.5095 94.0271 75.8692 86.5677 78.3297C79.8116 80.5528 71.4145 83.6824 65.0634 78.6751C64.7437 78.4161 64.2962 78.8693 64.6158 79.1283Z" fill="#111314"/>
<path d="M122.074 39.89C129.278 39.3504 136.226 37.3216 143.195 35.6165C150.441 33.8251 157.709 32.638 165.189 33.4582C172.734 34.2783 180.044 36.5878 187.44 38.2281C194.558 39.8253 201.783 40.5591 209.072 40.1922C217.277 39.7821 225.376 38.0338 233.027 35.0553C233.411 34.9043 233.24 34.2783 232.857 34.4294C218.94 39.8468 203.744 40.9908 189.166 37.9259C181.898 36.3935 174.78 34.1488 167.427 33.0697C160.33 32.0337 153.404 32.6164 146.413 34.1704C138.314 35.9618 130.365 38.595 122.074 39.2209C121.669 39.2857 121.669 39.9332 122.074 39.89Z" fill="#111314"/>
<path d="M237.417 93.978C243.641 91.647 250.098 94.9708 256.321 95.5752C259.667 95.8989 262.992 95.5752 266.253 94.7982C269.45 94.0212 272.562 92.8772 275.822 92.3808C279.318 91.8413 283.047 92.0571 286.074 94.0643C286.415 94.3017 286.734 93.7406 286.393 93.5032C281.023 89.9635 274.458 91.8628 268.789 93.46C265.23 94.4744 261.671 95.2082 257.963 95.0572C254.425 94.9277 251.036 93.9348 247.583 93.201C244.152 92.4888 240.614 92.1003 237.268 93.3521C236.863 93.4816 237.034 94.1075 237.417 93.978Z" fill="#111314"/>
<path d="M53.8658 157.488C59.2792 152.61 66.9091 156.927 72.9192 157.855C79.8671 158.934 86.8149 156.992 93.4431 155.114C93.8481 155.006 93.6776 154.38 93.2726 154.488C85.9411 156.56 78.3539 158.61 70.7453 156.776C65.1828 155.438 58.3841 152.589 53.397 157.035C53.0986 157.294 53.5462 157.747 53.8658 157.488Z" fill="#111314"/>
<path d="M88.3368 220.068C90.0631 217.996 92.7272 216.873 95.4126 217.219C96.9471 217.413 98.3537 218.125 99.7603 218.751C100.932 219.269 102.126 219.701 103.341 220.046C108.562 221.514 114.168 221.298 119.261 219.485C119.645 219.355 119.474 218.73 119.091 218.859C113.379 220.866 107.07 220.866 101.38 218.708C98.9078 217.78 96.6061 216.291 93.8568 216.506C91.5337 216.679 89.3811 217.801 87.868 219.593C87.6122 219.938 88.0811 220.391 88.3368 220.068Z" fill="#111314"/>
<path d="M124.611 218.297C128.489 217.153 132.475 216.592 136.524 216.614C136.929 216.614 136.929 215.966 136.524 215.966C132.432 215.945 128.383 216.528 124.44 217.672C124.056 217.801 124.206 218.427 124.611 218.297Z" fill="#111314"/>
<path d="M129.683 50.5312C133.455 53.4666 137.057 56.6177 140.509 59.9632C140.808 60.2437 141.255 59.7905 140.957 59.5099C137.483 56.1429 133.817 52.9702 130.002 49.9917C129.683 49.7111 129.363 50.2722 129.683 50.5312Z" fill="#111314"/>
<path d="M92.7272 61.9049C93.0895 59.876 93.4731 57.8472 93.8354 55.7968C93.9207 55.3867 93.3026 55.214 93.2174 55.6241C92.8551 57.653 92.4714 59.6818 92.1091 61.7322C92.0452 62.1423 92.6633 62.315 92.7272 61.9049Z" fill="#111314"/>
</g>
<g opacity="0.6">
<path d="M215.615 74.7683C216.297 74.7683 216.851 74.2078 216.851 73.5165C216.851 72.8251 216.297 72.2646 215.615 72.2646C214.932 72.2646 214.378 72.8251 214.378 73.5165C214.378 74.2078 214.932 74.7683 215.615 74.7683Z" fill="#F7FAFC"/>
<path d="M54.1083 178.152C54.9204 178.152 55.5788 177.486 55.5788 176.663C55.5788 175.841 54.9204 175.174 54.1083 175.174C53.2961 175.174 52.6377 175.841 52.6377 176.663C52.6377 177.486 53.2961 178.152 54.1083 178.152Z" fill="#F7FAFC"/>
<path d="M46.9899 43.2354C48.8497 43.2354 50.3573 41.7086 50.3573 39.8252C50.3573 37.9418 48.8497 36.415 46.9899 36.415C45.1302 36.415 43.6226 37.9418 43.6226 39.8252C43.6226 41.7086 45.1302 43.2354 46.9899 43.2354Z" fill="#F7FAFC"/>
<path d="M53.7463 46.5378C54.3701 46.5378 54.8758 46.0257 54.8758 45.3939C54.8758 44.7621 54.3701 44.25 53.7463 44.25C53.1224 44.25 52.6167 44.7621 52.6167 45.3939C52.6167 46.0257 53.1224 46.5378 53.7463 46.5378Z" fill="#F7FAFC"/>
<path d="M118.281 238.521C119.669 238.521 120.795 237.381 120.795 235.975C120.795 234.568 119.669 233.428 118.281 233.428C116.892 233.428 115.766 234.568 115.766 235.975C115.766 237.381 116.892 238.521 118.281 238.521Z" fill="#F7FAFC"/>
<path d="M235.158 47.6808C236.382 47.6808 237.374 46.6758 237.374 45.4361C237.374 44.1964 236.382 43.1914 235.158 43.1914C233.934 43.1914 232.941 44.1964 232.941 45.4361C232.941 46.6758 233.934 47.6808 235.158 47.6808Z" fill="#F7FAFC"/>
<path d="M237.993 42.7392C238.746 42.7392 239.357 42.1208 239.357 41.3579C239.357 40.595 238.746 39.9766 237.993 39.9766C237.24 39.9766 236.629 40.595 236.629 41.3579C236.629 42.1208 237.24 42.7392 237.993 42.7392Z" fill="#F7FAFC"/>
<path d="M50.3786 39.6524C52.2384 39.6524 53.746 38.1256 53.746 36.2422C53.746 34.3588 52.2384 32.832 50.3786 32.832C48.5189 32.832 47.0112 34.3588 47.0112 36.2422C47.0112 38.1256 48.5189 39.6524 50.3786 39.6524Z" fill="#10B6E8"/>
<path d="M48.6949 180.16C49.6248 180.16 50.3786 179.397 50.3786 178.455C50.3786 177.513 49.6248 176.75 48.6949 176.75C47.765 176.75 47.0112 177.513 47.0112 178.455C47.0112 179.397 47.765 180.16 48.6949 180.16Z" fill="#10B6E8"/>
<path d="M107.88 233.578C108.704 233.578 109.372 232.902 109.372 232.067C109.372 231.233 108.704 230.557 107.88 230.557C107.056 230.557 106.388 231.233 106.388 232.067C106.388 232.902 107.056 233.578 107.88 233.578Z" fill="#10B6E8"/>
<path d="M226.974 39.9762C228.928 39.9762 230.512 38.3721 230.512 36.3934C230.512 34.4146 228.928 32.8105 226.974 32.8105C225.02 32.8105 223.437 34.4146 223.437 36.3934C223.437 38.3721 225.02 39.9762 226.974 39.9762Z" fill="#10B6E8"/>
<path d="M168.727 94.2366C169.151 94.2366 169.494 93.8887 169.494 93.4596C169.494 93.0305 169.151 92.6826 168.727 92.6826C168.303 92.6826 167.96 93.0305 167.96 93.4596C167.96 93.8887 168.303 94.2366 168.727 94.2366Z" fill="#10B6E8"/>
<path d="M160.863 47.9836C160.415 49.0412 159.989 50.1204 159.542 51.178C159.392 51.5665 160.01 51.7391 160.16 51.3506C160.607 50.2931 161.033 49.2139 161.481 48.1563C161.63 47.7678 161.012 47.5951 160.863 47.9836Z" fill="#10B6E8"/>
<path d="M160.756 48.5011C161.545 49.3429 162.163 50.2926 162.568 51.3717C162.717 51.7602 163.335 51.5876 163.186 51.1991C162.717 50.012 162.056 48.976 161.204 48.0479C160.927 47.7457 160.458 48.199 160.756 48.5011Z" fill="#10B6E8"/>
<path d="M159.712 51.7391C160.33 52.9046 161.033 54.0053 161.822 55.0413C162.078 55.3651 162.632 55.0413 162.376 54.7176C161.587 53.66 160.884 52.5592 160.266 51.4153C160.053 51.0484 159.52 51.3721 159.712 51.7391Z" fill="#10B6E8"/>
<path d="M162.61 51.4153C162.355 52.6239 162.12 53.8326 161.864 55.0413C161.779 55.4514 162.397 55.624 162.483 55.2139C162.738 54.0053 162.973 52.7966 163.228 51.5879C163.314 51.1994 162.696 51.0268 162.61 51.4153Z" fill="#10B6E8"/>
<path d="M220.9 140.381C220.388 141.331 220.047 142.346 219.898 143.425C219.834 143.835 220.452 144.007 220.516 143.597C220.665 142.583 220.964 141.633 221.454 140.727C221.646 140.338 221.092 140.015 220.9 140.381Z" fill="#10B6E8"/>
<path d="M220.858 140.576C221.284 141.72 221.774 142.821 222.328 143.879C222.52 144.245 223.074 143.922 222.882 143.555C222.349 142.54 221.881 141.483 221.476 140.404C221.326 140.015 220.708 140.188 220.858 140.576Z" fill="#10B6E8"/>
<path d="M219.771 143.879C220.325 144.677 220.857 145.476 221.412 146.274C221.646 146.62 222.2 146.296 221.966 145.951C221.412 145.152 220.879 144.353 220.325 143.555C220.09 143.21 219.536 143.533 219.771 143.879Z" fill="#10B6E8"/>
<path d="M222.094 143.771C221.646 144.397 221.433 145.109 221.433 145.864C221.433 146.274 222.072 146.274 222.072 145.864C222.072 145.217 222.264 144.612 222.648 144.094C222.882 143.749 222.328 143.425 222.094 143.771Z" fill="#10B6E8"/>
<path d="M42.6208 201.484C42.0454 202.757 41.4699 204.009 40.8945 205.282C40.724 205.649 41.2781 205.995 41.4486 205.606C42.0241 204.333 42.5995 203.081 43.1749 201.807C43.3454 201.441 42.8126 201.117 42.6208 201.484Z" fill="#10B6E8"/>
<path d="M42.7276 201.657C43.2818 202.995 43.8359 204.334 44.39 205.672C44.5392 206.06 45.1573 205.888 45.0081 205.499C44.4539 204.161 43.8998 202.823 43.3457 201.485C43.1965 201.096 42.5785 201.269 42.7276 201.657Z" fill="#10B6E8"/>
<path d="M40.7454 205.865C41.3208 207.009 41.875 208.175 42.4504 209.319C42.557 209.513 42.8127 209.513 42.9619 209.383C43.4095 209.016 43.6226 208.39 43.857 207.894C44.198 207.203 44.539 206.513 44.88 205.822C45.0718 205.455 44.5177 205.131 44.3259 205.498C44.0275 206.103 43.7078 206.707 43.4095 207.311C43.1537 207.829 42.9193 208.542 42.4717 208.908C42.6422 208.93 42.8127 208.952 42.9832 208.973C42.4078 207.829 41.8536 206.664 41.2782 205.52C41.1077 205.175 40.5536 205.498 40.7454 205.865Z" fill="#10B6E8"/>
<path d="M257.132 101.165C256.471 102.439 256.066 103.777 255.874 105.201C255.81 105.612 256.45 105.612 256.514 105.201C256.684 103.885 257.068 102.655 257.664 101.489C257.878 101.122 257.323 100.798 257.132 101.165Z" fill="#10B6E8"/>
<path d="M257.046 101.921C257.707 103.216 258.346 104.511 259.007 105.806C259.199 106.173 259.753 105.849 259.561 105.482C258.9 104.187 258.261 102.892 257.6 101.597C257.408 101.23 256.854 101.554 257.046 101.921Z" fill="#10B6E8"/>
<path d="M255.917 105.287C256.449 106.582 257.089 107.791 257.856 108.935C258.09 109.28 258.645 108.957 258.41 108.611C257.664 107.51 257.025 106.345 256.535 105.115C256.385 104.748 255.767 104.92 255.917 105.287Z" fill="#10B6E8"/>
<path d="M258.815 105.568C258.431 106.776 258.112 108.007 257.899 109.28C257.835 109.69 258.453 109.863 258.517 109.453C258.73 108.201 259.028 106.971 259.433 105.74C259.561 105.352 258.943 105.179 258.815 105.568Z" fill="#10B6E8"/>
<path d="M254.659 205.951C254.403 206.815 254.169 207.656 253.913 208.52C253.807 208.93 254.403 209.081 254.531 208.692C254.787 207.829 255.021 206.987 255.277 206.124C255.405 205.714 254.787 205.541 254.659 205.951Z" fill="#10B6E8"/>
<path d="M254.617 206.427C255 207.29 255.405 208.154 255.789 208.995C255.959 209.384 256.513 209.038 256.343 208.672C255.959 207.808 255.554 206.945 255.171 206.103C255 205.715 254.446 206.038 254.617 206.427Z" fill="#10B6E8"/>
<path d="M254.084 208.931C254.276 209.945 254.744 210.852 255.405 211.629C255.682 211.953 256.13 211.478 255.853 211.176C255.256 210.485 254.872 209.665 254.702 208.78C254.617 208.348 253.998 208.521 254.084 208.931Z" fill="#10B6E8"/>
<path d="M255.767 208.844C255.49 209.75 255.362 210.679 255.384 211.607C255.405 212.017 256.044 212.017 256.023 211.607C256.002 210.722 256.108 209.858 256.385 209.017C256.513 208.628 255.895 208.455 255.767 208.844Z" fill="#10B6E8"/>
<path d="M34.586 92.0782C34.1171 93.1142 33.6695 94.1502 33.2006 95.1862C33.0301 95.5531 33.5843 95.8985 33.7548 95.51C34.2236 94.4739 34.6712 93.4379 35.1401 92.4019C35.3106 92.035 34.7565 91.6897 34.586 92.0782Z" fill="#10B6E8"/>
<path d="M33.2862 95.7256C33.7764 96.9991 34.2453 98.2509 34.7355 99.5243C34.8847 99.9128 35.5027 99.7402 35.3536 99.3517C34.8634 98.0782 34.3945 96.8264 33.9043 95.553C33.7551 95.1645 33.137 95.3371 33.2862 95.7256Z" fill="#10B6E8"/>
<path d="M34.586 92.1209C35.2467 93.2864 35.9074 94.4735 36.5681 95.639C36.7812 96.0059 37.314 95.6821 37.1222 95.3152C36.4615 94.1497 35.8008 92.9626 35.1401 91.7971C34.927 91.4302 34.3729 91.754 34.586 92.1209Z" fill="#10B6E8"/>
<path d="M36.7176 95.3587C36.0356 96.6537 35.4388 97.9918 34.9273 99.3516C34.7782 99.7401 35.3962 99.9128 35.5454 99.5243C36.0356 98.2077 36.611 96.9127 37.2717 95.6824C37.4635 95.3155 36.9094 94.9918 36.7176 95.3587Z" fill="#10B6E8"/>
<path d="M195.24 111.978C195.666 111.158 196.476 110.597 197.414 110.64C198.181 110.662 198.756 111.201 199.438 111.46C200.632 111.892 200.994 111.115 201.889 110.532C203.104 109.712 204.276 111.546 205.576 111.525C206.322 111.503 206.94 111.136 206.962 110.338C206.791 110.424 206.642 110.532 206.471 110.618C207.132 110.964 207.793 111.309 208.432 111.676C208.794 111.87 209.114 111.309 208.752 111.115C208.091 110.769 207.43 110.424 206.791 110.057C206.578 109.949 206.322 110.079 206.301 110.338C206.237 111.87 203.296 109.69 202.742 109.626C201.484 109.453 200.994 111.028 199.907 110.856C198.756 110.662 198.032 109.82 196.795 110.036C195.858 110.208 195.09 110.791 194.664 111.654C194.515 112.021 195.048 112.345 195.24 111.978Z" fill="#10B6E8"/>
<path d="M203.402 107.597C204.362 106.518 205.875 107.877 206.962 108.007C208.219 108.158 209.199 106.798 210.414 107.489C211.416 108.072 213.249 109.453 213.973 107.683C214.123 107.295 213.505 107.122 213.355 107.51C212.844 108.762 211.011 107.014 210.393 106.755C209.562 106.388 209.008 106.69 208.262 107.057C207.367 107.489 206.727 107.338 205.875 106.949C205.491 106.777 205.107 106.626 204.681 106.561C204.021 106.474 203.424 106.604 202.955 107.122C202.678 107.446 203.125 107.899 203.402 107.597Z" fill="#10B6E8"/>
<path d="M186.097 56.6814C186.395 56.1203 186.736 55.9692 187.12 56.2282C187.29 56.2929 187.461 56.3793 187.631 56.4872C187.823 56.5735 188.015 56.703 188.207 56.7678C188.548 56.8757 188.889 56.9188 189.23 56.8325C190.146 56.5735 190.615 55.408 191.595 55.4296C192.512 55.4512 193.172 56.3361 194.131 55.8829C194.536 55.6886 194.813 55.3433 195.197 55.1274C196.05 54.6526 197.094 54.8253 197.818 55.4296C198.138 55.6886 198.586 55.2354 198.266 54.9764C197.307 54.1778 195.986 53.9404 194.877 54.5663C194.387 54.8469 193.982 55.4512 193.343 55.3649C192.981 55.3217 192.661 55.0627 192.32 54.9332C191.808 54.7389 191.34 54.6742 190.828 54.9116C190.189 55.2138 189.762 56.0555 189.059 56.2066C188.164 56.4009 187.567 55.4728 186.736 55.4512C185.947 55.4296 185.031 56.2066 185.564 57.0052C185.777 57.3505 186.331 57.0268 186.097 56.6814Z" fill="#F7FAFC"/>
<path d="M193.173 52.8608C193.428 51.4579 195.837 52.8176 196.689 52.6666C197.243 52.5802 197.648 52.1917 198.16 51.9975C198.97 51.6737 199.758 51.8032 200.504 52.2565C200.866 52.4723 201.186 51.9111 200.824 51.6953C200.184 51.3068 199.502 51.1126 198.778 51.1773C198.458 51.1989 198.16 51.2852 197.883 51.3931C197.03 51.7601 196.689 52.1701 195.623 51.9111C194.6 51.6521 192.853 51.1341 192.576 52.6881C192.469 53.0982 193.087 53.2709 193.173 52.8608Z" fill="#F7FAFC"/>
<path d="M31.8156 130.864C32.0927 129.504 33.9469 131.36 34.3092 131.598C34.7141 131.878 35.1617 132.073 35.6519 131.965C36.2912 131.857 36.7814 131.317 37.4421 131.166C38.5077 130.929 39.5734 131.274 40.3406 132.051C40.639 132.353 41.0866 131.878 40.7882 131.598C40.1275 130.929 39.3176 130.519 38.3799 130.454C37.911 130.411 37.4421 130.476 36.9945 130.627C36.2912 130.864 35.7371 131.555 34.8846 131.209C33.9895 130.842 33.6485 129.914 32.6255 129.806C31.9648 129.742 31.3467 130.001 31.2189 130.691C31.1123 131.101 31.7304 131.274 31.8156 130.864Z" fill="#F7FAFC"/>
<path d="M38.9125 129.31C39.3814 128.662 41.534 129.957 42.152 130.108C43.1537 130.346 44.1767 130.346 45.1997 130.216C45.6046 130.151 45.4341 129.525 45.0292 129.59C43.2603 129.828 41.8963 129.353 40.2978 128.705C39.5732 128.425 38.8486 128.317 38.3584 128.986C38.124 129.31 38.6781 129.633 38.9125 129.31Z" fill="#F7FAFC"/>
<path d="M90.8726 174.548C91.2136 174.009 91.7464 173.663 92.4071 173.663C92.9612 173.663 93.3022 174.009 93.7924 174.16C94.2825 174.332 94.6875 174.224 95.1137 173.944C95.9449 173.383 96.3498 172.692 97.4794 172.735C98.5024 172.757 99.4828 173.253 100.378 173.706C100.74 173.901 101.06 173.34 100.698 173.145C99.0139 172.282 96.9679 171.462 95.3482 172.865C94.9859 173.167 94.9432 173.253 94.3891 173.361C93.771 173.491 93.835 173.404 93.3661 173.21C92.9612 173.037 92.5776 172.973 92.13 173.016C91.3414 173.102 90.7234 173.555 90.3184 174.203C90.1053 174.57 90.6594 174.894 90.8726 174.548Z" fill="#F7FAFC"/>
<path d="M97.9698 175.8C98.9715 174.915 100.868 176.772 102.104 176.599C102.85 176.491 103.191 175.93 103.682 175.412C104.619 174.397 106.026 174.246 107.177 175.002C107.518 175.218 107.838 174.678 107.497 174.441C106.665 173.901 105.685 173.728 104.726 174.009C104.3 174.138 103.916 174.333 103.575 174.613C103.064 175.045 102.744 175.822 102.019 175.951C100.463 176.232 98.9928 174.031 97.5222 175.347C97.2239 175.628 97.6714 176.081 97.9698 175.8Z" fill="#F7FAFC"/>
<path d="M68.8994 37.3645C69.0699 36.6522 69.4748 36.0911 70.1568 35.7889C70.7536 35.5299 71.2438 35.7026 71.8618 35.681C72.5438 35.6378 73.0553 35.2925 73.4603 34.7745C74.0783 33.9975 74.4833 33.1989 75.3571 32.6809C76.3588 32.0981 77.5097 31.9902 78.6179 32.3356C79.0228 32.4651 79.172 31.8391 78.7884 31.7096C76.7424 31.0837 74.7177 31.8823 73.4816 33.6306C72.9914 34.3212 72.6291 35.0119 71.6913 35.0335C71.1159 35.0551 70.6257 34.9256 70.0716 35.1198C69.1338 35.4436 68.4945 36.2422 68.2813 37.1918C68.1748 37.6019 68.7928 37.7746 68.8994 37.3645Z" fill="#F7FAFC"/>
<path d="M71.9043 39.8467C70.9878 37.3862 75.3782 37.5157 76.6996 37.0409C78.3407 36.4581 79.7473 35.4221 81.1326 34.3861C81.4523 34.1487 81.1326 33.5875 80.8129 33.8249C79.8752 34.5372 78.9161 35.2279 77.8931 35.789C76.6143 36.4797 75.3995 36.6955 74.0142 36.9114C72.5436 37.1488 70.6255 38.1848 71.3075 39.9978C71.4354 40.3863 72.0534 40.2352 71.9043 39.8467Z" fill="#F7FAFC"/>
</g>
<path d="M191.021 84.9466C190.576 83.8882 189.832 82.9837 188.88 82.3451C187.929 81.7064 186.811 81.3617 185.666 81.3535H78.7934C77.2571 81.3543 75.784 81.9668 74.6977 83.0564C73.6114 84.1459 73.0008 85.6235 73 87.1643V222.776C73.0008 224.317 73.6114 225.794 74.6977 226.884C75.784 227.974 77.2571 228.586 78.7934 228.587H185.67C187.206 228.585 188.678 227.972 189.765 226.883C190.851 225.793 191.462 224.317 191.464 222.776V87.1643C191.466 86.4031 191.317 85.6491 191.024 84.9466H191.021ZM190.173 222.776C190.172 223.975 189.696 225.123 188.852 225.971C188.007 226.818 186.861 227.295 185.666 227.297H78.7934C77.5983 227.296 76.4522 226.82 75.607 225.973C74.7619 225.125 74.2869 223.976 74.2865 222.777V87.1651C74.2882 85.9667 74.7635 84.8179 75.6083 83.9705C76.4532 83.1231 77.5986 82.6463 78.7934 82.6447H185.67C186.57 82.6481 187.449 82.9205 188.194 83.4269C188.939 83.9334 189.517 84.6511 189.853 85.4883C189.919 85.6552 189.976 85.8254 190.023 85.9983C190.125 86.3787 190.177 86.7711 190.177 87.1651L190.173 222.776Z" fill="#3F3D56"/>
<path d="M168.718 113.371H136.526C136.188 113.372 135.852 113.306 135.539 113.176C135.227 113.046 134.942 112.856 134.703 112.616C134.463 112.376 134.273 112.091 134.143 111.778C134.014 111.464 133.947 111.128 133.947 110.788C133.947 110.449 134.014 110.112 134.143 109.799C134.273 109.485 134.463 109.2 134.703 108.96C134.942 108.72 135.227 108.53 135.539 108.401C135.852 108.271 136.188 108.205 136.526 108.205H168.718C169.057 108.205 169.392 108.271 169.705 108.401C170.018 108.53 170.302 108.72 170.542 108.96C170.781 109.2 170.971 109.485 171.101 109.799C171.231 110.112 171.297 110.449 171.297 110.788C171.297 111.128 171.231 111.464 171.101 111.778C170.971 112.091 170.781 112.376 170.542 112.616C170.302 112.856 170.018 113.046 169.705 113.176C169.392 113.306 169.057 113.372 168.718 113.371Z" fill="#3F3D56"/>
<path d="M168.718 126.932H136.526C136.188 126.933 135.852 126.866 135.539 126.737C135.227 126.607 134.942 126.417 134.703 126.177C134.463 125.937 134.273 125.652 134.143 125.338C134.014 125.025 133.947 124.688 133.947 124.349C133.947 124.009 134.014 123.673 134.143 123.359C134.273 123.046 134.463 122.761 134.703 122.521C134.942 122.281 135.227 122.091 135.539 121.961C135.852 121.832 136.188 121.765 136.526 121.766H168.718C169.057 121.765 169.392 121.832 169.705 121.961C170.018 122.091 170.302 122.281 170.542 122.521C170.781 122.761 170.971 123.046 171.101 123.359C171.231 123.673 171.297 124.009 171.297 124.349C171.297 124.688 171.231 125.025 171.101 125.338C170.971 125.652 170.781 125.937 170.542 126.177C170.302 126.417 170.018 126.607 169.705 126.737C169.392 126.866 169.057 126.933 168.718 126.932Z" fill="#3F3D56"/>
<path d="M120.009 134.654H96.4833C95.7151 134.653 94.9785 134.347 94.4353 133.802C93.8921 133.257 93.5866 132.518 93.5858 131.748V103.902C93.5866 103.132 93.8921 102.393 94.4353 101.848C94.9785 101.303 95.7151 100.997 96.4833 100.996H120.009C120.777 100.997 121.514 101.303 122.057 101.848C122.6 102.393 122.905 103.132 122.906 103.902V131.748C122.905 132.518 122.6 133.257 122.057 133.802C121.514 134.347 120.777 134.653 120.009 134.654Z" fill="#10B6E8"/>
<path d="M168.494 154.701H95.7412C95.0581 154.701 94.4031 154.428 93.9201 153.944C93.4371 153.46 93.1658 152.802 93.1658 152.117C93.1658 151.432 93.4371 150.775 93.9201 150.291C94.4031 149.806 95.0581 149.534 95.7412 149.534H168.494C169.177 149.534 169.832 149.806 170.315 150.291C170.798 150.775 171.07 151.432 171.07 152.117C171.07 152.802 170.798 153.46 170.315 153.944C169.832 154.428 169.177 154.701 168.494 154.701Z" fill="#CCCCCC"/>
<path d="M168.495 168.261H95.7415C95.0591 168.26 94.4051 167.987 93.923 167.503C93.4409 167.019 93.17 166.362 93.17 165.678C93.17 164.994 93.4409 164.337 93.923 163.853C94.4051 163.368 95.0591 163.096 95.7415 163.095H168.495C168.833 163.094 169.168 163.161 169.481 163.29C169.794 163.42 170.079 163.61 170.318 163.85C170.558 164.09 170.748 164.375 170.878 164.688C171.007 165.002 171.074 165.338 171.074 165.678C171.074 166.017 171.007 166.354 170.878 166.667C170.748 166.981 170.558 167.266 170.318 167.506C170.079 167.746 169.794 167.936 169.481 168.066C169.168 168.195 168.833 168.262 168.495 168.261Z" fill="#CCCCCC"/>
<path d="M168.495 181.823H95.7415C95.0591 181.822 94.4051 181.549 93.923 181.065C93.4409 180.58 93.17 179.924 93.17 179.239C93.17 178.555 93.4409 177.899 93.923 177.414C94.4051 176.93 95.0591 176.657 95.7415 176.656H168.495C168.833 176.656 169.168 176.722 169.481 176.852C169.794 176.981 170.079 177.172 170.318 177.411C170.558 177.651 170.748 177.936 170.878 178.25C171.007 178.564 171.074 178.9 171.074 179.239C171.074 179.579 171.007 179.915 170.878 180.229C170.748 180.543 170.558 180.828 170.318 181.067C170.079 181.307 169.794 181.498 169.481 181.627C169.168 181.757 168.833 181.823 168.495 181.823Z" fill="#CCCCCC"/>
<path d="M168.495 195.384H95.7415C95.0591 195.383 94.4051 195.11 93.923 194.626C93.4409 194.142 93.17 193.485 93.17 192.801C93.17 192.117 93.4409 191.46 93.923 190.976C94.4051 190.491 95.0591 190.219 95.7415 190.218H168.495C168.833 190.217 169.168 190.284 169.481 190.413C169.794 190.543 170.079 190.733 170.318 190.973C170.558 191.213 170.748 191.498 170.878 191.811C171.007 192.125 171.074 192.461 171.074 192.801C171.074 193.141 171.007 193.477 170.878 193.79C170.748 194.104 170.558 194.389 170.318 194.629C170.079 194.869 169.794 195.059 169.481 195.189C169.168 195.318 168.833 195.385 168.495 195.384Z" fill="#CCCCCC"/>
<path d="M168.495 208.945H95.7415C95.0591 208.944 94.4051 208.671 93.923 208.187C93.4409 207.702 93.17 207.046 93.17 206.362C93.17 205.677 93.4409 205.021 93.923 204.536C94.4051 204.052 95.0591 203.779 95.7415 203.778H168.495C168.833 203.778 169.168 203.844 169.481 203.974C169.794 204.103 170.079 204.294 170.318 204.533C170.558 204.773 170.748 205.058 170.878 205.372C171.007 205.686 171.074 206.022 171.074 206.362C171.074 206.701 171.007 207.037 170.878 207.351C170.748 207.665 170.558 207.95 170.318 208.19C170.079 208.429 169.794 208.62 169.481 208.749C169.168 208.879 168.833 208.945 168.495 208.945Z" fill="#CCCCCC"/>
<path d="M194.131 105.548C214.493 105.548 231 88.991 231 68.5673C231 48.1436 214.493 31.5869 194.131 31.5869C173.768 31.5869 157.261 48.1436 157.261 68.5673C157.261 88.991 173.768 105.548 194.131 105.548Z" fill="#10B6E8"/>
<path d="M193.417 94.021C195.813 94.021 197.755 92.0728 197.755 89.6697C197.755 87.2665 195.813 85.3184 193.417 85.3184C191.021 85.3184 189.079 87.2665 189.079 89.6697C189.079 92.0728 191.021 94.021 193.417 94.021Z" fill="white"/>
<path d="M192.952 44.266C189.682 44.2985 186.553 45.6099 184.232 47.921C181.911 50.2321 180.581 53.3604 180.525 56.6404C180.524 56.7032 180.523 57.1446 180.523 57.722C180.523 58.5686 180.859 59.3804 181.455 59.9791C182.052 60.5777 182.862 60.914 183.706 60.9141C184.55 60.914 185.36 60.5772 185.957 59.9781C186.555 59.3789 186.89 58.5663 186.89 57.7192V57.7171C186.889 57.3243 186.889 57.0525 186.889 57.0358C186.889 55.9849 187.161 54.952 187.68 54.0387C188.198 53.1255 188.945 52.3633 189.846 51.8273C190.747 51.2912 191.772 50.9997 192.82 50.9814C193.868 50.9631 194.902 51.2187 195.821 51.7229C196.74 52.2272 197.513 52.9628 198.063 53.8574C198.613 54.7519 198.921 55.7747 198.957 56.825C198.993 57.8753 198.757 58.917 198.27 59.8476C197.783 60.7782 197.063 61.5656 196.181 62.1325L196.182 62.1338C196.182 62.1338 191.652 65.0586 190.271 69.0709L190.272 69.0712C190.03 69.8931 189.907 70.746 189.907 71.6032C189.907 71.9556 189.928 75.039 189.968 77.5416C189.982 78.4051 190.333 79.2285 190.947 79.8341C191.561 80.4397 192.388 80.7791 193.249 80.7789C193.68 80.7788 194.106 80.6937 194.504 80.5282C194.903 80.3628 195.264 80.1204 195.569 79.8147C195.874 79.5091 196.116 79.1462 196.28 78.7468C196.445 78.3475 196.53 77.9195 196.53 77.4872L196.53 77.4671C196.516 75.1751 196.509 72.5064 196.509 72.3127C196.509 69.849 198.878 67.3943 200.825 65.7935C203.078 63.9634 204.661 61.4348 205.327 58.6045C205.47 58.0211 205.549 57.4237 205.562 56.823C205.562 55.1739 205.239 53.541 204.609 52.0175C203.98 50.494 203.058 49.1096 201.896 47.9436C200.733 46.7775 199.353 45.8526 197.834 45.2215C196.315 44.5904 194.687 44.2656 193.043 44.2656C193.013 44.2656 192.983 44.2657 192.952 44.266Z" fill="white"/>
</svg>
