<svg width="44" height="45" viewBox="0 0 44 45" fill="none" xmlns="http://www.w3.org/2000/svg">
<g clip-path="url(#clip0_224_13855)">
<path d="M17.105 21.1374H21.0833C23.2713 21.1374 25.3698 22.0066 26.9169 23.5537C28.4641 25.1009 29.3333 27.1993 29.3333 29.3874H16.4981L16.5 31.2207H31.1666V29.3874C31.1609 27.4366 30.5973 25.5282 29.5423 23.8874H34.8333C36.5663 23.8869 38.2639 24.3777 39.7293 25.3028C41.1947 26.2279 42.3678 27.5495 43.1126 29.1142C38.7768 34.836 31.757 38.554 23.8333 38.554C18.7715 38.554 14.4833 37.4724 11 35.5749V18.5175C13.2304 18.837 15.3367 19.7409 17.105 21.1374ZM9.16665 34.8874C9.16665 35.3736 8.97349 35.8399 8.62968 36.1837C8.28586 36.5275 7.81954 36.7207 7.33331 36.7207H3.66665C3.18042 36.7207 2.7141 36.5275 2.37028 36.1837C2.02647 35.8399 1.83331 35.3736 1.83331 34.8874V18.3874C1.83331 17.9011 2.02647 17.4348 2.37028 17.091C2.7141 16.7472 3.18042 16.554 3.66665 16.554H7.33331C7.81954 16.554 8.28586 16.7472 8.62968 17.091C8.97349 17.4348 9.16665 17.9011 9.16665 18.3874V34.8874ZM33 9.2207C34.4587 9.2207 35.8576 9.80017 36.8891 10.8316C37.9205 11.8631 38.5 13.262 38.5 14.7207C38.5 16.1794 37.9205 17.5783 36.8891 18.6098C35.8576 19.6412 34.4587 20.2207 33 20.2207C31.5413 20.2207 30.1423 19.6412 29.1109 18.6098C28.0794 17.5783 27.5 16.1794 27.5 14.7207C27.5 13.262 28.0794 11.8631 29.1109 10.8316C30.1423 9.80017 31.5413 9.2207 33 9.2207ZM20.1666 3.7207C21.6253 3.7207 23.0243 4.30017 24.0557 5.33162C25.0872 6.36307 25.6666 7.76201 25.6666 9.2207C25.6666 10.6794 25.0872 12.0783 24.0557 13.1098C23.0243 14.1412 21.6253 14.7207 20.1666 14.7207C18.708 14.7207 17.309 14.1412 16.2776 13.1098C15.2461 12.0783 14.6666 10.6794 14.6666 9.2207C14.6666 7.76201 15.2461 6.36307 16.2776 5.33162C17.309 4.30017 18.708 3.7207 20.1666 3.7207Z" fill="white"/>
</g>
<defs>
<clipPath id="clip0_224_13855">
<rect width="44" height="44" fill="white" transform="translate(0 0.0546875)"/>
</clipPath>
</defs>
</svg>
