<svg width="44" height="45" viewBox="0 0 44 45" fill="none" xmlns="http://www.w3.org/2000/svg">
<g clip-path="url(#clip0_224_13836)">
<path d="M32.3712 28.0315L29.7789 25.4392L32.3712 22.8468C33.0522 22.1659 33.5924 21.3574 33.9609 20.4677C34.3294 19.5779 34.5191 18.6243 34.5191 17.6613C34.5191 16.6982 34.3294 15.7446 33.9609 14.8548C33.5924 13.9651 33.0522 13.1567 32.3712 12.4757C31.6902 11.7947 30.8818 11.2545 29.992 10.886C29.1023 10.5174 28.1487 10.3277 27.1856 10.3277C26.2226 10.3277 25.2689 10.5174 24.3792 10.886C23.4894 11.2545 22.681 11.7947 22 12.4757L19.4077 15.068L16.8154 12.4757L19.4077 9.88335C21.4763 7.8482 24.2652 6.71288 27.1671 6.7247C30.0689 6.73652 32.8485 7.89451 34.9004 9.94643C36.9524 11.9984 38.1104 14.778 38.1222 17.6798C38.134 20.5817 36.9987 23.3706 34.9635 25.4392L32.3712 28.0315ZM27.1847 33.218L24.5924 35.8103C23.574 36.8455 22.3607 37.6687 21.0226 38.2326C19.6845 38.7964 18.248 39.0898 16.7959 39.0957C15.3438 39.1016 13.905 38.82 12.5623 38.267C11.2196 37.714 9.9997 36.9007 8.97292 35.874C7.94615 34.8472 7.13283 33.6273 6.57987 32.2846C6.02692 30.9419 5.74528 29.5031 5.75119 28.051C5.7571 26.5989 6.05045 25.1624 6.61432 23.8243C7.17819 22.4861 8.00142 21.2729 9.03652 20.2545L11.6289 17.6622L14.2212 20.2545L11.6289 22.8468C10.9479 23.5278 10.4077 24.3363 10.0392 25.226C9.67061 26.1158 9.48092 27.0694 9.48092 28.0324C9.48092 28.9955 9.67061 29.9491 10.0392 30.8389C10.4077 31.7286 10.9479 32.537 11.6289 33.218C12.3098 33.899 13.1183 34.4392 14.008 34.8077C14.8978 35.1763 15.8514 35.366 16.8144 35.366C17.7775 35.366 18.7311 35.1763 19.6209 34.8077C20.5106 34.4392 21.319 33.899 22 33.218L24.5924 30.6257L27.1847 33.218ZM27.1847 15.068L29.7789 17.6622L16.8154 30.6239L14.2212 28.0315L27.1847 15.0698V15.068Z" fill="white"/>
</g>
<defs>
<clipPath id="clip0_224_13836">
<rect width="44" height="44" fill="white" transform="translate(0 0.847656)"/>
</clipPath>
</defs>
</svg>
