<svg width="141" height="33" viewBox="0 0 141 33" fill="none" xmlns="http://www.w3.org/2000/svg">
<path fill-rule="evenodd" clip-rule="evenodd" d="M0.323114 3.65238C0.325772 4.72062 0.327875 5.23473 0.921746 5.89717C1.4346 6.46921 2.04161 6.7316 3.04898 6.73146L24.2561 6.73129C25.7948 6.73171 26.8986 6.11268 27.1171 4.70958C27.3682 3.0991 26.2139 2.37005 25.4136 1.54977C24.1668 0.27177 23.8262 0.488937 21.6496 0.488937C19.0983 0.489077 2.79109 0.384424 2.13649 0.53723C1.67345 0.645397 1.00039 1.1907 0.737457 1.57426C0.343968 2.14784 0.319895 2.77137 0.323114 3.65238V3.65238Z" fill="#10B6E8"/>
<path fill-rule="evenodd" clip-rule="evenodd" d="M2.19563 10.7228C-0.417742 11.506 -0.333927 15.6509 1.69495 16.6198C2.65068 17.0761 9.41932 16.8514 10.7498 16.8514C11.961 16.8514 15.981 17.0047 16.8757 16.7796C18.4845 16.3751 19.2351 14.3751 18.2108 13.0155C17.8551 12.5433 17.1423 11.8876 16.6933 11.453C15.9809 10.7635 15.6031 10.6538 14.4233 10.6517C12.5941 10.6484 3.14283 10.439 2.19563 10.7228Z" fill="#10B6E8"/>
<circle cx="5.96137" cy="26.5095" r="5.76044" fill="#09099F"/>
<path d="M19.8956 24.4361C19.8956 22.84 20.1802 21.4387 20.7493 20.2323C21.3363 19.0259 22.1278 18.0979 23.1238 17.4483C24.1199 16.7988 25.2315 16.474 26.4588 16.474C27.5082 16.474 28.4242 16.6967 29.2069 17.1421C30.0072 17.5875 30.6209 18.1722 31.0478 18.896V16.6967H35.61V32.2312H31.0478V30.0319C30.6031 30.7557 29.9806 31.3403 29.1802 31.7858C28.3976 32.2312 27.4816 32.4539 26.4321 32.4539C25.2227 32.4539 24.1199 32.1291 23.1238 31.4795C22.1278 30.8114 21.3363 29.8741 20.7493 28.6677C20.1802 27.4428 19.8956 26.0322 19.8956 24.4361ZM31.0478 24.4639C31.0478 23.2761 30.7276 22.3388 30.0873 21.6521C29.4648 20.9654 28.6999 20.6221 27.7928 20.6221C26.8857 20.6221 26.112 20.9654 25.4717 21.6521C24.8491 22.3203 24.5379 23.2483 24.5379 24.4361C24.5379 25.6239 24.8491 26.5705 25.4717 27.2757C26.112 27.9625 26.8857 28.3058 27.7928 28.3058C28.6999 28.3058 29.4648 27.9625 30.0873 27.2757C30.7276 26.589 31.0478 25.6518 31.0478 24.4639Z" fill="#2A3342"/>
<path d="M45.0737 27.7769L48.3019 16.6967H53.1577L47.8751 32.2312H42.2456L36.963 16.6967H41.8454L45.0737 27.7769Z" fill="#2A3342"/>
<path d="M68.578 24.2134C68.578 24.6588 68.5514 25.1228 68.498 25.6054H58.1729C58.244 26.5705 58.5375 27.3129 59.0533 27.8325C59.5869 28.3337 60.2361 28.5842 61.0009 28.5842C62.1393 28.5842 62.9308 28.0831 63.3755 27.0809H68.2312C67.9822 28.1017 67.5286 29.0204 66.8705 29.837C66.2302 30.6536 65.4209 31.2939 64.4427 31.7579C63.4644 32.2219 62.3705 32.4539 61.161 32.4539C59.7025 32.4539 58.4041 32.1291 57.2658 31.4795C56.1274 30.8299 55.2381 29.902 54.5978 28.6956C53.9575 27.4892 53.6373 26.0786 53.6373 24.4639C53.6373 22.8492 53.9486 21.4387 54.5711 20.2323C55.2114 19.0259 56.1007 18.0979 57.2391 17.4483C58.3774 16.7988 59.6847 16.474 61.161 16.474C62.6017 16.474 63.8824 16.7895 65.0029 17.4205C66.1235 18.0515 66.995 18.9517 67.6176 20.121C68.2579 21.2902 68.578 22.6544 68.578 24.2134ZM63.9091 22.9606C63.9091 22.144 63.6423 21.4944 63.1087 21.0118C62.5751 20.5293 61.9081 20.288 61.1077 20.288C60.3428 20.288 59.6936 20.52 59.16 20.984C58.6442 21.448 58.3241 22.1068 58.1996 22.9606H63.9091Z" fill="#2A3342"/>
<path d="M75.0135 19.2858C75.5471 18.432 76.2141 17.7639 77.0145 17.2813C77.8149 16.7802 78.7042 16.5296 79.6825 16.5296V21.5686H78.4285C77.2902 21.5686 76.4364 21.8285 75.8673 22.3481C75.2981 22.8492 75.0135 23.7401 75.0135 25.0207V32.2312H70.4513V16.6967H75.0135V19.2858Z" fill="#2A3342"/>
<path d="M95.3632 24.2134C95.3632 24.6588 95.3365 25.1228 95.2832 25.6054H84.958C85.0292 26.5705 85.3227 27.3129 85.8385 27.8325C86.3721 28.3337 87.0213 28.5842 87.7861 28.5842C88.9244 28.5842 89.7159 28.0831 90.1606 27.0809H95.0164C94.7673 28.1017 94.3138 29.0204 93.6557 29.837C93.0154 30.6536 92.2061 31.2939 91.2278 31.7579C90.2495 32.2219 89.1557 32.4539 87.9462 32.4539C86.4877 32.4539 85.1893 32.1291 84.0509 31.4795C82.9126 30.8299 82.0232 29.902 81.3829 28.6956C80.7426 27.4892 80.4224 26.0786 80.4224 24.4639C80.4224 22.8492 80.7337 21.4387 81.3562 20.2323C81.9966 19.0259 82.8859 18.0979 84.0242 17.4483C85.1626 16.7988 86.4699 16.474 87.9462 16.474C89.3869 16.474 90.6675 16.7895 91.7881 17.4205C92.9086 18.0515 93.7802 18.9517 94.4027 20.121C95.043 21.2902 95.3632 22.6544 95.3632 24.2134ZM90.6942 22.9606C90.6942 22.144 90.4274 21.4944 89.8938 21.0118C89.3602 20.5293 88.6932 20.288 87.8928 20.288C87.128 20.288 86.4788 20.52 85.9452 20.984C85.4294 21.448 85.1092 22.1068 84.9847 22.9606H90.6942Z" fill="#2A3342"/>
<path d="M116.233 16.5296C118.082 16.5296 119.55 17.1143 120.635 18.2835C121.737 19.4528 122.289 21.0768 122.289 23.1555V32.2312H117.753V23.7958C117.753 22.7936 117.495 22.0233 116.98 21.4851C116.482 20.9283 115.788 20.6499 114.899 20.6499C114.009 20.6499 113.307 20.9283 112.791 21.4851C112.293 22.0233 112.044 22.7936 112.044 23.7958V32.2312H107.508V23.7958C107.508 22.7936 107.25 22.0233 106.734 21.4851C106.236 20.9283 105.543 20.6499 104.653 20.6499C103.764 20.6499 103.062 20.9283 102.546 21.4851C102.048 22.0233 101.799 22.7936 101.799 23.7958V32.2312H97.2364V16.6967H101.799V18.6455C102.261 17.9959 102.866 17.4855 103.613 17.1143C104.36 16.7245 105.205 16.5296 106.147 16.5296C107.268 16.5296 108.264 16.7802 109.136 17.2813C110.025 17.7824 110.719 18.497 111.217 19.425C111.732 18.5712 112.435 17.8752 113.324 17.337C114.214 16.7988 115.183 16.5296 116.233 16.5296Z" fill="#2A3342"/>
<path d="M127.24 15.082C126.44 15.082 125.782 14.8407 125.266 14.3581C124.768 13.857 124.519 13.2446 124.519 12.5207C124.519 11.7783 124.768 11.1659 125.266 10.6833C125.782 10.1822 126.44 9.93164 127.24 9.93164C128.023 9.93164 128.663 10.1822 129.161 10.6833C129.677 11.1659 129.935 11.7783 129.935 12.5207C129.935 13.2446 129.677 13.857 129.161 14.3581C128.663 14.8407 128.023 15.082 127.24 15.082ZM129.508 16.6967V32.2312H124.946V16.6967H129.508Z" fill="#2A3342"/>
<path d="M140.578 28.1945V32.2312H138.257C136.603 32.2312 135.313 31.8136 134.389 30.9784C133.464 30.1247 133.001 28.742 133.001 26.8303V20.6499H131.187V16.6967H133.001V12.9105H137.563V16.6967H140.552V20.6499H137.563V26.886C137.563 27.35 137.67 27.6841 137.884 27.8882C138.097 28.0924 138.453 28.1945 138.951 28.1945H140.578Z" fill="#2A3342"/>
</svg>
